<?xml version="1.0" encoding="UTF-8"?>
<svg width="70px" height="70px" viewBox="0 0 70 70" version="1.1" xmlns="http://www.w3.org/2000/svg" xmlns:xlink="http://www.w3.org/1999/xlink">
    <!-- Generator: Sketch 49 (51002) - http://www.bohemiancoding.com/sketch -->
    <title>icon-2</title>
    <desc>Created with Sketch.</desc>
    <defs></defs>
    <g id="Page-1" stroke="none" stroke-width="1" fill="none" fill-rule="evenodd">
        <g id="1-main" transform="translate(-686.000000, -831.000000)" fill="#0059BB" fill-rule="nonzero">
            <g id="icon-2" transform="translate(686.000000, 831.000000)">
                <path d="M67.4777419,60.9677419 L68.5514516,59.1782258 C69.4998387,57.5987097 70,55.791129 70,53.9496774 L70,28.386129 C70,25.0690323 68.7083871,21.9506452 66.3622581,19.6045161 L61.5424194,14.7846774 C60.7814516,14.0237097 59.778871,13.6014516 58.7096774,13.5630645 L58.7096774,0 L11.2903226,0 L11.2903226,13.5630645 C10.22,13.6014516 9.21741935,14.0237097 8.45758065,14.7846774 L3.63774194,19.6045161 C1.2916129,21.9506452 0,25.0690323 0,28.386129 L0,53.9496774 C0,55.791129 0.50016129,57.5987097 1.44854839,59.1770968 L2.52225806,60.9677419 L0,60.9677419 L0,70 L20.3225806,70 L20.3225806,60.9677419 L18.0645161,60.9677419 L18.0645161,56.7858065 C19.5435484,54.4509677 20.3225806,51.763871 20.3225806,48.9932258 L20.3225806,47.4193548 L23.7096774,47.4193548 L23.7096774,47.4069355 C23.9659677,47.7479032 24.2606452,48.0629032 24.5948387,48.3417742 C24.4717742,49.7406452 24.8737097,51.1191935 25.7182258,52.2301613 L20.7233871,64.853871 L26.4927419,63.4109677 L29.47,69.3654839 L34.6443548,56.4312903 C34.7617742,56.4391935 34.8803226,56.4516129 35,56.4516129 C35.1196774,56.4516129 35.2382258,56.4391935 35.3567742,56.4324194 L40.531129,69.3666129 L43.5083871,63.4120968 L49.2777419,64.855 L44.2829032,52.2312903 C45.1274194,51.1203226 45.5293548,49.7417742 45.4051613,48.3429032 C45.7382258,48.0640323 46.0329032,47.7490323 46.2903226,47.4080645 L46.2903226,47.4193548 L49.6774194,47.4193548 L49.6774194,48.9943548 C49.6774194,51.765 50.4564516,54.4509677 51.9354839,56.7869355 L51.9354839,60.9677419 L49.6774194,60.9677419 L49.6774194,70 L70,70 L70,60.9677419 L67.4777419,60.9677419 Z M58.7096774,24.1782258 L59.9764516,25.445 C60.6064516,26.073871 60.9677419,26.9466129 60.9677419,27.8385484 L60.9677419,31.4164516 L58.7096774,29.4812903 L58.7096774,24.1782258 Z M58.7096774,40.6451613 L58.7096774,32.4551613 L60.9677419,34.3903226 L60.9677419,39.9033871 C60.9677419,40.7953226 60.6064516,41.6669355 59.9764516,42.2980645 L58.7096774,43.5648387 L58.7096774,40.6451613 Z M18.0645161,67.7419355 L2.25806452,67.7419355 L2.25806452,63.2258065 L18.0645161,63.2258065 L18.0645161,67.7419355 Z M18.0645161,48.9943548 C18.0645161,51.4341935 17.3498387,53.796129 15.996129,55.826129 L15.8064516,56.1095161 L15.8064516,60.9677419 L5.15516129,60.9677419 L3.38370968,58.0153226 C2.64758065,56.7880645 2.25806452,55.3824194 2.25806452,53.9496774 L2.25806452,28.386129 C2.25806452,25.6719355 3.31483871,23.1203226 5.23419355,21.2009677 L10.0540323,16.381129 C10.3882258,16.0469355 10.8240323,15.8572581 11.2903226,15.821129 L11.2903226,20.9841935 L8.42709677,23.8474194 C7.36129032,24.9132258 6.77419355,26.3301613 6.77419355,27.8385484 L6.77419355,39.9045161 C6.77419355,41.4117742 7.36129032,42.8298387 8.42709677,43.8956452 L11.2903226,46.7577419 L11.2903226,48.5483871 L13.5483871,48.5483871 L13.5483871,46.2903226 L13.5483871,40.6451613 C13.5483871,39.3998387 14.561129,38.3870968 15.8064516,38.3870968 C17.0517742,38.3870968 18.0645161,39.3998387 18.0645161,40.6451613 L18.0645161,48.9943548 Z M9.03225806,31.4153226 L9.03225806,27.8374194 C9.03225806,26.9454839 9.39354839,26.073871 10.0235484,25.4427419 L11.2903226,24.1770968 L11.2903226,29.4801613 L9.03225806,31.4153226 Z M11.2903226,32.4551613 L11.2903226,40.6451613 L11.2903226,43.5648387 L10.0235484,42.2980645 C9.39354839,41.6680645 9.03225806,40.7953226 9.03225806,39.9033871 L9.03225806,34.3903226 L11.2903226,32.4551613 Z M29.2396774,63.8591935 L27.7008065,60.7814516 L24.4379032,61.5966129 L27.5303226,53.7825806 C28.49,54.2996774 29.5817742,54.5345161 30.6893548,54.4374194 C31.1816129,55.0245161 31.7833871,55.4930645 32.4495161,55.8329032 L29.2396774,63.8591935 Z M45.5598387,61.5977419 L42.2980645,60.7814516 L40.7591935,63.8591935 L37.5493548,55.8340323 C38.2154839,55.4941935 38.8172581,55.0256452 39.3095161,54.4385484 C40.4170968,54.5367742 41.508871,54.3008065 42.4685484,53.7837097 L45.5598387,61.5977419 Z M43.5817742,46.8841935 L42.9122581,47.3087097 L43.085,48.0832258 C43.3401613,49.2269355 43.0037097,50.3977419 42.1851613,51.2162903 C41.3654839,52.0348387 40.1935484,52.3712903 39.0509677,52.116129 L38.2764516,51.9433871 L37.8519355,52.6129032 C37.2241935,53.6030645 36.1572581,54.1935484 35,54.1935484 C33.8427419,54.1935484 32.7758065,53.6030645 32.1480645,52.6140323 L31.7224194,51.9445161 L30.9490323,52.1172581 C29.8030645,52.3712903 28.6333871,52.0359677 27.8159677,51.2162903 C26.9974194,50.3977419 26.6609677,49.2269355 26.916129,48.0832258 L27.088871,47.3087097 L26.4193548,46.8841935 C25.4291935,46.2564516 24.8387097,45.1895161 24.8387097,44.0322581 C24.8387097,42.875 25.4291935,41.8080645 26.4182258,41.1803226 L27.0877419,40.7558065 L26.915,39.9812903 C26.6598387,38.8375806 26.9962903,37.6667742 27.8148387,36.8470968 C28.6333871,36.0285484 29.8053226,35.6909677 30.9490323,35.9472581 L31.7224194,36.118871 L32.1469355,35.4504839 C32.7758065,34.4614516 33.8427419,33.8709677 35,33.8709677 C36.1572581,33.8709677 37.2241935,34.4614516 37.8530645,35.4504839 L38.2775806,36.118871 L39.0509677,35.9472581 C40.1924194,35.6909677 41.3666129,36.0296774 42.1851613,36.8470968 C43.0037097,37.6667742 43.3401613,38.8375806 43.085,39.9812903 L42.9122581,40.7558065 L43.5817742,41.1803226 C44.5708065,41.8080645 45.1612903,42.875 45.1612903,44.0322581 C45.1612903,45.1895161 44.5708065,46.2564516 43.5817742,46.8841935 Z M49.6774194,40.6451613 L49.6774194,45.1612903 L47.3008065,45.1612903 C47.3764516,44.7932258 47.4193548,44.416129 47.4193548,44.0322581 C47.4193548,42.351129 46.6787097,40.7885484 45.4051613,39.7227419 C45.5508065,38.0687097 44.9693548,36.4395161 43.7816129,35.2506452 C42.5927419,34.0629032 40.9624194,33.4837097 39.3095161,33.6270968 C38.2437097,32.3535484 36.68,31.6129032 35,31.6129032 C33.32,31.6129032 31.7562903,32.3535484 30.6904839,33.6259677 C29.0375806,33.4837097 27.4072581,34.0617742 26.2195161,35.2495161 C25.0306452,36.4383871 24.4491935,38.0675806 24.5959677,39.7216129 C23.3212903,40.7885484 22.5806452,42.351129 22.5806452,44.0322581 C22.5806452,44.4172581 22.6235484,44.7932258 22.6991935,45.1612903 L20.3225806,45.1612903 L20.3225806,40.6451613 C20.3225806,38.1545161 18.2970968,36.1290323 15.8064516,36.1290323 C14.98,36.1290323 14.2156452,36.3683871 13.5483871,36.7567742 L13.5483871,2.25806452 L56.4516129,2.25806452 L56.4516129,36.7567742 C55.7843548,36.3683871 55.02,36.1290323 54.1935484,36.1290323 C51.7029032,36.1290323 49.6774194,38.1545161 49.6774194,40.6451613 Z M51.9354839,48.9943548 L51.9354839,40.6451613 C51.9354839,39.3998387 52.9482258,38.3870968 54.1935484,38.3870968 C55.438871,38.3870968 56.4516129,39.3998387 56.4516129,40.6451613 L56.4516129,46.2903226 L56.4516129,48.5483871 L58.7096774,48.5483871 L58.7096774,46.7577419 L61.5729032,43.8945161 C62.6387097,42.8287097 63.2258065,41.4117742 63.2258065,39.9033871 L63.2258065,27.8385484 C63.2258065,26.3312903 62.6387097,24.9132258 61.5729032,23.8474194 L58.7096774,20.9841935 L58.7096774,15.821129 C59.1759677,15.8572581 59.6117742,16.0469355 59.9459677,16.381129 L64.7658065,21.2009677 C66.6851613,23.1203226 67.7419355,25.6719355 67.7419355,28.386129 L67.7419355,53.9496774 C67.7419355,55.3824194 67.3524194,56.7880645 66.6151613,58.0153226 L64.8448387,60.9677419 L54.1935484,60.9677419 L54.1935484,56.1095161 L54.003871,55.825 C52.6501613,53.795 51.9354839,51.4330645 51.9354839,48.9943548 Z M67.7419355,67.7419355 L51.9354839,67.7419355 L51.9354839,63.2258065 L67.7419355,63.2258065 L67.7419355,67.7419355 Z" id="Shape"></path>
                <path d="M35,38.3870968 C31.8872581,38.3870968 29.3548387,40.9195161 29.3548387,44.0322581 C29.3548387,47.145 31.8872581,49.6774194 35,49.6774194 C38.1127419,49.6774194 40.6451613,47.145 40.6451613,44.0322581 C40.6451613,40.9195161 38.1127419,38.3870968 35,38.3870968 Z M35,47.4193548 C33.1325806,47.4193548 31.6129032,45.8996774 31.6129032,44.0322581 C31.6129032,42.1648387 33.1325806,40.6451613 35,40.6451613 C36.8674194,40.6451613 38.3870968,42.1648387 38.3870968,44.0322581 C38.3870968,45.8996774 36.8674194,47.4193548 35,47.4193548 Z" id="Shape"></path>
                <path d="M15.8064516,4.51612903 L15.8064516,15.8064516 L54.1935484,15.8064516 L54.1935484,4.51612903 L15.8064516,4.51612903 Z M51.9354839,13.5483871 L18.0645161,13.5483871 L18.0645161,6.77419355 L51.9354839,6.77419355 L51.9354839,13.5483871 Z" id="Shape"></path>
                <rect id="Rectangle-path" x="20.3225806" y="18.0645161" width="33.8709677" height="2.25806452"></rect>
                <rect id="Rectangle-path" x="15.8064516" y="22.5806452" width="38.3870968" height="2.25806452"></rect>
                <rect id="Rectangle-path" x="15.8064516" y="27.0967742" width="33.8709677" height="2.25806452"></rect>
                <rect id="Rectangle-path" x="51.9354839" y="27.0967742" width="2.25806452" height="2.25806452"></rect>
                <rect id="Rectangle-path" x="15.8064516" y="18.0645161" width="2.25806452" height="2.25806452"></rect>
            </g>
        </g>
    </g>
</svg>