<?xml version="1.0" encoding="UTF-8"?>
<svg width="70px" height="69px" viewBox="0 0 70 69" version="1.1" xmlns="http://www.w3.org/2000/svg" xmlns:xlink="http://www.w3.org/1999/xlink">
    <!-- Generator: Sketch 49 (51002) - http://www.bohemiancoding.com/sketch -->
    <title>icon-3</title>
    <desc>Created with Sketch.</desc>
    <defs></defs>
    <g id="Page-1" stroke="none" stroke-width="1" fill="none" fill-rule="evenodd">
        <g id="1-main" transform="translate(-1071.000000, -831.000000)" fill="#0059BB" fill-rule="nonzero">
            <g id="icon-3" transform="translate(1071.000000, 831.000000)">
                <path d="M69.5115645,14.3173311 C69.5099637,14.3157303 69.5082173,14.3139839 69.5066165,14.3123831 L55.5357225,0.341489126 C55.313498,0.11577187 55.0075936,-0.00763769328 54.6910655,0.000366464721 C54.374974,0.0060421404 54.0748909,0.140220935 53.8599429,0.372195987 L49.5349325,5.02916064 C49.1130406,5.48350576 49.1210447,6.18874484 49.5531237,6.63333944 L49.8810032,6.97053278 L48.1637474,8.6877885 L45.45092,8.01020014 C43.0178015,7.41469079 40.4507953,8.14379682 38.6939553,9.9294517 L33.7453483,15.6966658 L27.9951612,9.94647873 C26.3559096,8.29791324 23.9227911,7.7232147 21.7191736,8.46381761 C21.5876144,8.50805877 21.4649325,8.57500264 21.3565125,8.66159308 L21.040421,8.91627083 L20.2740593,8.15005461 L21.7794231,6.64469079 C22.2340593,6.19034567 22.2342048,5.45338102 21.7798597,4.99889037 C21.7797142,4.99874484 21.7795686,4.99859931 21.7794231,4.99845378 L17.1224585,0.341489126 C16.6681133,-0.113147049 15.9311487,-0.113292579 15.476658,0.341052535 C15.4765125,0.341198066 15.476367,0.341343596 15.4762214,0.341489126 L0.341086314,15.4766243 C-0.113549861,15.9309694 -0.113695391,16.667934 0.340649723,17.1224247 C0.340795253,17.1225702 0.340940783,17.1227157 0.341086314,17.1228613 L4.99805097,21.7798259 C5.45239608,22.2344621 6.18936074,22.2346076 6.64399692,21.7802625 C6.64414245,21.780117 6.64428798,21.7799715 6.64443351,21.7798259 L7.17023392,21.2540255 L9.92904889,24.0128405 L9.25146053,26.7256679 C8.65711542,29.122986 9.35566012,31.6568114 11.0944543,33.4110317 L20.9564501,43.5568114 L20.9564501,52.6584122 C20.9778431,54.745169 22.1487786,56.6498675 24.0012318,57.6109486 C24.9944751,58.1395141 25.6147246,59.1735058 25.6134148,60.2987448 L25.6134148,60.540907 L24.4491736,60.540907 C23.8065125,60.5404704 23.2853691,61.0611773 23.2849325,61.7038384 C23.2849325,61.704275 23.2849325,61.7047116 23.2849325,61.7051482 L23.2849325,67.526354 C23.2844959,68.1690151 23.8052027,68.6901586 24.4478639,68.6905952 C24.4483005,68.6905952 24.448737,68.6905952 24.4491736,68.6905952 L46.5697558,68.6905952 C47.2124169,68.6910317 47.7335603,68.1703249 47.7339969,67.5276638 C47.7339969,67.5272272 47.7339969,67.5267906 47.7339969,67.526354 L47.7339969,61.7051482 C47.7344335,61.062487 47.2137266,60.5413436 46.5710655,60.540907 C46.5706289,60.540907 46.5701923,60.540907 46.5697558,60.540907 L45.4055146,60.540907 L45.4055146,59.3709902 L47.2508368,57.6690151 C49.0166996,56.3330484 50.0568036,54.2486201 50.0624792,52.0342334 L50.0624792,38.3957303 C51.4410863,38.230117 52.7226248,37.6014268 53.6973857,36.6125494 L59.85171,29.9295141 C61.2984252,28.4932771 61.802105,26.359223 61.15013,24.4277469 C60.9635603,23.8662916 61.9664086,22.028828 63.1612111,20.6196596 C63.3744127,20.8312604 63.6613982,20.9520505 63.9617724,20.9565619 L63.9731237,20.9565619 C64.2796102,20.9565619 64.5738722,20.8356263 64.7917308,20.6199507 L69.502105,15.962986 C69.9592152,15.5112604 69.9634356,14.7744413 69.5115645,14.3173311 Z M5.821315,19.3104704 L2.81073288,16.2997428 L16.2994855,2.81084464 L19.3102131,5.82142676 L5.821315,19.3104704 Z M21.059631,40.3224039 L12.7521882,31.7760006 C11.5834356,30.5998259 11.1125,28.8994517 11.5095063,27.2895972 L12.3474688,23.9378925 C12.447157,23.5413228 12.3308784,23.1216139 12.0415645,22.8327365 L8.81661646,19.6077885 L18.6279678,9.79643715 L20.1333316,11.301801 C20.5537682,11.7219465 21.2230614,11.7581835 21.6864293,11.3859174 L22.6425624,10.6162085 C23.9636851,10.246853 25.3814397,10.6204288 26.3490697,11.5928613 L32.7669491,18.0107407 L32.7558888,18.0190359 C32.2364917,18.4962293 31.8493815,19.0998883 31.6325416,19.7710733 C30.9110032,19.3800338 30.0887578,19.2148571 29.2721882,19.2969361 C27.1589449,19.5725702 25.5866372,21.3863124 25.6134148,23.5173103 L25.6134148,35.6929444 C23.2978847,36.171011 21.4995686,37.9991606 21.059631,40.3224039 Z M45.4055146,66.3621128 L25.6134148,66.3621128 L25.6134148,62.8693893 L45.4055146,62.8693893 L45.4055146,66.3621128 Z M47.7339969,52.0342334 C47.7204626,53.5558966 46.9897558,54.9819465 45.7625,55.8817594 L43.4533732,58.0032979 C43.213394,58.223776 43.0768867,58.5347739 43.0770323,58.8606159 L43.0770323,60.5410525 L27.9418971,60.5410525 L27.9418971,60.2988904 C27.9445167,58.3131315 26.8495479,56.4884746 25.0960551,55.5566451 C24.0035603,54.9989735 23.3073441,53.8847947 23.2849325,52.6585577 L23.2849325,41.3969985 C23.2894439,39.9217594 24.2218555,38.608932 25.6134148,38.1187864 L25.6134148,45.4059174 L27.9418971,45.4059174 L27.9418971,23.5171648 C27.9062422,22.578932 28.5768451,21.7617802 29.5040177,21.6139216 C29.997947,21.562986 30.490421,21.7236513 30.85934,22.0561877 C31.2273857,22.3856679 31.4368036,22.8570401 31.4346206,23.3511149 L31.4346206,40.7488072 L33.7631029,40.7488072 L33.7631029,21.0226326 C33.7623753,20.0584954 34.5434356,19.2764164 35.5075728,19.2756887 C35.561419,19.2756887 35.6151196,19.2781627 35.6686747,19.2829652 C36.6115645,19.4401378 37.2910447,20.2730068 37.2558264,21.2282667 L37.2558264,40.7486617 L39.5843088,40.7486617 L39.5843088,24.5153561 C39.5835811,23.5512189 40.3646414,22.7691399 41.3287786,22.7684122 C41.3826248,22.7684122 41.4363254,22.7708862 41.4898805,22.7756887 C42.4327703,22.9328613 43.1122506,23.7657303 43.0770323,24.7209902 L43.0770323,40.7486617 L45.4055146,40.7486617 L45.4055146,31.1330484 C46.7970738,31.6231939 47.7294855,32.9360214 47.7339969,34.4112604 L47.7339969,52.0342334 Z M58.9420011,25.164566 C59.3117932,26.2761253 59.0127287,27.5011981 58.1722921,28.3173311 L52.0179678,35.0003665 C51.485473,35.5385369 50.804683,35.9054184 50.0623337,36.0542958 L50.0623337,34.411406 C50.0586955,31.6463332 48.1136851,29.2640047 45.4053691,28.7073519 L45.4053691,24.7211357 C45.446263,22.5569569 43.8412111,20.7136721 41.6920219,20.4563748 C40.9620427,20.3949611 40.2287163,20.5284122 39.5669907,20.8429028 C39.4299013,18.8284746 37.8762214,17.1979548 35.870816,16.9636513 C35.8213358,16.9594309 35.7725832,16.9687448 35.7231029,16.9664164 L40.4004418,11.5109278 C41.576762,10.3426118 43.2769907,9.87167624 44.8868451,10.2682459 L48.2385499,11.1062085 C48.6351196,11.2056055 49.054683,11.0894725 49.3437059,10.8003041 L51.5041009,8.63990908 L61.5354938,18.9558135 C60.4608992,20.2024247 58.2533524,23.0994933 58.9420011,25.164566 Z M63.9891321,18.1392438 L51.9941009,5.80323549 L54.7433108,2.84140597 L67.032604,15.1306991 L63.9891321,18.1392438 Z" id="Shape"></path>
            </g>
        </g>
    </g>
</svg>