<?xml version="1.0" encoding="UTF-8"?>
<svg width="70px" height="70px" viewBox="0 0 70 70" version="1.1" xmlns="http://www.w3.org/2000/svg" xmlns:xlink="http://www.w3.org/1999/xlink">
    <!-- Generator: Sketch 49 (51002) - http://www.bohemiancoding.com/sketch -->
    <title>icon-1</title>
    <desc>Created with Sketch.</desc>
    <defs></defs>
    <g id="Page-1" stroke="none" stroke-width="1" fill="none" fill-rule="evenodd">
        <g id="1-main" transform="translate(-301.000000, -831.000000)" fill="#0059BB" fill-rule="nonzero">
            <g id="icon-1" transform="translate(301.000000, 831.000000)">
                <path d="M65.9772713,54.4046907 L65.8675655,54.3721648 C67.5682806,53.6582503 68.4790039,52.7960402 68.5412991,52.733745 L69.5143177,51.7607265 L68.3687468,50.9960938 C66.562185,49.7926379 65.483871,47.777139 65.483871,45.6072801 L65.483871,38.3870968 C65.483871,32.1614321 60.419213,27.0967742 54.1935484,27.0967742 C47.9678837,27.0967742 42.9032258,32.1614321 42.9032258,38.3870968 L42.9032258,45.6072801 C42.9032258,47.777139 41.8249118,49.7926379 40.01835,50.9960938 L38.8727791,51.7607265 L39.8457977,52.733745 C39.9080929,52.7960402 40.8188162,53.6582503 42.5195312,54.3721648 L42.4098254,54.4046907 C40.0040165,55.1263231 38.3870968,57.2983871 38.3870968,59.8116967 L38.3870968,70 L70,70 L70,59.8116967 C70,57.2983871 68.3830803,55.1263231 65.9772713,54.4046907 Z M46.2903226,42.0889775 L46.2903226,45.1612903 C46.2903226,45.4457535 46.3074125,45.7258065 46.3366305,46.0014491 C45.6398059,45.6172033 45.1612903,44.8834425 45.1612903,44.0333606 C45.1612903,43.2014711 45.6183058,42.4809412 46.2903226,42.0889775 Z M48.5483871,41.7741935 L48.7424395,41.7741935 C50.7441564,41.7741935 52.6444368,41.1137537 54.1935484,39.8943108 C55.74266,41.1137537 57.6429404,41.7741935 59.6446573,41.7741935 L59.8387097,41.7741935 L59.8387097,45.1612903 C59.8387097,48.2738471 57.3061052,50.8064516 54.1935484,50.8064516 C51.0809916,50.8064516 48.5483871,48.2738471 48.5483871,45.1612903 L48.5483871,41.7741935 Z M50.2904486,54.3980753 L52.7023217,58.4174963 L50.3130513,60.2091734 L48.7821321,54.8506804 L50.2904486,54.3980753 Z M54.1935484,56.5161132 L51.9354839,52.75304 L51.9354839,52.7326425 C52.6510521,52.9459898 53.4090694,53.0645161 54.1935484,53.0645161 C54.9780274,53.0645161 55.7360447,52.9459898 56.4516129,52.7315398 L56.4516129,52.7519373 L54.1935484,56.5161132 Z M58.0966482,54.3980753 L59.6049647,54.8506804 L58.0740455,60.2091734 L55.684775,58.4174963 L58.0966482,54.3980753 Z M65.8824503,51.881458 C64.9849578,52.3858839 63.509167,52.9652848 61.4556294,53.0485289 L58.7096774,52.2243574 L58.7096774,51.6372386 C59.8398122,50.8472467 60.7499842,49.7689328 61.3415134,48.5097971 C62.1375692,48.4436428 62.8801505,48.190603 63.5058594,47.7639081 C63.903336,49.3262507 64.7170331,50.7546307 65.8824503,51.881458 Z M62.0504662,46.0014491 C62.0796843,45.724704 62.0967742,45.4446509 62.0967742,45.1612903 L62.0967742,42.0878748 C62.768791,42.4798387 63.2258065,43.2003686 63.2258065,44.0322581 C63.2258065,44.8834425 62.7472908,45.6161006 62.0504662,46.0014491 Z M54.1935484,29.3548387 C59.1738596,29.3548387 63.2258065,33.4067856 63.2258065,38.3870968 L63.2258065,40.144043 C62.5587513,39.7553868 61.7941186,39.516129 60.9677419,39.516129 L59.6446573,39.516129 C57.8866085,39.516129 56.2338552,38.831984 54.9918095,37.5888357 L54.1935484,36.7894721 L53.3952873,37.5888357 C52.152139,38.831984 50.5004882,39.516129 48.7424395,39.516129 L47.4193548,39.516129 C46.5929782,39.516129 45.8283454,39.7553868 45.1612903,40.1451455 L45.1612903,38.3870968 C45.1612903,33.4067856 49.2132372,29.3548387 54.1935484,29.3548387 Z M42.5046465,51.881458 C43.6700637,50.7546307 44.4826581,49.3262507 44.8801348,47.7639081 C45.5058436,48.190603 46.2484249,48.4436428 47.0444808,48.5097971 C47.6360099,49.7689328 48.546182,50.8472467 49.6763169,51.6372386 L49.6763169,52.2243574 L46.9314674,53.0474262 C44.8768271,52.9652848 43.402139,52.3847814 42.5046465,51.881458 Z M40.6451613,59.8116967 C40.6451613,58.3044827 41.6148721,57.0001418 43.0592396,56.5679341 L46.6188886,55.5000944 L49.04289,63.984375 L53.0645161,60.9677419 L53.0645161,67.7419355 L47.4193548,67.7419355 L47.4193548,63.2258065 L45.1612903,63.2258065 L45.1612903,67.7419355 L40.6451613,67.7419355 L40.6451613,59.8116967 Z M67.7419355,67.7419355 L63.2258065,67.7419355 L63.2258065,63.2258065 L60.9677419,63.2258065 L60.9677419,67.7419355 L55.3225806,67.7419355 L55.3225806,60.9677419 L59.3442068,63.984375 L61.7682082,55.5000944 L65.3278572,56.5679341 C66.7722246,57.0001418 67.7419355,58.3044827 67.7419355,59.8116967 L67.7419355,67.7419355 Z" id="Shape"></path>
                <path d="M27.5901746,49.8885617 L20.3225806,47.7082283 L20.3225806,47.1211095 C21.4527154,46.3311176 22.3628874,45.2528038 22.9544167,43.993668 C25.2676096,43.8007182 27.0967742,41.8778352 27.0967742,39.516129 L27.0967742,33.8709677 C27.0967742,27.6453031 22.0321163,22.5806452 15.8064516,22.5806452 C9.58078696,22.5806452 4.51612903,27.6453031 4.51612903,33.8709677 L4.51612903,39.516129 L4.51612903,39.5172315 C4.51612903,41.8789378 6.34529367,43.8007182 8.65848657,43.9947707 C9.25001579,45.2539063 10.1601878,46.3322203 11.2903226,47.122212 L11.2903226,47.709331 L4.02272867,49.8896642 C1.6169197,50.6101941 0,52.7822581 0,55.2955677 L0,65.483871 L31.6129032,65.483871 L31.6129032,55.2955677 C31.6129032,52.7822581 29.9959835,50.6101941 27.5901746,49.8885617 Z M21.2178679,50.3345514 L19.6869487,55.6930444 L17.2976783,53.9013673 L19.7095514,49.8819462 L21.2178679,50.3345514 Z M15.8064516,51.9999842 L13.5483871,48.2369109 L13.5483871,48.2165134 C14.2639553,48.4298607 15.0219726,48.5483871 15.8064516,48.5483871 C16.5909306,48.5483871 17.3489479,48.4298607 18.0645161,48.2154108 L18.0645161,48.2358083 L15.8064516,51.9999842 Z M23.6633695,41.4853201 C23.6925875,41.2085749 23.7096774,40.9285219 23.7096774,40.6451613 L23.7096774,37.5717458 C24.3816942,37.9637097 24.8387097,38.6842396 24.8387097,39.516129 C24.8387097,40.3673135 24.3601941,41.0999716 23.6633695,41.4853201 Z M15.8064516,24.8387097 C20.7867628,24.8387097 24.8387097,28.8906566 24.8387097,33.8709677 L24.8387097,35.627914 C24.1716546,35.2392577 23.4070218,35 22.5806452,35 L9.03225806,35 C8.20588139,35 7.44124867,35.2392577 6.77419355,35.6290165 L6.77419355,33.8709677 C6.77419355,28.8906566 10.8261404,24.8387097 15.8064516,24.8387097 Z M6.77419355,39.5172315 C6.77419355,38.6853421 7.23120901,37.9648122 7.90322581,37.5728484 L7.90322581,40.6451613 C7.90322581,40.9296245 7.92031569,41.2096774 7.94953377,41.4853201 C7.25270917,41.1010743 6.77419355,40.3673135 6.77419355,39.5172315 Z M10.1612903,40.6451613 L10.1612903,37.2580645 L21.4516129,37.2580645 L21.4516129,40.6451613 C21.4516129,43.7577181 18.9190084,46.2903226 15.8064516,46.2903226 C12.6938948,46.2903226 10.1612903,43.7577181 10.1612903,40.6451613 Z M11.9033518,49.8819462 L14.315225,53.9013673 L11.9259545,55.6930444 L10.3950353,50.3345514 L11.9033518,49.8819462 Z M29.3548387,63.2258065 L24.8387097,63.2258065 L24.8387097,58.7096774 L22.5806452,58.7096774 L22.5806452,63.2258065 L9.03225806,63.2258065 L9.03225806,58.7096774 L6.77419355,58.7096774 L6.77419355,63.2258065 L2.25806452,63.2258065 L2.25806452,55.2955677 C2.25806452,53.7883537 3.22777536,52.4840128 4.6721428,52.0518051 L8.23179183,50.9839654 L10.6557932,59.468246 L15.8064516,55.6048387 L20.95711,59.468246 L23.3811114,50.9839654 L26.9407604,52.0518051 C28.3851279,52.4840128 29.3548387,53.7883537 29.3548387,55.2955677 L29.3548387,63.2258065 Z" id="Shape"></path>
                <polygon id="Shape" points="15.8064516 13.5483871 24.8387097 13.5483871 24.8387097 15.8064516 15.8064516 15.8064516"></polygon>
                <polygon id="Shape" points="27.0967742 13.5483871 29.3548387 13.5483871 29.3548387 15.8064516 27.0967742 15.8064516"></polygon>
                <polygon id="Shape" points="15.8064516 4.51612903 29.3548387 4.51612903 29.3548387 6.77419355 15.8064516 6.77419355"></polygon>
                <polygon id="Shape" points="15.8064516 9.03225806 29.3548387 9.03225806 29.3548387 11.2903226 15.8064516 11.2903226"></polygon>
                <path d="M60.9677419,21.4516129 L60.9677419,7.90322581 C60.9677419,6.03602252 59.4478484,4.51612903 57.5806452,4.51612903 L40.6451613,4.51612903 L40.6451613,3.38709677 C40.6451613,1.51989349 39.1252678,0 37.2580645,0 L14.6774194,0 C12.8102161,0 11.2903226,1.51989349 11.2903226,3.38709677 L11.2903226,16.9354839 C11.2903226,18.8026872 12.8102161,20.3225806 14.6774194,20.3225806 L31.6129032,20.3225806 L31.6129032,21.4516129 C31.6129032,23.3188162 33.1327967,24.8387097 35,24.8387097 L57.5806452,24.8387097 C59.4478484,24.8387097 60.9677419,23.3188162 60.9677419,21.4516129 Z M14.6774194,18.0645161 C14.0544671,18.0645161 13.5483871,17.5573337 13.5483871,16.9354839 L13.5483871,3.38709677 C13.5483871,2.76524698 14.0544671,2.25806452 14.6774194,2.25806452 L37.2580645,2.25806452 C37.8810168,2.25806452 38.3870968,2.76524698 38.3870968,3.38709677 L38.3870968,4.51612903 L35,4.51612903 C33.1327967,4.51612903 31.6129032,6.03602252 31.6129032,7.90322581 L31.6129032,18.0645161 L14.6774194,18.0645161 Z M33.8709677,21.4516129 L33.8709677,7.90322581 C33.8709677,7.28137601 34.3770477,6.77419355 35,6.77419355 L57.5806452,6.77419355 C58.2035975,6.77419355 58.7096774,7.28137601 58.7096774,7.90322581 L58.7096774,21.4516129 C58.7096774,22.0734627 58.2035975,22.5806452 57.5806452,22.5806452 L35,22.5806452 C34.3770477,22.5806452 33.8709677,22.0734627 33.8709677,21.4516129 Z" id="Shape"></path>
                <polygon id="Shape" points="36.1290323 18.0645161 51.9354839 18.0645161 51.9354839 20.3225806 36.1290323 20.3225806"></polygon>
                <polygon id="Shape" points="54.1935484 18.0645161 56.4516129 18.0645161 56.4516129 20.3225806 54.1935484 20.3225806"></polygon>
                <polygon id="Shape" points="36.1290323 9.03225806 56.4516129 9.03225806 56.4516129 11.2903226 36.1290323 11.2903226"></polygon>
                <polygon id="Shape" points="36.1290323 13.5483871 56.4516129 13.5483871 56.4516129 15.8064516 36.1290323 15.8064516"></polygon>
                <polygon id="Shape" points="63.2258065 9.03225806 65.483871 9.03225806 65.483871 11.2903226 63.2258065 11.2903226"></polygon>
                <polygon id="Shape" points="63.2258065 13.5483871 65.483871 13.5483871 65.483871 15.8064516 63.2258065 15.8064516"></polygon>
                <polygon id="Shape" points="63.2258065 18.0645161 65.483871 18.0645161 65.483871 20.3225806 63.2258065 20.3225806"></polygon>
                <polygon id="Shape" points="6.77419355 4.51612903 9.03225806 4.51612903 9.03225806 6.77419355 6.77419355 6.77419355"></polygon>
                <polygon id="Shape" points="6.77419355 9.03225806 9.03225806 9.03225806 9.03225806 11.2903226 6.77419355 11.2903226"></polygon>
                <polygon id="Shape" points="6.77419355 13.5483871 9.03225806 13.5483871 9.03225806 15.8064516 6.77419355 15.8064516"></polygon>
            </g>
        </g>
    </g>
</svg>