<svg id="Layer_1" data-name="Layer 1" xmlns="http://www.w3.org/2000/svg" xmlns:xlink="http://www.w3.org/1999/xlink" viewBox="0 0 193.31 53.02">
  <defs>
    <style>
      .cls-1 {
        fill: #fff;
      }

      .cls-1, .cls-2, .cls-3 {
        fill-rule: evenodd;
      }

      .cls-2 {
        fill: #63e279;
      }

      .cls-3 {
        fill: #67dfff;
      }

      .cls-4 {
        mask: url(#mask);
      }
    </style>
    <mask id="mask" x="0" y="23.84" width="34.16" height="29.18" maskUnits="userSpaceOnUse">
      <g transform="translate(0 0)">
        <g id="mask-2">
          <polygon id="path-1" class="cls-1" points="0 23.84 34.16 23.84 34.16 53.02 0 53.02 0 23.84"/>
        </g>
      </g>
    </mask>
  </defs>
  <title>logo-1</title>
  <g id="Page-1">
    <g id="logo">
      <g id="Group-2">
        <g id="Group">
          <path id="Fill-1" class="cls-1" d="M10.08,19.59a4.42,4.42,0,1,0,.77,6.2,4.41,4.41,0,0,0-.77-6.2" transform="translate(0 0)"/>
          <path id="Fill-3" class="cls-1" d="M3.34,15.21c-.11.25-.21.5-.31.75s-.25.64-.36,1-.16.42-.23.63c-.17.54-.34,1.08-.48,1.63,1.74-3.63,4-5.82,6.36-5.72,1.95.08,3.68,1.68,5,4.31.11.22.22.44.32.68l.21.46c.1.24.2.48.3.74l.18.5.27.8c.06.18.11.36.17.54l.24.86.15.58c.07.3.13.61.2.92s.09.4.13.6.11.66.17,1,.07.41.1.61c.06.37.1.75.15,1.12,0,.19.05.37.07.55.06.57.11,1.15.16,1.73a25.29,25.29,0,0,1,8.75-17.54c.41-.36.82-.69,1.25-1l.29-.22c.39-.29.78-.56,1.18-.82l.12-.09c.44-.29.9-.56,1.36-.82l.23-.12c.41-.23.82-.44,1.24-.64A25,25,0,0,1,42.22,5.71c-.52-.44-1-.85-1.6-1.24L40,4.06l-.73-.49h0A24.87,24.87,0,0,0,10,6.2a25.62,25.62,0,0,0-5.8,7.25s0,0,0,0l-.08.16c-.13.25-.25.5-.37.75l-.39.83" transform="translate(0 0)"/>
          <path id="Fill-5" class="cls-2" d="M38.1,8.18a4.41,4.41,0,1,0,5.76,2.43A4.41,4.41,0,0,0,38.1,8.18" transform="translate(0 0)"/>
          <path id="Fill-7" class="cls-2" d="M53.54,22.16a25.13,25.13,0,0,0-3.36-8.57v0l-.1-.15-.46-.68L49.1,12l-.49-.63c-.21-.27-.43-.53-.65-.79s-.28-.34-.43-.5c-.37-.42-.76-.83-1.17-1.22,2.27,3.28,3,6.3,1.76,8.29-1,1.64-3.29,2.32-6.23,2.18l-.71,0-.53-.06-.75-.1-.56-.1c-.26,0-.53-.1-.79-.16L38,18.71l-.81-.21-.62-.17-.84-.26-.63-.2-.9-.33-.62-.23-1-.41L32,16.67q-.78-.33-1.56-.72a25,25,0,0,1,10.75,16.2c.1.52.18,1.05.24,1.56,0,.13,0,.25,0,.38.05.47.09.94.12,1.4,0,0,0,.1,0,.15,0,.53,0,1.06,0,1.58a2,2,0,0,1,0,.25q0,.69-.06,1.38A24.77,24.77,0,0,1,37.9,50.07c.53-.18,1-.39,1.54-.61l.25-.11c.49-.22,1-.46,1.46-.71l.06,0h0A24.66,24.66,0,0,0,53.54,22.16" transform="translate(0 0)"/>
          <path id="Fill-9" class="cls-3" d="M33.5,41.28a4.42,4.42,0,1,0,3.77,5,4.42,4.42,0,0,0-3.77-5" transform="translate(0 0)"/>
          <g id="Group-13">
            <g class="cls-4">
              <path id="Fill-11" class="cls-3" d="M28.23,52.87l.8-.1c.35,0,.7-.1,1-.17l.63-.11c.56-.12,1.12-.25,1.67-.41-4,.31-7.07-.54-8.19-2.66-.9-1.73-.38-4,1.23-6.52.13-.21.27-.41.42-.62l.3-.42c.16-.2.32-.41.49-.61s.23-.29.36-.44l.53-.6.42-.45c.19-.2.38-.4.58-.59L29,38.7l.63-.58.53-.47.69-.58.56-.46.8-.61.53-.41c.46-.33.94-.67,1.42-1a25.47,25.47,0,0,1-19.67,1.17c-.51-.17-1-.37-1.49-.57L12.62,35l-1.24-.58-.19-.09c-.47-.24-.92-.5-1.37-.76l-.26-.16c-.38-.23-.76-.47-1.12-.72a25.06,25.06,0,0,1-8-8.89C.29,24.39.21,25,.15,25.5l0,.26C.06,26.3,0,26.85,0,27.4v.06H0A25,25,0,0,0,17,51.6,25.89,25.89,0,0,0,26.27,53h.2l.84-.06c.31,0,.62,0,.92-.08" transform="translate(0 0)"/>
            </g>
          </g>
        </g>
      </g>
      <path id="Активный-регион" class="cls-1" d="M70.23,6.91H72.4L78.61,24H75.88l-1.32-3.82H68.08L66.77,24H64Zm3.59,11-2.47-7.46h0l-2.47,7.46Zm7.62-11H84v7.32h1.75a2.11,2.11,0,0,0,.89-.19,2.22,2.22,0,0,0,.67-.5,4.36,4.36,0,0,0,.52-.73,7.48,7.48,0,0,0,.39-.81l.8-1.92c.18-.48.38-.91.57-1.31a4.18,4.18,0,0,1,.69-1,2.72,2.72,0,0,1,1-.63,4.13,4.13,0,0,1,1.43-.22h1V9.36h-.55a3.93,3.93,0,0,0-.66,0,1,1,0,0,0-.44.16,1.07,1.07,0,0,0-.3.36c-.07.15-.17.36-.28.62L90.39,13.2a3.68,3.68,0,0,1-.73,1.17,4.13,4.13,0,0,1-1,.77,2.3,2.3,0,0,1,1.32.8,5.76,5.76,0,0,1,.81,1.37l1.26,3c.09.21.18.4.26.56a1.24,1.24,0,0,0,.3.4,1.05,1.05,0,0,0,.43.23,2.48,2.48,0,0,0,.68.07h.71V24H93.12a4.15,4.15,0,0,1-1.64-.29,2.8,2.8,0,0,1-1.14-.93,6.17,6.17,0,0,1-.53-.92c-.16-.35-.3-.68-.43-1l-1.13-2.74a2.61,2.61,0,0,0-.5-.81,2.39,2.39,0,0,0-.61-.46,2.13,2.13,0,0,0-.67-.23,3.57,3.57,0,0,0-.65-.06H84V24H81.44Zm19,2.45H95.78V6.91h12V9.36h-4.68V24h-2.6Zm10.11-2.45h2.59V19.3l7.39-12.39h2.37V24h-2.59V11.59L112.9,24h-2.34Zm17,0h6.62a5.39,5.39,0,0,1,3.79,1.27,4.49,4.49,0,0,1,1.27,3.32,3.9,3.9,0,0,1-.5,2,2.69,2.69,0,0,1-.77.87,5.2,5.2,0,0,1-1.25.78v.05a3.4,3.4,0,0,1,2.11,1.47,4.57,4.57,0,0,1,.68,2.47,4.82,4.82,0,0,1-1.39,3.5A4.57,4.57,0,0,1,134.71,24h-7.19Zm6.57,14.64a2.77,2.77,0,0,0,2.11-.78,2.74,2.74,0,0,0,0-3.59,2.88,2.88,0,0,0-2.11-.76h-4v5.13Zm-.24-7.44a2.67,2.67,0,0,0,2.08-.74,2.28,2.28,0,0,0,.68-1.71,2.37,2.37,0,0,0-.68-1.75,3,3,0,0,0-2.08-.7h-3.74v4.9Zm9.31-7.2h2.59v7.32h6.76V6.91h2.6V24h-2.6V16.54h-6.76V24h-2.59Zm16.56,0h2.59v6.72h4a6,6,0,0,1,2.21.39,5,5,0,0,1,1.72,1.07,4.63,4.63,0,0,1,1.11,1.63,5.46,5.46,0,0,1,.39,2.1,5.55,5.55,0,0,1-.4,2.11,5,5,0,0,1-1.11,1.65,4.93,4.93,0,0,1-1.71,1.05,6.21,6.21,0,0,1-2.21.37h-6.55Zm6.4,14.64a3,3,0,0,0,2.17-.74,2.7,2.7,0,0,0,.78-2,2.72,2.72,0,0,0-.78-2.05,3,3,0,0,0-2.17-.76h-3.81v5.59Zm7.64-14.64h2.59V24h-2.59Zm7.2,0h2.59V19.3l7.39-12.39h2.37V24h-2.59V11.59L183.3,24H181Zm3.7-5.11a2.18,2.18,0,0,0,.84,1.36,2.81,2.81,0,0,0,1.59.41,2.64,2.64,0,0,0,1.53-.38,2,2,0,0,0,.89-1.39H191a3.44,3.44,0,0,1-1.11,2.4,3.77,3.77,0,0,1-2.75,1,3.69,3.69,0,0,1-2.71-1,3.53,3.53,0,0,1-1.16-2.4ZM65.8,30.91H72c.34,0,.67,0,1,.05s.64.08,1,.14a5.6,5.6,0,0,1,1.9,1,4.2,4.2,0,0,1,1.31,1.63,5.36,5.36,0,0,1,.53,2.45,5.17,5.17,0,0,1-1.34,3.45,5,5,0,0,1-4,1.69H68.39V48H65.8Zm6.43,8A2.81,2.81,0,0,0,74.39,38a2.85,2.85,0,0,0,.7-1.87,3.27,3.27,0,0,0-.29-1.44,2.13,2.13,0,0,0-.82-.84,3.39,3.39,0,0,0-1.85-.48H68.39v5.52Zm8.8-8H91.94v2.45H83.62v4.87h7.1v2.31h-7.1v5h8.32V48H81Zm14.35,0h10.26v2.45H98V48H95.38Zm13.09,0h2.59V43.3l7.4-12.39h2.36V48h-2.59V35.59L110.82,48h-2.35ZM131,48.14a6.37,6.37,0,0,1-1.85-.25,5.16,5.16,0,0,1-1.51-.73,5.61,5.61,0,0,1-2-2.09l-.34-.74a3.68,3.68,0,0,1-.13-.43c0-.15-.08-.31-.11-.48a29.54,29.54,0,0,1-.17-4c0-1,0-1.84,0-2.5a12.61,12.61,0,0,1,.13-1.49,4.61,4.61,0,0,1,.58-1.63,6,6,0,0,1,2-2.12,5.76,5.76,0,0,1,3.36-.95,5.86,5.86,0,0,1,5.35,3.07,4.38,4.38,0,0,1,.61,1.63,36.65,36.65,0,0,1,.14,4,36.75,36.75,0,0,1-.14,4,4.56,4.56,0,0,1-.61,1.65,5.76,5.76,0,0,1-2,2.09,5.4,5.4,0,0,1-1.53.73A6.41,6.41,0,0,1,131,48.14Zm0-2.59a3.15,3.15,0,0,0,1.61-.39,2.74,2.74,0,0,0,1-.85,2.78,2.78,0,0,0,.69-1.44,20.31,20.31,0,0,0,.18-3.41c0-.85,0-1.56,0-2.13a7.34,7.34,0,0,0-.14-1.31,2.72,2.72,0,0,0-.69-1.41,3.24,3.24,0,0,0-1-.9,4.28,4.28,0,0,0-1.61-.35,4.17,4.17,0,0,0-1.56.35,3.17,3.17,0,0,0-1.09.9,2.9,2.9,0,0,0-.66,1.41,20.35,20.35,0,0,0-.19,3.44c0,.84,0,1.54,0,2.11a8.41,8.41,0,0,0,.14,1.3,2.92,2.92,0,0,0,.66,1.44,2.52,2.52,0,0,0,1.09.85A2.91,2.91,0,0,0,131,45.55Zm10.12-14.64h2.59v7.32h6.76V30.91H153V48h-2.6V40.54h-6.76V48h-2.59Z" transform="translate(0 0)"/>
    </g>
  </g>
</svg>
