<?xml version="1.0" encoding="utf-8"?>
<!-- Generator: Adobe Illustrator 16.0.0, SVG Export Plug-In . SVG Version: 6.00 Build 0)  -->
<!DOCTYPE svg PUBLIC "-//W3C//DTD SVG 1.1//EN" "http://www.w3.org/Graphics/SVG/1.1/DTD/svg11.dtd">
<svg version="1.1" id="Layer_1" xmlns="http://www.w3.org/2000/svg" xmlns:xlink="http://www.w3.org/1999/xlink" x="0px" y="0px"
	 width="340.154px" height="128.887px" viewBox="0 0 340.154 128.887" enable-background="new 0 0 340.154 128.887"
	 xml:space="preserve">
<path display="none" fill="#55565A" d="M142.761,52.87c0,7.976,4.166,13.029,12.381,15.023l10.51,2.592
	c5.777,1.428,8.791,2.322,8.791,5.57c0,4.817-5.441,5.83-10.006,5.83c-9.162,0-10.15-5.285-10.15-7.56V73.39H141.97v0.938
	c0,2.635,0.555,7.67,4.271,11.808c3.956,4.397,10.345,6.629,18.989,6.629c3.595,0,21.531-0.871,21.531-18.074
	c0-9.949-6.916-13.064-14.392-14.951c-0.008-0.004-12.753-3.1-12.753-3.1c-2.548-0.595-4.827-1.39-4.827-4.56
	c0-5.069,6.836-5.326,8.207-5.326c8.863,0,9.467,4.972,9.726,7.095l0.103,0.825h12.207v-0.938c0-6.633-4.474-17.859-21.242-17.859
	C148.286,35.874,142.761,44.653,142.761,52.87"/>
<path display="none" fill="#55565A" d="M223.06,37.241v35.43c0,6.224-2.953,9-9.575,9c-5.306,0-8.349-3.465-8.349-9.502V37.241
	h-12.75v35.502c0,18.068,14.905,20.021,21.313,20.021c14.464,0,22.108-7.173,22.108-20.74V37.241H223.06"/>
<path display="none" fill="#55565A" d="M243.19,37.241v54.152h41.623V80.519c0,0-27.116,0-28.874,0c0-1.529,0-11.07,0-12.599
	c1.741,0,25.418,0,25.418,0V57.044c0,0-23.677,0-25.418,0c0-1.414,0-7.51,0-8.924c1.752,0,27.723,0,27.723,0V37.241H243.19"/>
<g>
	<g>
		<defs>
			<path id="SVGID_1_" d="M86.027,73.937c-0.539,0.537-18.623,18.358-19.892,19.637c2.462,1.768,13.031,8.34,27.163,3.494
				c1.075-0.389,2.972-0.871,4.082-1.404l1.127-1.209c3.418-3.971,7.901-9.324,10.423-20.518
				C101.343,70.724,91.33,69.569,86.027,73.937"/>
		</defs>
		<clipPath id="SVGID_2_">
			<use xlink:href="#SVGID_1_"  overflow="visible"/>
		</clipPath>
		
			<linearGradient id="SVGID_3_" gradientUnits="userSpaceOnUse" x1="-80.1575" y1="-315.8157" x2="-79.1575" y2="-315.8157" gradientTransform="matrix(-60.3422 51.8714 -51.8714 -60.3422 -21107.3145 -14833.7549)">
			<stop  offset="0" style="stop-color:#C9C8C9"/>
			<stop  offset="0.295" style="stop-color:#C9C8C9"/>
			<stop  offset="0.3821" style="stop-color:#C3C2C3"/>
			<stop  offset="0.5027" style="stop-color:#B1B0B2"/>
			<stop  offset="0.643" style="stop-color:#949396"/>
			<stop  offset="0.7969" style="stop-color:#6B6B6F"/>
			<stop  offset="0.8696" style="stop-color:#55565A"/>
			<stop  offset="1" style="stop-color:#55565A"/>
		</linearGradient>
		<polygon clip-path="url(#SVGID_2_)" fill="url(#SVGID_3_)" points="124.918,88.169 84.321,123.067 50.147,83.313 90.745,48.415 		
			"/>
	</g>
</g>
<g>
	<g>
		<defs>
			<path id="SVGID_4_" d="M86.027,51.179c5.056,5.062,16.794,5.489,22.268,1.245c-1.319-5.69-6.573-15.688-12.215-20.512
				l-1.565-1.438c-4.25-3.563-7.812-5.873-13.279-8.082l-2.895-1.017c0,0-4.598-1.186-4.603-1.186
				c-3.002-0.619-6.408-0.889-9.492-0.889c-3.072,0-6.158,0.319-9.164,0.954c0,0-4.81,1.296-4.814,1.298l-2.734,0.983
				c-4.049,1.635-7.662,4.031-11.056,6.74c16.556-4.928,28.315,4.721,28.502,4.877C64.978,34.157,85.455,50.608,86.027,51.179"/>
		</defs>
		<clipPath id="SVGID_5_">
			<use xlink:href="#SVGID_4_"  overflow="visible"/>
		</clipPath>
		
			<linearGradient id="SVGID_6_" gradientUnits="userSpaceOnUse" x1="-80.0686" y1="-310.9612" x2="-79.0676" y2="-310.9612" gradientTransform="matrix(48.723 53.9767 -53.9767 48.723 -12823.3389 19497.2227)">
			<stop  offset="0" style="stop-color:#FFED7F"/>
			<stop  offset="0.0449" style="stop-color:#FFED7F"/>
			<stop  offset="0.1149" style="stop-color:#FFE960"/>
			<stop  offset="0.2003" style="stop-color:#FFE643"/>
			<stop  offset="0.2954" style="stop-color:#FFE32A"/>
			<stop  offset="0.402" style="stop-color:#FFE017"/>
			<stop  offset="0.5265" style="stop-color:#FFDF0A"/>
			<stop  offset="0.6859" style="stop-color:#FFDE02"/>
			<stop  offset="1" style="stop-color:#FFDD00"/>
		</linearGradient>
		<polygon clip-path="url(#SVGID_5_)" fill="url(#SVGID_6_)" points="76.049,-16.418 126.879,39.894 68.721,92.392 17.891,36.079 		
			"/>
	</g>
</g>
<g>
	<g>
		<defs>
			<path id="SVGID_7_" d="M33.043,96.841c4.215,4.105,9.089,7.314,14.507,9.503l2.741,0.979l4.811,1.307
				c3.007,0.629,6.096,0.951,9.178,0.951c3.077,0,6.161-0.207,9.164-0.836c0,0,4.914-1.233,4.918-1.238l3.251-1.163
				c4.048-1.638,8.101-4.025,11.495-6.748c-16.56,4.932-29.361-4.707-29.5-4.816l-0.028-0.023c0,0-27.021-27.018-28.447-28.44
				c-1.306,1.824-5.238,8.072-5.238,16.963c0,2.957,0.44,6.209,1.563,9.666c0.411,1.227,0.923,2.471,1.518,3.736L33.043,96.841"/>
		</defs>
		<clipPath id="SVGID_8_">
			<use xlink:href="#SVGID_7_"  overflow="visible"/>
		</clipPath>
		
			<linearGradient id="SVGID_9_" gradientUnits="userSpaceOnUse" x1="-84.5696" y1="-316.3479" x2="-83.5696" y2="-316.3479" gradientTransform="matrix(-54.8619 -47.9507 47.9507 -54.8619 10607.0615 -21308.7129)">
			<stop  offset="0" style="stop-color:#969598"/>
			<stop  offset="0.295" style="stop-color:#969598"/>
			<stop  offset="0.2961" style="stop-color:#959598"/>
			<stop  offset="0.472" style="stop-color:#79797D"/>
			<stop  offset="0.6486" style="stop-color:#656569"/>
			<stop  offset="0.8247" style="stop-color:#595A5E"/>
			<stop  offset="1" style="stop-color:#55565A"/>
		</linearGradient>
		<polygon clip-path="url(#SVGID_8_)" fill="url(#SVGID_9_)" points="65.73,140.903 8.454,90.844 57.269,34.991 114.545,85.052 		
			"/>
	</g>
</g>
<g>
	<g>
		<defs>
			<path id="SVGID_10_" d="M31.866,33.216c-4.115,4.222-7.316,9.105-9.5,14.517l-0.99,2.733l-1.302,4.818
				c-0.631,2.994-0.944,6.078-0.944,9.162s0.313,6.176,0.944,9.176l1.302,4.813l0.99,2.735c1.639,4.062,4.028,7.679,6.751,11.06
				c-1.001-3.353-1.463-6.537-1.463-9.439c0-11.418,6.179-18.899,6.263-19l0.032-0.039c0,0,27.023-27.018,28.449-28.44
				c-2.469-1.765-13.037-8.345-27.187-3.494c-1.057,0.387-2.154,0.84-3.253,1.367L31.866,33.216"/>
		</defs>
		<clipPath id="SVGID_11_">
			<use xlink:href="#SVGID_10_"  overflow="visible"/>
		</clipPath>
		
			<linearGradient id="SVGID_12_" gradientUnits="userSpaceOnUse" x1="-85.8733" y1="-310.6252" x2="-84.8733" y2="-310.6252" gradientTransform="matrix(41.3926 -40.9647 40.9647 41.3926 16297.7109 9421.3965)">
			<stop  offset="0" style="stop-color:#C4BD70"/>
			<stop  offset="0.354" style="stop-color:#C4BD70"/>
			<stop  offset="0.9534" style="stop-color:#969300"/>
			<stop  offset="1" style="stop-color:#969300"/>
		</linearGradient>
		<polygon clip-path="url(#SVGID_11_)" fill="url(#SVGID_12_)" points="-13.5,59.259 40.989,5.333 95.029,59.937 40.54,113.862 		
			"/>
	</g>
</g>
<path fill="#B8B7B9" d="M101.65,31.991c7.589,8.695,12.206,20.049,12.206,32.451c0,12.41-4.617,23.76-12.206,32.445
	c-1.553,1.815-3.217,3.465-5.019,5.02c-0.804,0.654-1.614,1.309-2.417,1.961c-0.552,0.404-1.104,0.807-1.711,1.211
	c-2.957,2.062-6.169,3.816-9.589,5.224c-5.727,2.311-12.004,3.571-18.529,3.571c-6.631,0-13.013-1.311-18.836-3.725
	c-3.263-1.406-6.428-3.111-9.345-5.17c-0.544-0.404-1.1-0.806-1.65-1.207l-0.056-0.051c-0.851-0.654-1.654-1.3-2.459-2.015
	c-1.812-1.551-3.515-3.26-5.07-5.071C19.531,88.005,15.018,76.7,15.018,64.442c0-12.312,4.513-23.551,11.951-32.248
	c1.556-1.809,3.259-3.512,5.07-5.066c0.805-0.709,1.608-1.362,2.459-2.014c0,0,0.056,0,0.056-0.049
	c0.551-0.41,1.106-0.803,1.65-1.201c2.917-1.969,6.082-3.725,9.345-5.076c5.823-2.41,12.205-3.771,18.836-3.771
	c6.525,0,12.804,1.305,18.529,3.612c3.42,1.367,6.632,3.123,9.589,5.177c0.606,0.356,1.159,0.809,1.711,1.219
	c0.803,0.598,1.613,1.238,2.417,1.902L101.65,31.991 M117.227,60.872c0-0.09,0-0.199,0-0.299c2.354-5.068,6.775-5.168,11.646-0.553
	c0-7.728-1.658-13.859-5.379-17.324c-5.261-4.672-10.766-1.629-15.264-7.982c-0.531-5.541,3.286-7.891,9.843-6.336
	c-3.914-6.625-8.437-11.104-13.356-12.252c-1.106-0.248-2.107-0.309-3.067-0.198c-1.855,0.09-3.463,0.646-5.019,1.104
	c-0.804,0.242-1.614,0.496-2.417,0.656c-0.552,0.092-1.104,0.188-1.711,0.188c-1.47,0.103-3.092-0.153-5.001-1.045
	c-3.158-4.502-1.145-8.301,5.001-10.259c0.155-0.035,0.267-0.084,0.358-0.15c-0.093-0.043-0.203-0.099-0.358-0.135
	c-3.357-1.921-6.623-3.276-9.589-3.927c-2.867-0.603-5.478-0.65-7.778,0.051c-5.324,1.809-6.479,6.229-10.751,8.281
	c-0.908,0.463-2.053,0.807-3.415,0.96c-0.103,0-0.203,0-0.301,0C55.598,9.288,55.497,4.872,60.11,0
	C54.191,0,49.164,1.01,45.55,3.115c-1.052,0.652-2.006,1.405-2.816,2.261c-4.214,4.829-2.061,9.838-6.528,14.109
	c-0.398,0.406-0.887,0.772-1.405,1.16c-0.076,0-0.17,0-0.245,0h-0.056c-0.901,0.053-1.703,0-2.459-0.148
	c-3.569-0.858-4.869-4.371-3.569-9.694c-0.49,0.297-0.996,0.6-1.501,0.901c-5.825,3.668-9.797,7.832-10.85,12.351
	c-1.407,6.942,4.067,10.204,0.657,17.381c-4.574,3.264-8.491,1.155-10.407-5.314C2.51,42.848,0.894,49.019,2.358,53.844
	c2.253,6.581,8.388,6.729,9.288,14.211c0,0.112,0,0.196,0,0.309C9.34,73.431,4.87,73.577,0,68.964c0,7.683,1.703,13.863,5.419,17.33
	c5.264,4.613,10.771,1.58,15.276,7.935c0.525,5.533-3.289,7.881-9.853,6.324c3.927,6.682,8.443,11.2,13.363,12.312
	c1.002,0.205,1.909,0.25,2.764,0.25c1.86-0.102,3.462-0.602,5.07-1.104c0.805-0.259,1.608-0.505,2.459-0.714h0.056
	c0.551-0.09,1.106-0.2,1.65-0.239c1.599-0.097,3.29,0.145,5.271,1.075c3.143,4.537,1.07,8.386-5.271,10.328
	c0,0-0.045,0.043-0.098,0.043c0.053,0.06,0.098,0.06,0.098,0.093c3.318,1.866,6.437,3.164,9.345,3.877
	c3.059,0.703,5.823,0.758,8.285,0c5.27-1.757,6.439-6.127,10.551-8.189c0.998-0.504,2.154-0.852,3.615-1.047
	c0.104,0,0.196,0,0.298,0c5.079,2.354,5.184,6.781,0.559,11.648c5.668,0,10.498-0.902,14.059-2.857
	c1.259-0.711,2.366-1.518,3.32-2.521c4.16-4.771,2.109-9.684,6.269-13.907c0.51-0.502,1.063-0.957,1.711-1.412
	c-0.046,0.051-0.095,0.051-0.095,0.051c0-0.051,0.049-0.051,0.095-0.094c0,0,0.052-0.049,0.098-0.049
	c-0.031,0.026-0.059,0.059-0.098,0.092c0.854-0.043,1.672,0,2.417,0.102c3.757,0.709,5.169,4.275,3.861,9.754
	c0.4-0.209,0.804-0.461,1.156-0.717c6.032-3.713,10.1-7.979,11.16-12.598c1.403-6.986-4.081-10.193-0.709-17.386
	c0,0.058-0.056,0.111-0.056,0.152c4.573-3.211,8.483-1.1,10.4,5.326c3.866-6.682,5.479-12.859,4.012-17.68
	C124.25,68.562,118.075,68.362,117.227,60.872z"/>
<path display="none" fill="#55565A" d="M322.564,37.241c0,0-15.864,16.896-18.602,19.813c0-3.742,0-19.813,0-19.813h-12.749v54.152
	h12.749c0,0,0-17.539,0-18.269c0.398-0.412,2.999-3.084,4.059-4.172c1.198,1.705,15.758,22.439,15.758,22.439h16.375
	c0,0-22.247-30.49-23.153-31.732c1.071-1.076,22.342-22.42,22.342-22.42L322.564,37.241"/>
<g>
	<path fill="#55565A" d="M176.163,54.654c-0.899-3.3-2.699-9.674-12.074-9.674c-5.475,0-13.725,3.9-13.725,19.274
		c0,9.75,4.125,18.824,13.725,18.824c6.3,0,10.725-3.824,12.074-10.5h11.324c-2.25,11.85-9.975,20.1-23.624,20.1
		c-14.474,0-24.824-9.824-24.824-28.574c0-19.049,10.949-28.724,24.974-28.724c16.274,0,22.874,11.25,23.474,19.274H176.163z"/>
	<path fill="#55565A" d="M200.164,36.805l14.699,30.449l11.324-30.449h12.825l-20.024,46.048c-3.675,8.399-7.5,9.824-12.824,9.824
		c-2.25,0-5.775-0.375-6.975-0.675v-9.675c0.975,0.45,2.999,0.9,4.425,0.9c3.074,0,3.975-0.825,5.85-4.275l-22.125-42.148H200.164z"
		/>
	<path fill="#55565A" d="M275.386,57.879c-1.949-9.975-8.175-12.899-12.824-12.899c-9.375,0-11.249,6.375-12.149,9.674h-11.324
		c0.6-8.024,7.199-19.274,23.474-19.274c14.024,0,25.124,9.674,25.124,28.724c0,18.75-10.5,28.574-24.974,28.574
		c-13.649,0-21.374-8.25-23.624-20.1h11.324c1.35,6.676,5.85,10.5,12.074,10.5c8.625,0,12.524-7.35,13.35-15.824h-15.749v-9.375
		H275.386z"/>
	<path fill="#55565A" d="M303.887,58.929l20.774-22.124h14.699l-22.199,22.274l23.475,32.174h-14.625l-16.799-23.924l-5.325,5.475
		v18.449h-11.324V36.805h11.324V58.929z"/>
</g>
</svg>
