<svg xmlns="http://www.w3.org/2000/svg" viewBox="0 0 476.88 150.12"><defs><linearGradient id="linear-gradient" x1="-4.87" y1="89.1" x2="123.82" y2="89.1" gradientTransform="rotate(.82 1195.89 435.85)" gradientUnits="userSpaceOnUse"><stop offset="0" stop-color="#e3e3e3"/><stop offset="1" stop-color="#a6a6a6"/></linearGradient><linearGradient id="linear-gradient-2" x1="8.68" y1="68.63" x2="125.47" y2="124.34" gradientUnits="userSpaceOnUse"><stop offset="0" stop-color="#9cadd6"/><stop offset=".18" stop-color="#839fce"/><stop offset=".55" stop-color="#5385c0"/><stop offset=".84" stop-color="#3675b6"/><stop offset="1" stop-color="#2b6fb3"/></linearGradient><linearGradient id="linear-gradient-3" x1="1844.9" y1="1324.04" x2="1973.59" y2="1324.04" gradientTransform="matrix(-.77 .63 -.63 -.77 2400.75 -113.73)" gradientUnits="userSpaceOnUse"><stop offset="0" stop-color="#1eb9ed"/><stop offset="1" stop-color="#00a7c2"/></linearGradient></defs><g style="isolation:isolate"><g id="OBJECTS"><g fill-rule="evenodd"><path d="M29.21 93a75 75 0 0 1 100.41-69.52 75 75 0 1 0-79.85 122.14A74.77 74.77 0 0 1 29.21 93z" style="mix-blend-mode:multiply" fill="url(#linear-gradient)"/><path d="M105.94 113.55A75 75 0 0 1 9.45 38.72 75 75 0 1 0 150 78.1a74.68 74.68 0 0 1-44.06 35.45z" style="mix-blend-mode:multiply" fill="url(#linear-gradient-2)"/><path d="M98.68 31.67a75 75 0 0 1-32.06 117.82A75 75 0 1 0 49.05 4.64a74.73 74.73 0 0 1 49.63 27.03z" style="mix-blend-mode:multiply" fill="url(#linear-gradient-3)"/></g><path d="M181.36 24.9h5.29l15.16 43.42h-6.67l-3.23-9.71H176.1l-3.2 9.71h-6.69zm8.75 27.88l-6-19H184l-6 19zM208 24.9h6.32v18.58h4.26a4.76 4.76 0 0 0 2.18-.47 5.64 5.64 0 0 0 1.64-1.28 10.2 10.2 0 0 0 1.26-1.83 18.43 18.43 0 0 0 1-2.08l1.94-4.88c.46-1.21.93-2.32 1.4-3.32a10.79 10.79 0 0 1 1.67-2.56 6.21 6.21 0 0 1 2.33-1.61 9.33 9.33 0 0 1 3.48-.55h2.46v6.22h-1.34a11.65 11.65 0 0 0-1.62.09 2.32 2.32 0 0 0-1.06.42 2.47 2.47 0 0 0-.72.91c-.2.39-.42.91-.69 1.56l-2.63 6.76a9.27 9.27 0 0 1-1.8 3 9.93 9.93 0 0 1-2.43 2 5.65 5.65 0 0 1 3.23 2 14.92 14.92 0 0 1 2 3.49l3.06 7.56c.23.56.44 1 .64 1.45a3.69 3.69 0 0 0 .73 1 2.57 2.57 0 0 0 1 .58 6.14 6.14 0 0 0 1.67.18h1.72v6.22h-3.18a9.9 9.9 0 0 1-4-.72 7 7 0 0 1-2.78-2.37 16.31 16.31 0 0 1-1.28-2.36c-.39-.87-.74-1.71-1.07-2.53l-2.74-7a6.8 6.8 0 0 0-1.22-2 6.09 6.09 0 0 0-1.5-1.19 5.35 5.35 0 0 0-1.62-.58 8.7 8.7 0 0 0-1.58-.15h-4.38v18.88H208zm45.73 6.22h-11.41V24.9h29.17v6.22h-11.41v37.2h-6.35zm23.97-6.22h6.3v31.48l18-31.48h5.78v43.42h-6.32V36.78l-18.1 31.54h-5.66zm40.7 0h16.16q6.26.12 9.24 3.21a11.71 11.71 0 0 1 3.11 8.43 10.34 10.34 0 0 1-1.23 5.13 7.13 7.13 0 0 1-1.88 2.2 12.52 12.52 0 0 1-3 2V46a8.36 8.36 0 0 1 5.15 3.72 12.16 12.16 0 0 1 1.62 6.28 12.57 12.57 0 0 1-3.4 8.91 10.92 10.92 0 0 1-8.17 3.41h-17.6zm15.45 18.29c2.3 0 4-.63 5.08-1.88a6 6 0 0 0 1.66-4.31 6.19 6.19 0 0 0-1.66-4.44c-1-1.09-2.74-1.68-5.08-1.78h-9.13v12.41zm.6 18.91a6.59 6.59 0 0 0 5.14-2 6.72 6.72 0 0 0 1.63-4.52 6.81 6.81 0 0 0-1.63-4.58c-1.08-1.21-2.8-1.86-5.14-1.94h-9.73V62.1zm21.42-37.2h6.32v18.58h16.5V24.9H385v43.42h-6.35v-19h-16.5v19h-6.32zm39.73 0h6.32V42h9.67a14.19 14.19 0 0 1 5.4 1 12.49 12.49 0 0 1 4.19 2.72 11.88 11.88 0 0 1 2.7 4.14 15.42 15.42 0 0 1 0 10.71 12.36 12.36 0 0 1-2.71 4.19 11.79 11.79 0 0 1-4.17 2.63 15 15 0 0 1-5.4.93h-16zm15.62 37.2a7.2 7.2 0 0 0 5.3-1.89 7 7 0 0 0 1.9-5.17 6.61 6.61 0 0 0-7.2-7.15h-9.3V62.1zm18.64-37.2h6.32v43.42h-6.32zm16.88 0h6.32v31.48l18-31.48h5.78v43.42h-6.32V36.78l-18.1 31.54h-5.72zm9-13a5.63 5.63 0 0 0 2.06 3.46 6.68 6.68 0 0 0 3.86 1 6.31 6.31 0 0 0 3.74-1 5 5 0 0 0 2.18-3.52h3.51a8.83 8.83 0 0 1-9.43 8.52 8.79 8.79 0 0 1-6.57-2.36 9.06 9.06 0 0 1-2.83-6.08zm-285.19 74h15.1a23.51 23.51 0 0 1 2.4.12c.78.08 1.57.2 2.35.35a13.37 13.37 0 0 1 4.6 2.57 10.46 10.46 0 0 1 3.2 4.14 14 14 0 0 1 1.29 6.22 13.52 13.52 0 0 1-3.26 8.79q-3.4 4.23-9.78 4.29h-9.61v16.94h-6.32zm15.67 20.25a6.77 6.77 0 0 0 5.29-2.26 7.5 7.5 0 0 0 1.69-4.77 8.66 8.66 0 0 0-.69-3.66 5.4 5.4 0 0 0-2-2.12 7.86 7.86 0 0 0-4.51-1.22h-9.12v14zM207 85.9h26.62v6.22h-20.3v12.36h17.33v5.87h-17.31v12.75h20.3v6.22H207zm34.35 0h25v6.22h-18.68v37.2h-6.32zm31.26 0h6.32v31.48L297 85.9h5.78v43.42h-6.32V97.78l-18.1 31.54h-5.72zm54.17 43.78a15.1 15.1 0 0 1-4.52-.64 12.14 12.14 0 0 1-3.68-1.86 14 14 0 0 1-4.86-5.3l-.83-1.88c-.12-.34-.22-.7-.32-1.09s-.18-.79-.26-1.23a75 75 0 0 1-.43-10.07q0-3.84.11-6.34a29.82 29.82 0 0 1 .32-3.79 11.9 11.9 0 0 1 1.41-4.14 15 15 0 0 1 4.86-5.34 13.63 13.63 0 0 1 8.2-2.41 13.87 13.87 0 0 1 8.29 2.41 14.6 14.6 0 0 1 4.75 5.39 10.91 10.91 0 0 1 1.49 4.14 94.27 94.27 0 0 1 .34 10.13 94.33 94.33 0 0 1-.34 10.07 11.38 11.38 0 0 1-1.49 4.2 14 14 0 0 1-4.75 5.3 12.91 12.91 0 0 1-3.73 1.86 15.09 15.09 0 0 1-4.56.59zm0-6.58a7.5 7.5 0 0 0 3.92-1 7 7 0 0 0 2.52-2.18 7.07 7.07 0 0 0 1.68-3.66 54.29 54.29 0 0 0 .43-8.67c0-2.16 0-4-.08-5.4a20.55 20.55 0 0 0-.35-3.33 7.06 7.06 0 0 0-1.68-3.6A7.9 7.9 0 0 0 330.7 93a9.38 9.38 0 0 0-3.92-.9 9.7 9.7 0 0 0-3.8.9 7.56 7.56 0 0 0-2.66 2.26 7.75 7.75 0 0 0-1.63 3.6 56 56 0 0 0-.46 8.73c0 2.15 0 3.93.12 5.36a24.78 24.78 0 0 0 .34 3.31 7.75 7.75 0 0 0 1.63 3.66 6.2 6.2 0 0 0 2.66 2.18 6.9 6.9 0 0 0 3.8 1zm24-37.2h6.32v18.58h16.5V85.9h6.4v43.42h-6.4v-19h-16.5v19h-6.32z"/></g></g></svg>