<svg xmlns="http://www.w3.org/2000/svg" xmlns:xlink="http://www.w3.org/1999/xlink" width="187" height="53"><defs><path id="a" d="M0 .277h34.164v29.178H0z"/></defs><g fill="none" fill-rule="evenodd"><path fill="#FFF" d="M10.079 19.588a4.417 4.417 0 1 0-5.431 6.968 4.417 4.417 0 0 0 5.43-6.968"/><path fill="#FFF" d="M3.343 15.213c-.109.245-.214.493-.315.742-.129.32-.247.641-.361.964-.075.211-.155.419-.225.631-.176.54-.34 1.083-.478 1.632 1.733-3.631 3.982-5.82 6.36-5.726 1.944.081 3.673 1.687 5.021 4.318a15.57 15.57 0 0 1 .532 1.133 21.678 21.678 0 0 1 .484 1.241 27.99 27.99 0 0 1 .675 2.204c.05.193.102.382.15.578.07.3.137.61.204.918.043.202.087.4.127.605.063.324.118.658.174.992.033.202.07.402.102.608.055.367.1.743.147 1.12.023.185.05.364.07.55.062.568.115 1.144.156 1.732.41-6.5 3.376-12.895 8.755-17.55a25.657 25.657 0 0 1 1.542-1.226c.386-.285.774-.56 1.172-.821.041-.027.081-.057.122-.084.448-.29.903-.565 1.364-.824l.225-.123a25.09 25.09 0 0 1 12.872-3.118 23.46 23.46 0 0 0-1.596-1.24c-.201-.143-.409-.274-.614-.41-.242-.161-.477-.334-.723-.486l-.046-.003c-8.87-5.454-20.746-4.72-29.236 2.627a25.524 25.524 0 0 0-5.801 7.257l-.022.02c-.029.052-.052.108-.08.16-.128.248-.249.496-.37.745a23.6 23.6 0 0 0-.387.834"/><path fill="#63E279" d="M38.104 8.18a4.416 4.416 0 1 0 3.32 8.185 4.414 4.414 0 0 0 2.431-5.754 4.416 4.416 0 0 0-5.75-2.432"/><path fill="#63E279" d="M53.542 22.163a25.173 25.173 0 0 0-3.358-8.571c0-.01-.004-.02-.007-.029l-.101-.153c-.146-.229-.3-.453-.451-.677a27.774 27.774 0 0 0-1.012-1.386c-.21-.268-.428-.529-.649-.788-.143-.169-.284-.339-.432-.503-.377-.42-.765-.828-1.168-1.22 2.265 3.283 3.031 6.3 1.76 8.295-1.039 1.634-3.291 2.324-6.238 2.177a18.982 18.982 0 0 1-1.24-.106 20.238 20.238 0 0 1-1.31-.199 23.19 23.19 0 0 1-.787-.159c-.195-.041-.39-.083-.588-.13a33.116 33.116 0 0 1-.815-.212c-.204-.055-.406-.108-.614-.168-.279-.083-.563-.174-.847-.264-.21-.068-.416-.132-.627-.204-.294-.102-.595-.214-.895-.325-.206-.076-.41-.148-.618-.23a44.79 44.79 0 0 1-.996-.41c-.183-.077-.364-.148-.549-.229a45.434 45.434 0 0 1-1.564-.72c5.395 3.567 9.425 9.279 10.753 16.2a26.55 26.55 0 0 1 .41 3.339c.003.05.01.1.01.152.028.528.038 1.055.032 1.579-.001.084-.005.168-.007.251a24.825 24.825 0 0 1-3.731 12.6 24.824 24.824 0 0 0 1.542-.614l.24-.105c.497-.224.986-.462 1.463-.717.019-.01.039-.017.057-.028.002-.001.004-.005.004-.006 9.139-4.911 14.433-15.501 12.333-26.44"/><path fill="#67DFFF" d="M33.499 41.279a4.42 4.42 0 0 0-4.984 3.766 4.418 4.418 0 1 0 4.984-3.766"/><g transform="translate(0 23.564)"><mask id="b" fill="#fff"><use xlink:href="#a"/></mask><path fill="#67DFFF" d="M28.234 29.309a24.77 24.77 0 0 0 1.842-.27c.211-.038.423-.072.634-.116a24.83 24.83 0 0 0 1.67-.404c-4.034.312-7.071-.545-8.185-2.662-.908-1.728-.384-4.031 1.223-6.518a16.486 16.486 0 0 1 .726-1.039c.152-.204.315-.41.482-.616a24.334 24.334 0 0 1 .896-1.04c.137-.149.274-.3.418-.45.188-.197.384-.394.584-.592.157-.154.312-.31.475-.465.204-.193.418-.386.631-.58.175-.157.346-.313.526-.47.222-.192.46-.385.693-.578.185-.153.366-.307.557-.459.262-.206.534-.411.804-.615.18-.135.352-.27.535-.405.46-.336.933-.669 1.42-.996-5.861 2.896-12.918 3.52-19.677 1.174-.506-.175-.997-.37-1.485-.571l-.381-.164a26.264 26.264 0 0 1-1.238-.576c-.063-.032-.127-.062-.192-.093a25.903 25.903 0 0 1-1.373-.757c-.09-.052-.177-.106-.264-.16A25.25 25.25 0 0 1 .387.277 22.847 22.847 0 0 0 .15 1.935c-.01.086-.02.17-.028.257a23.931 23.931 0 0 0-.11 1.64l-.003.064.001.005C-.284 14.353 6.354 24.33 17.034 28.034a25.72 25.72 0 0 0 9.234 1.409.476.476 0 0 0 .027.009c.058-.002.116-.008.176-.01.283-.012.563-.033.843-.053.307-.022.615-.047.92-.08" mask="url(#b)"/></g><text fill="#FFF" font-family="Helvetica" font-size="22"><tspan x="64" y="25">АКТИВНЫЙ</tspan> <tspan x="64" y="47">РЕГИОН</tspan></text></g></svg>