<svg width="70" height="69" xmlns="http://www.w3.org/2000/svg"><g id="Page-1" stroke="none" stroke-width="1" fill="none" fill-rule="evenodd"><g id="1-main" transform="translate(-1071 -831)" fill="#0059BB" fill-rule="nonzero"><g id="icon-3" transform="translate(1071 831)"><path d="M69.512 14.317l-.005-.005L55.536.342a1.161 1.161 0 0 0-1.676.03L49.535 5.03a1.165 1.165 0 0 0 .018 1.604l.328.338-1.717 1.717-2.713-.678a7.108 7.108 0 0 0-6.757 1.92l-4.949 5.767-5.75-5.75a6.107 6.107 0 0 0-6.276-1.483 1.188 1.188 0 0 0-.362.198l-.317.254-.766-.766 1.505-1.505a1.164 1.164 0 0 0 0-1.646L17.122.34a1.164 1.164 0 0 0-1.646 0L.341 15.477a1.164 1.164 0 0 0 0 1.646l4.657 4.657a1.164 1.164 0 0 0 1.646 0l.526-.526 2.759 2.759-.678 2.713a7.077 7.077 0 0 0 1.843 6.685l9.862 10.146v9.101a5.645 5.645 0 0 0 3.045 4.953 3.04 3.04 0 0 1 1.612 2.688v.242H24.45c-.642 0-1.164.52-1.164 1.163v5.822c0 .643.52 1.164 1.163 1.165h22.12c.643 0 1.165-.52 1.165-1.163v-5.822c0-.644-.52-1.165-1.163-1.165h-1.165v-1.17l1.845-1.702a7.088 7.088 0 0 0 2.811-5.635V38.396a6.13 6.13 0 0 0 3.635-1.783l6.155-6.683a5.344 5.344 0 0 0 1.298-5.502c-.186-.562.816-2.4 2.011-3.808.213.211.5.332.8.337h.012c.307 0 .6-.121.819-.337l4.71-4.657a1.164 1.164 0 0 0 .01-1.646zM5.822 19.31L2.81 16.3 16.299 2.81l3.011 3.011-13.489 13.49zM21.06 40.322l-8.308-8.546a4.751 4.751 0 0 1-1.242-4.486l.837-3.352a1.16 1.16 0 0 0-.305-1.105l-3.225-3.225 9.811-9.812 1.505 1.506c.42.42 1.09.456 1.553.084l.957-.77a3.79 3.79 0 0 1 3.706.977l6.418 6.418-.011.008a4.085 4.085 0 0 0-1.123 1.752 4.094 4.094 0 0 0-2.36-.474 4.203 4.203 0 0 0-3.66 4.22v12.176a5.836 5.836 0 0 0-4.553 4.63zm24.346 26.04H25.613V62.87h19.793v3.493zm2.328-14.328a4.824 4.824 0 0 1-1.971 3.848l-2.31 2.121c-.24.22-.376.532-.376.858v1.68H27.942V60.3a5.362 5.362 0 0 0-2.846-4.742 3.322 3.322 0 0 1-1.811-2.898V41.397a3.487 3.487 0 0 1 2.328-3.278v7.287h2.329V23.517a1.856 1.856 0 0 1 1.562-1.903c.494-.051.986.11 1.355.442.368.33.578.801.576 1.295V40.75h2.328V21.023a1.746 1.746 0 0 1 1.906-1.74 1.9 1.9 0 0 1 1.587 1.945v19.52h2.328V24.516a1.746 1.746 0 0 1 1.906-1.74c.943.158 1.622.99 1.587 1.946V40.75h2.329v-9.616a3.487 3.487 0 0 1 2.328 3.278v17.623zm11.208-26.87a3.052 3.052 0 0 1-.77 3.153L52.018 35a3.803 3.803 0 0 1-1.956 1.054v-1.643a5.831 5.831 0 0 0-4.657-5.704v-3.986a4.215 4.215 0 0 0-3.713-4.265 4.142 4.142 0 0 0-2.125.387 4.192 4.192 0 0 0-3.696-3.88c-.05-.004-.098.006-.148.003l4.677-5.455a4.753 4.753 0 0 1 4.487-1.243l3.352.838c.396.1.816-.017 1.105-.306l2.16-2.16 10.031 10.316c-1.074 1.246-3.282 4.143-2.593 6.209zm5.047-7.025L51.994 5.803l2.75-2.962 12.289 12.29-3.044 3.008z" id="Shape"/></g></g></g></svg>