<svg width="70" height="70" xmlns="http://www.w3.org/2000/svg"><g id="Page-1" stroke="none" stroke-width="1" fill="none" fill-rule="evenodd"><g id="1-main" transform="translate(-301 -831)" fill="#0059BB" fill-rule="nonzero"><g id="icon-1" transform="translate(301 831)"><path d="M65.977 54.405l-.11-.033c1.701-.714 2.612-1.576 2.674-1.638l.973-.973-1.145-.765a6.463 6.463 0 0 1-2.885-5.389v-7.22c0-6.226-5.065-11.29-11.29-11.29-6.226 0-11.29 5.064-11.29 11.29v7.22a6.463 6.463 0 0 1-2.886 5.39l-1.145.764.973.973c.062.062.973.924 2.674 1.638l-.11.033a5.61 5.61 0 0 0-4.023 5.407V70H70V59.812a5.61 5.61 0 0 0-4.023-5.407zM46.29 42.089v3.072c0 .285.017.565.047.84a2.25 2.25 0 0 1-1.176-1.968 2.25 2.25 0 0 1 1.13-1.944zm2.258-.315h.194c2.002 0 3.902-.66 5.452-1.88a8.767 8.767 0 0 0 5.45 1.88h.195v3.387a5.652 5.652 0 0 1-5.645 5.645 5.652 5.652 0 0 1-5.646-5.645v-3.387zm1.742 12.624l2.412 4.02-2.389 1.791-1.53-5.358 1.507-.453zm3.904 2.118l-2.259-3.763v-.02a7.856 7.856 0 0 0 4.516-.001v.02l-2.257 3.764zm3.903-2.118l1.508.453-1.531 5.358-2.39-1.792 2.413-4.019zm7.785-2.517c-.897.505-2.373 1.084-4.426 1.168l-2.746-.825v-.587a7.932 7.932 0 0 0 2.632-3.127 4.48 4.48 0 0 0 2.164-.746 8.7 8.7 0 0 0 2.376 4.117zm-3.832-5.88c.03-.276.047-.556.047-.84v-3.073a2.251 2.251 0 0 1 1.129 1.944 2.25 2.25 0 0 1-1.176 1.97zm-7.856-16.646c4.98 0 9.032 4.052 9.032 9.032v1.757a4.467 4.467 0 0 0-2.258-.628h-1.323a6.534 6.534 0 0 1-4.653-1.927l-.798-.8-.799.8a6.536 6.536 0 0 1-4.653 1.927H47.42c-.826 0-1.59.24-2.258.63v-1.759c0-4.98 4.052-9.032 9.033-9.032zM42.504 51.88a8.698 8.698 0 0 0 2.376-4.117 4.48 4.48 0 0 0 2.164.746 7.932 7.932 0 0 0 2.632 3.127v.587l-2.745.823c-2.054-.082-3.529-.662-4.426-1.166zm-1.859 7.93c0-1.507.97-2.81 2.414-3.243l3.56-1.068 2.424 8.484 4.022-3.016v6.774h-5.646v-4.516h-2.258v4.516h-4.516v-7.93zm27.097 7.93h-4.516v-4.515h-2.258v4.516h-5.645v-6.774l4.021 3.016 2.424-8.484 3.56 1.068a3.364 3.364 0 0 1 2.414 3.244v7.93zM27.59 49.889l-7.267-2.18v-.588a7.932 7.932 0 0 0 2.631-3.127c2.314-.193 4.143-2.116 4.143-4.478v-5.645c0-6.226-5.065-11.29-11.29-11.29-6.226 0-11.29 5.064-11.29 11.29v5.646c0 2.362 1.828 4.284 4.141 4.478a7.932 7.932 0 0 0 2.632 3.127v.587l-7.267 2.18A5.607 5.607 0 0 0 0 55.297v10.188h31.613V55.296a5.61 5.61 0 0 0-4.023-5.407zm-6.372.446l-1.531 5.358-2.39-1.792 2.413-4.02 1.508.454zM15.806 52l-2.258-3.763v-.02a7.856 7.856 0 0 0 4.516-.001v.02L15.807 52zm7.857-10.515c.03-.276.047-.556.047-.84v-3.073a2.251 2.251 0 0 1 1.129 1.944 2.25 2.25 0 0 1-1.176 1.97zM15.806 24.84c4.98 0 9.033 4.052 9.033 9.032v1.757A4.467 4.467 0 0 0 22.58 35H9.032c-.826 0-1.59.24-2.258.629v-1.758c0-4.98 4.052-9.032 9.032-9.032zM6.774 39.517a2.25 2.25 0 0 1 1.13-1.944v3.072c0 .285.016.565.046.84a2.25 2.25 0 0 1-1.176-1.968zm3.387 1.128v-3.387h11.29v3.387a5.652 5.652 0 0 1-5.645 5.645 5.652 5.652 0 0 1-5.645-5.645zm1.742 9.237l2.412 4.02-2.389 1.791-1.531-5.358 1.508-.453zm17.452 13.344h-4.516V58.71H22.58v4.516H9.032V58.71H6.774v4.516H2.258v-7.93c0-1.508.97-2.812 2.414-3.244l3.56-1.068 2.424 8.484 5.15-3.863 5.151 3.863 2.424-8.484 3.56 1.068a3.364 3.364 0 0 1 2.414 3.244v7.93zM15.806 13.548h9.033v2.258h-9.033zm11.291 0h2.258v2.258h-2.258zM15.806 4.516h13.549v2.258H15.806zm0 4.516h13.549v2.258H15.806z" id="Shape"/><path d="M60.968 21.452V7.903a3.392 3.392 0 0 0-3.387-3.387H40.645V3.387A3.392 3.392 0 0 0 37.258 0h-22.58a3.392 3.392 0 0 0-3.388 3.387v13.548a3.392 3.392 0 0 0 3.387 3.388h16.936v1.129A3.392 3.392 0 0 0 35 24.839h22.58a3.392 3.392 0 0 0 3.388-3.387zm-46.29-3.387a1.13 1.13 0 0 1-1.13-1.13V3.387a1.13 1.13 0 0 1 1.13-1.129h22.58a1.13 1.13 0 0 1 1.13 1.13v1.128H35a3.392 3.392 0 0 0-3.387 3.387v10.162H14.677zm19.193 3.387V7.903A1.13 1.13 0 0 1 35 6.774h22.58a1.13 1.13 0 0 1 1.13 1.13v13.548a1.13 1.13 0 0 1-1.13 1.129H35a1.13 1.13 0 0 1-1.129-1.13z" id="Shape"/><path id="Shape" d="M36.129 18.065h15.806v2.258H36.13zm18.065 0h2.258v2.258h-2.258zM36.129 9.032h20.323v2.258H36.129zm0 4.516h20.323v2.258H36.129zm27.097-4.516h2.258v2.258h-2.258zm0 4.516h2.258v2.258h-2.258zm0 4.517h2.258v2.258h-2.258zM6.774 4.516h2.258v2.258H6.774zm0 4.516h2.258v2.258H6.774zm0 4.516h2.258v2.258H6.774z"/></g></g></g></svg>