<svg width="70" height="70" xmlns="http://www.w3.org/2000/svg"><g id="Page-1" stroke="none" stroke-width="1" fill="none" fill-rule="evenodd"><g id="1-main" transform="translate(-686 -831)" fill="#0059BB" fill-rule="nonzero"><g id="icon-2" transform="translate(686 831)"><path d="M67.478 60.968l1.073-1.79A10.157 10.157 0 0 0 70 53.95V28.386c0-3.317-1.292-6.435-3.638-8.781l-4.82-4.82a4.185 4.185 0 0 0-2.832-1.222V0H11.29v13.563a4.181 4.181 0 0 0-2.832 1.222l-4.82 4.82A12.337 12.337 0 0 0 0 28.386V53.95c0 1.841.5 3.649 1.449 5.227l1.073 1.79H0V70h20.323v-9.032h-2.258v-4.182a14.52 14.52 0 0 0 2.258-7.793V47.42h3.387v-.012c.256.34.55.656.885.935a5.599 5.599 0 0 0 1.123 3.888l-4.995 12.624 5.77-1.443 2.977 5.954 5.174-12.934c.118.008.236.02.356.02s.238-.012.357-.019l5.174 12.935 2.977-5.955 5.77 1.443-4.995-12.624a5.592 5.592 0 0 0 1.122-3.888c.333-.279.628-.594.885-.935v.011h3.387v1.575c0 2.771.78 5.457 2.258 7.793v4.18h-2.258V70H70v-9.032h-2.522zm-8.768-36.79l1.266 1.267c.63.629.992 1.502.992 2.394v3.577l-2.258-1.935v-5.303zm0 16.467v-8.19l2.258 1.935v5.513c0 .892-.362 1.764-.992 2.395l-1.266 1.267v-2.92zM18.065 67.742H2.258v-4.516h15.807v4.516zm0-18.748c0 2.44-.715 4.802-2.069 6.832l-.19.284v4.858H5.156l-1.772-2.953a7.905 7.905 0 0 1-1.126-4.065V28.386c0-2.714 1.057-5.266 2.976-7.185l4.82-4.82c.334-.334.77-.524 1.236-.56v5.163l-2.863 2.863a5.606 5.606 0 0 0-1.653 3.992v12.066c0 1.507.587 2.925 1.653 3.99l2.863 2.863v1.79h2.258v-7.903a2.26 2.26 0 0 1 2.258-2.258 2.26 2.26 0 0 1 2.259 2.258v8.35zM9.032 31.415v-3.578c0-.892.362-1.763.992-2.394l1.266-1.266v5.303l-2.258 1.935zm2.258 1.04v11.11l-1.266-1.267a3.41 3.41 0 0 1-.992-2.395V34.39l2.258-1.935zM29.24 63.86l-1.54-3.078-3.262.816 3.092-7.814c.96.517 2.052.752 3.16.654a5.63 5.63 0 0 0 1.76 1.396l-3.21 8.026zm16.32-2.261l-3.262-.817-1.539 3.078-3.21-8.025a5.63 5.63 0 0 0 1.76-1.395 5.603 5.603 0 0 0 3.16-.655l3.09 7.814zm-1.978-14.714l-.67.425.173.774a3.368 3.368 0 0 1-.9 3.133 3.372 3.372 0 0 1-3.134.9l-.775-.173-.424.67A3.367 3.367 0 0 1 35 54.193a3.369 3.369 0 0 1-2.852-1.579l-.426-.67-.773.173a3.366 3.366 0 0 1-4.033-4.034l.173-.774-.67-.425a3.367 3.367 0 0 1-1.58-2.852c0-1.157.59-2.224 1.58-2.852l.669-.424-.173-.775a3.37 3.37 0 0 1 .9-3.134 3.367 3.367 0 0 1 3.134-.9l.773.172.425-.669A3.372 3.372 0 0 1 35 33.871a3.37 3.37 0 0 1 2.853 1.58l.425.668.773-.172a3.372 3.372 0 0 1 3.134.9 3.37 3.37 0 0 1 .9 3.134l-.173.775.67.424a3.369 3.369 0 0 1 1.58 2.852 3.369 3.369 0 0 1-1.58 2.852zm6.095-6.239v4.516h-2.376a5.599 5.599 0 0 0-1.896-5.439 5.617 5.617 0 0 0-6.096-6.096A5.6 5.6 0 0 0 35 31.614c-1.68 0-3.244.74-4.31 2.013a5.617 5.617 0 0 0-6.094 6.096 5.6 5.6 0 0 0-1.897 5.44h-2.376v-4.517a4.52 4.52 0 0 0-4.517-4.516c-.826 0-1.59.24-2.258.628v-34.5h42.904v34.499a4.47 4.47 0 0 0-2.258-.628 4.52 4.52 0 0 0-4.517 4.516zm2.258 8.35v-8.35a2.26 2.26 0 0 1 2.259-2.258 2.26 2.26 0 0 1 2.258 2.258v7.903h2.258v-1.79l2.863-2.863a5.606 5.606 0 0 0 1.653-3.992V27.84a5.608 5.608 0 0 0-1.653-3.992l-2.863-2.863v-5.163c.466.036.902.226 1.236.56l4.82 4.82a10.094 10.094 0 0 1 2.976 7.185V53.95c0 1.432-.39 2.838-1.127 4.065l-1.77 2.953H54.194V56.11l-.19-.285a12.272 12.272 0 0 1-2.069-6.83zm15.807 18.747H51.935v-4.516h15.807v4.516z" id="Shape"/><path d="M35 38.387a5.652 5.652 0 0 0-5.645 5.645A5.652 5.652 0 0 0 35 49.677a5.652 5.652 0 0 0 5.645-5.645A5.652 5.652 0 0 0 35 38.387zm0 9.032a3.391 3.391 0 0 1-3.387-3.387A3.391 3.391 0 0 1 35 40.645a3.391 3.391 0 0 1 3.387 3.387A3.391 3.391 0 0 1 35 47.42zM15.806 4.516v11.29h38.388V4.516H15.806zm36.13 9.032H18.064V6.774h33.87v6.774z" id="Shape"/><path id="Rectangle-path" d="M20.323 18.065h33.871v2.258H20.323zm-4.517 4.516h38.387v2.258H15.806zm0 4.516h33.871v2.258H15.806zm36.129 0h2.258v2.258h-2.258zm-36.129-9.032h2.258v2.258h-2.258z"/></g></g></g></svg>