<svg xmlns="http://www.w3.org/2000/svg" viewBox="0 0 640.91 150.12"><defs><linearGradient id="linear-gradient" x1="-.84" y1="89.07" x2="127.85" y2="89.07" gradientTransform="rotate(.82 1195.976 154.95)" gradientUnits="userSpaceOnUse"><stop offset="0" stop-color="#e3e3e3"/><stop offset="1" stop-color="#a6a6a6"/></linearGradient><linearGradient id="linear-gradient-2" x1="8.68" y1="68.63" x2="125.47" y2="124.34" gradientUnits="userSpaceOnUse"><stop offset="0" stop-color="#9cadd6"/><stop offset=".18" stop-color="#839fce"/><stop offset=".55" stop-color="#5385c0"/><stop offset=".84" stop-color="#3675b6"/><stop offset="1" stop-color="#2b6fb3"/></linearGradient><linearGradient id="linear-gradient-3" x1="2023.19" y1="824.34" x2="2151.88" y2="824.34" gradientTransform="matrix(-.77 .63 -.63 -.77 2222.46 -613.43)" gradientUnits="userSpaceOnUse"><stop offset="0" stop-color="#1eb9ed"/><stop offset="1" stop-color="#00a7c2"/></linearGradient></defs><g style="isolation:isolate"><g id="OBJECTS"><path d="M29.21 93a75 75 0 0 1 100.41-69.52 75 75 0 1 0-79.85 122.14A74.77 74.77 0 0 1 29.21 93z" style="mix-blend-mode:multiply" fill="url(#linear-gradient)" fill-rule="evenodd"/><path d="M105.94 113.55A75 75 0 0 1 9.45 38.72 75 75 0 1 0 150 78.1a74.68 74.68 0 0 1-44.06 35.45z" style="mix-blend-mode:multiply" fill="url(#linear-gradient-2)" fill-rule="evenodd"/><path d="M98.68 31.67a75 75 0 0 1-32.06 117.82A75 75 0 1 0 49.05 4.64a74.73 74.73 0 0 1 49.63 27.03z" style="mix-blend-mode:multiply" fill="url(#linear-gradient-3)" fill-rule="evenodd"/><path d="M185.21 64a16.15 16.15 0 0 1-4.63-.63 12.75 12.75 0 0 1-3.78-1.83 14 14 0 0 1-5-5.21l-.8-1.87c-.11-.33-.22-.69-.32-1.07s-.18-.79-.26-1.22a68.73 68.73 0 0 1-.44-9.9q0-3.78.1-6.24a28 28 0 0 1 .34-3.72 11.27 11.27 0 0 1 1.43-4.07 15 15 0 0 1 5-5.3 14.37 14.37 0 0 1 8.41-2.38 14.61 14.61 0 0 1 13.36 7.68 10.35 10.35 0 0 1 1.52 4.07 86.89 86.89 0 0 1 .36 10 86.82 86.82 0 0 1-.36 9.9 11 11 0 0 1-1.52 4.14 14 14 0 0 1-4.86 5.21 13.54 13.54 0 0 1-3.83 1.83 16.14 16.14 0 0 1-4.72.61zm0-6.47a8 8 0 0 0 4-1 7 7 0 0 0 2.57-2.14 6.85 6.85 0 0 0 1.73-3.6 52.2 52.2 0 0 0 .44-8.53q0-3.19-.09-5.31a18.65 18.65 0 0 0-.35-3.27 6.8 6.8 0 0 0-1.73-3.55 7.88 7.88 0 0 0-2.57-2.22 10 10 0 0 0-4-.88 10.28 10.28 0 0 0-3.89.88 7.57 7.57 0 0 0-2.73 2.22 7.4 7.4 0 0 0-1.67 3.55 52.49 52.49 0 0 0-.47 8.58q0 3.16.12 5.28a23.58 23.58 0 0 0 .35 3.25 7.45 7.45 0 0 0 1.67 3.6 6.29 6.29 0 0 0 2.73 2.14 7.26 7.26 0 0 0 3.89.98zm23.99-36.62h27.28V27h-20.8v10.7h10a15.27 15.27 0 0 1 5.6 1 11.91 11.91 0 0 1 6.94 6.75 13.84 13.84 0 0 1 1 5.26 14.44 14.44 0 0 1-.94 5.27 11.43 11.43 0 0 1-2.71 4.12 12.17 12.17 0 0 1-4.26 2.64 16.16 16.16 0 0 1-5.6.92H209.2zm16.21 36.6a7.24 7.24 0 0 0 5.31-1.89 6.89 6.89 0 0 0 1.92-5.14 6.86 6.86 0 0 0-1.92-5.12 7.24 7.24 0 0 0-5.31-1.89h-9.73v14zm67.64 6.12h-46V20.91h6.48v36.6h13.86v-36.6h6.47v36.6h13.8v-36.6h6.47v36.6h5v15.73h-6.12zm12.28-42.72h27.27V27h-20.8v12.2h17.75V45H311.8v12.51h20.8v6.12h-27.27zM353.69 64a16.15 16.15 0 0 1-4.63-.63 12.75 12.75 0 0 1-3.78-1.83 14 14 0 0 1-5-5.21l-.85-1.85c-.11-.33-.22-.69-.32-1.07s-.18-.79-.26-1.22a70.3 70.3 0 0 1-.44-9.9q0-3.78.1-6.24a28 28 0 0 1 .34-3.72 11.27 11.27 0 0 1 1.43-4.07 15 15 0 0 1 5-5.3 15.9 15.9 0 0 1 18.49 1.26 16.23 16.23 0 0 1 4.92 9h-6.85a9.15 9.15 0 0 0-2.84-4.39 8.45 8.45 0 0 0-5.31-1.83 10.28 10.28 0 0 0-3.89.88 7.57 7.57 0 0 0-2.73 2.22 7.4 7.4 0 0 0-1.67 3.55 52.49 52.49 0 0 0-.47 8.58q0 3.16.12 5.28a25.28 25.28 0 0 0 .35 3.25 7.45 7.45 0 0 0 1.67 3.6 6.29 6.29 0 0 0 2.73 2.14 7.26 7.26 0 0 0 3.89 1q5.46 0 8.15-5.83h6.85a15.84 15.84 0 0 1-5.36 9.14 15.24 15.24 0 0 1-9.64 3.19zm28.01-37H370v-6.09h29.88V27H388.2v36.63h-6.5zm23.96-6.09h16.56q6.4.12 9.46 3.17a11.21 11.21 0 0 1 3.19 8.29 9.83 9.83 0 0 1-1.26 5 7.11 7.11 0 0 1-1.93 2.17 13.19 13.19 0 0 1-3.11 2v.12a8.55 8.55 0 0 1 5.28 3.66 11.68 11.68 0 0 1 1.7 6.18 12.08 12.08 0 0 1-3.49 8.76 11.4 11.4 0 0 1-8.41 3.37h-18zm15.82 18q3.56 0 5.22-1.84a5.81 5.81 0 0 0 1.7-4.28 6 6 0 0 0-1.7-4.37c-1.08-1.07-2.81-1.65-5.22-1.75h-9.34V38.9zm.62 18.61a6.94 6.94 0 0 0 5.27-2 6.43 6.43 0 0 0 1.63-4.43 6.51 6.51 0 0 0-1.67-4.51q-1.67-1.78-5.27-1.91h-10v12.84zm21.36-36.61h27.27V27h-20.8v12.2h17.75V45h-17.75v12.51h20.8v6.12h-27.27zm34.54 0h6.48V39.2h16.9V20.91h6.51v42.72h-6.49V45h-16.9v18.63H478zm40.13 0h6.48V39.2h16.9V20.91H548v42.72h-6.5V45h-16.9v18.63h-6.48zm40.11 0h6.47V37.7h9.9a15.05 15.05 0 0 1 5.54 1 12.89 12.89 0 0 1 4.29 2.68 11.59 11.59 0 0 1 2.77 4.07 13.65 13.65 0 0 1 1 5.26 13.48 13.48 0 0 1-1 5.27 11.83 11.83 0 0 1-2.77 4.12 12.17 12.17 0 0 1-4.26 2.64 15.94 15.94 0 0 1-5.54.92h-16.4zm16 36.6a7.56 7.56 0 0 0 5.44-1.86 6.71 6.71 0 0 0 2-5.09 6.84 6.84 0 0 0-2-5.14 7.49 7.49 0 0 0-5.44-1.89h-9.52v14zm19.1-36.6h6.48v42.72h-6.48zm16.66 0h6.48v31l18.48-31h5.92v42.72h-6.47v-31l-18.55 31H610zm9.26-12.77a5.5 5.5 0 0 0 2.11 3.4 7.08 7.08 0 0 0 4 1 6.73 6.73 0 0 0 3.83-1 4.9 4.9 0 0 0 2.23-3.46H635a8.65 8.65 0 0 1-2.78 6 9.45 9.45 0 0 1-6.88 2.4 9.21 9.21 0 0 1-6.77-2.4 8.76 8.76 0 0 1-2.9-6zM186 130.59a29.28 29.28 0 0 1-7.94-1.26 12.61 12.61 0 0 1-5.29-3.18 12.33 12.33 0 0 1-2.9-5.3 29 29 0 0 1-.89-7.66 25.59 25.59 0 0 1 1-7.5 11.76 11.76 0 0 1 3-5 12.67 12.67 0 0 1 5.32-2.94 33.79 33.79 0 0 1 7.7-1.23v-4h6.48v4a34 34 0 0 1 7.75 1.19 12.63 12.63 0 0 1 5.31 2.94 11.68 11.68 0 0 1 3 5 25.59 25.59 0 0 1 .95 7.5 28.6 28.6 0 0 1-.9 7.66 12 12 0 0 1-2.91 5.3 12.73 12.73 0 0 1-5.29 3.18 29.16 29.16 0 0 1-8 1.26V136H186zm0-28.21a25.4 25.4 0 0 0-5.24.7 6.56 6.56 0 0 0-3.24 1.82 7 7 0 0 0-1.61 3.37 25.06 25.06 0 0 0-.45 5.15 22.88 22.88 0 0 0 .48 5.12 6.69 6.69 0 0 0 4.92 5.24 20.39 20.39 0 0 0 5.14.75zm6.48 22.15a20.51 20.51 0 0 0 5.17-.75 7.25 7.25 0 0 0 3.23-1.92 7.13 7.13 0 0 0 1.69-3.32 22.88 22.88 0 0 0 .48-5.12 25.06 25.06 0 0 0-.45-5.15 7 7 0 0 0-1.6-3.37 6.66 6.66 0 0 0-3.23-1.82 25.52 25.52 0 0 0-5.26-.7zm38.7 11.47a16.1 16.1 0 0 1-4.63-.63 12.52 12.52 0 0 1-3.78-1.83 13.86 13.86 0 0 1-5-5.21l-.85-1.85a9.65 9.65 0 0 1-.32-1.07c-.1-.38-.19-.79-.27-1.22a70.3 70.3 0 0 1-.44-9.9q0-3.78.11-6.24a28.3 28.3 0 0 1 .33-3.72 11.27 11.27 0 0 1 1.44-4.07 14.82 14.82 0 0 1 5-5.3 14.35 14.35 0 0 1 8.41-2.38 14.64 14.64 0 0 1 13.36 7.68 10.35 10.35 0 0 1 1.52 4.07 90.21 90.21 0 0 1 .35 10 90.15 90.15 0 0 1-.35 9.9 11 11 0 0 1-1.52 4.14 14 14 0 0 1-4.87 5.21 13.35 13.35 0 0 1-3.82 1.83 16.18 16.18 0 0 1-4.67.59zm0-6.47a7.91 7.91 0 0 0 4-1 8.6 8.6 0 0 0 4.31-5.74 52.2 52.2 0 0 0 .44-8.53q0-3.19-.09-5.31a19.67 19.67 0 0 0-.35-3.27 6.87 6.87 0 0 0-1.73-3.55 8 8 0 0 0-2.58-2.22 10 10 0 0 0-4-.88 10.29 10.29 0 0 0-3.9.88 7.53 7.53 0 0 0-2.72 2.22 7.4 7.4 0 0 0-1.67 3.55 51.35 51.35 0 0 0-.47 8.58c0 2.11 0 3.87.11 5.28a23.3 23.3 0 0 0 .36 3.25 7.45 7.45 0 0 0 1.67 3.6 6.26 6.26 0 0 0 2.72 2.14 7.3 7.3 0 0 0 3.9.98zm23.99-36.62h15.47q1.26 0 2.46.12c.8.08 1.6.2 2.4.35a13.68 13.68 0 0 1 4.75 2.52 10.44 10.44 0 0 1 3.28 4.08 13.34 13.34 0 0 1 1.32 6.12 13 13 0 0 1-3.34 8.64q-3.5 4.16-10 4.22h-9.85v16.67h-6.47zm16.05 19.93a7.07 7.07 0 0 0 5.42-2.23 7.19 7.19 0 0 0 1.73-4.69 8.28 8.28 0 0 0-.7-3.6 5.38 5.38 0 0 0-2.05-2.08A8.29 8.29 0 0 0 271 99h-9.35v13.8zm20.6 16.67h3.05a4.74 4.74 0 0 0 3-.84 6.1 6.1 0 0 0 1.82-2.59l1.5-3.46-13.71-29.71h7l10.07 22.74 9.17-22.74h6.83l-15.29 35.75a14.47 14.47 0 0 1-3.39 5 7.81 7.81 0 0 1-5.61 2h-4.42zm34.51-36.6h6.09l12.25 27.84 12-27.84h6.12v42.72h-6.47V109h-.12l-9 20.51h-5.39L332.92 109h-.12v26.63h-6.47z"/></g></g></svg>