<svg version="1.1" id="Layer_1" xmlns="http://www.w3.org/2000/svg" xmlns:xlink="http://www.w3.org/1999/xlink" x="0" y="0" width="340.154" height="128.887" xml:space="preserve"><defs><path id="SVGID_1_" d="M86.027 73.937c-.539.537-18.623 18.358-19.892 19.637 2.462 1.768 13.031 8.34 27.163 3.494 1.075-.389 2.972-.871 4.082-1.404l1.127-1.209c3.418-3.971 7.901-9.324 10.423-20.518-7.587-3.213-17.6-4.368-22.903 0"/></defs><clipPath id="SVGID_2_"><use xlink:href="#SVGID_1_" overflow="visible"/></clipPath><linearGradient id="SVGID_3_" gradientUnits="userSpaceOnUse" x1="-80.157" y1="-315.816" x2="-79.157" y2="-315.816" gradientTransform="rotate(139.317 -7803.95 -11329.486) scale(79.5728)"><stop offset="0" stop-color="#c9c8c9"/><stop offset=".295" stop-color="#c9c8c9"/><stop offset=".382" stop-color="#c3c2c3"/><stop offset=".503" stop-color="#b1b0b2"/><stop offset=".643" stop-color="#949396"/><stop offset=".797" stop-color="#6b6b6f"/><stop offset=".87" stop-color="#55565a"/><stop offset="1" stop-color="#55565a"/></linearGradient><path clip-path="url(#SVGID_2_)" fill="url(#SVGID_3_)" d="M124.918 88.169l-40.597 34.898-34.174-39.754 40.598-34.898z"/><defs><path id="SVGID_4_" d="M86.027 51.179c5.056 5.062 16.794 5.489 22.268 1.245-1.319-5.69-6.573-15.688-12.215-20.512l-1.565-1.438c-4.25-3.563-7.812-5.873-13.279-8.082l-2.895-1.017s-4.598-1.186-4.603-1.186c-3.002-.619-6.408-.889-9.492-.889-3.072 0-6.158.319-9.164.954l-4.814 1.298-2.734.983c-4.049 1.635-7.662 4.031-11.056 6.74 16.556-4.928 28.315 4.721 28.502 4.877-.002.005 20.475 16.456 21.047 17.027"/></defs><clipPath id="SVGID_5_"><use xlink:href="#SVGID_4_" overflow="visible"/></clipPath><linearGradient id="SVGID_6_" gradientUnits="userSpaceOnUse" x1="-80.069" y1="-310.961" x2="-79.068" y2="-310.961" gradientTransform="rotate(47.928 -28344.242 -4676.467) scale(72.7146)"><stop offset="0" stop-color="#ffed7f"/><stop offset=".045" stop-color="#ffed7f"/><stop offset=".115" stop-color="#ffe960"/><stop offset=".2" stop-color="#ffe643"/><stop offset=".295" stop-color="#ffe32a"/><stop offset=".402" stop-color="#ffe017"/><stop offset=".526" stop-color="#ffdf0a"/><stop offset=".686" stop-color="#ffde02"/><stop offset="1" stop-color="#fd0"/></linearGradient><path clip-path="url(#SVGID_5_)" fill="url(#SVGID_6_)" d="M76.049-16.418l50.83 56.312-58.158 52.498-50.83-56.313z"/><defs><path id="SVGID_7_" d="M33.043 96.841c4.215 4.105 9.089 7.314 14.507 9.503l2.741.979 4.811 1.307c3.007.629 6.096.951 9.178.951 3.077 0 6.161-.207 9.164-.836 0 0 4.914-1.233 4.918-1.238l3.251-1.163c4.048-1.638 8.101-4.025 11.495-6.748-16.56 4.932-29.361-4.707-29.5-4.816l-.028-.023s-27.021-27.018-28.447-28.44c-1.306 1.824-5.238 8.072-5.238 16.963 0 2.957.44 6.209 1.563 9.666a34.728 34.728 0 0 0 1.518 3.736l.067.159"/></defs><clipPath id="SVGID_8_"><use xlink:href="#SVGID_7_" overflow="visible"/></clipPath><linearGradient id="SVGID_9_" gradientUnits="userSpaceOnUse" x1="-84.57" y1="-316.348" x2="-83.57" y2="-316.348" gradientTransform="rotate(-138.846 1303.649 -12645.323) scale(72.8636)"><stop offset="0" stop-color="#969598"/><stop offset=".295" stop-color="#969598"/><stop offset=".296" stop-color="#959598"/><stop offset=".472" stop-color="#79797d"/><stop offset=".649" stop-color="#656569"/><stop offset=".825" stop-color="#595a5e"/><stop offset="1" stop-color="#55565a"/></linearGradient><path clip-path="url(#SVGID_8_)" fill="url(#SVGID_9_)" d="M65.73 140.903L8.454 90.844l48.815-55.853 57.276 50.061z"/><defs><path id="SVGID_10_" d="M31.866 33.216c-4.115 4.222-7.316 9.105-9.5 14.517l-.99 2.733-1.302 4.818c-.631 2.994-.944 6.078-.944 9.162s.313 6.176.944 9.176l1.302 4.813.99 2.735c1.639 4.062 4.028 7.679 6.751 11.06-1.001-3.353-1.463-6.537-1.463-9.439 0-11.418 6.179-18.899 6.263-19l.032-.039s27.023-27.018 28.449-28.44c-2.469-1.765-13.037-8.345-27.187-3.494-1.057.387-2.154.84-3.253 1.367l-.092.031"/></defs><clipPath id="SVGID_11_"><use xlink:href="#SVGID_10_" overflow="visible"/></clipPath><linearGradient id="SVGID_12_" gradientUnits="userSpaceOnUse" x1="-85.873" y1="-310.625" x2="-84.873" y2="-310.625" gradientTransform="rotate(-44.702 19605.581 -15107.841) scale(58.2362)"><stop offset="0" stop-color="#c4bd70"/><stop offset=".354" stop-color="#c4bd70"/><stop offset=".953" stop-color="#969300"/><stop offset="1" stop-color="#969300"/></linearGradient><path clip-path="url(#SVGID_11_)" fill="url(#SVGID_12_)" d="M-13.5 59.259L40.989 5.333l54.04 54.604-54.489 53.925z"/><path fill="#B8B7B9" d="M101.65 31.991c7.589 8.695 12.206 20.049 12.206 32.451 0 12.41-4.617 23.76-12.206 32.445a46.736 46.736 0 0 1-5.019 5.02c-.804.654-1.614 1.309-2.417 1.961a46.09 46.09 0 0 1-1.711 1.211 50.092 50.092 0 0 1-9.589 5.224 49.486 49.486 0 0 1-18.529 3.571 49.137 49.137 0 0 1-18.836-3.725c-3.263-1.406-6.428-3.111-9.345-5.17-.544-.404-1.1-.806-1.65-1.207l-.056-.051a44.147 44.147 0 0 1-2.459-2.015 46.954 46.954 0 0 1-5.07-5.071 49.258 49.258 0 0 1-11.951-32.193c0-12.312 4.513-23.551 11.951-32.248a47.55 47.55 0 0 1 5.07-5.066 45.992 45.992 0 0 1 2.459-2.014s.056 0 .056-.049c.551-.41 1.106-.803 1.65-1.201 2.917-1.969 6.082-3.725 9.345-5.076 5.823-2.41 12.205-3.771 18.836-3.771a49.583 49.583 0 0 1 18.529 3.612 48.163 48.163 0 0 1 9.589 5.177c.606.356 1.159.809 1.711 1.219a61.53 61.53 0 0 1 2.417 1.902l5.019 5.064m15.577 28.881v-.299c2.354-5.068 6.775-5.168 11.646-.553 0-7.728-1.658-13.859-5.379-17.324-5.261-4.672-10.766-1.629-15.264-7.982-.531-5.541 3.286-7.891 9.843-6.336-3.914-6.625-8.437-11.104-13.356-12.252-1.106-.248-2.107-.309-3.067-.198-1.855.09-3.463.646-5.019 1.104-.804.242-1.614.496-2.417.656-.552.092-1.104.188-1.711.188-1.47.103-3.092-.153-5.001-1.045-3.158-4.502-1.145-8.301 5.001-10.259a.944.944 0 0 0 .358-.15c-.093-.043-.203-.099-.358-.135-3.357-1.921-6.623-3.276-9.589-3.927-2.867-.603-5.478-.65-7.778.051-5.324 1.809-6.479 6.229-10.751 8.281-.908.463-2.053.807-3.415.96h-.301C55.598 9.288 55.497 4.872 60.11 0c-5.919 0-10.946 1.01-14.56 3.115-1.052.652-2.006 1.405-2.816 2.261-4.214 4.829-2.061 9.838-6.528 14.109-.398.406-.887.772-1.405 1.16H34.5c-.901.053-1.703 0-2.459-.148-3.569-.858-4.869-4.371-3.569-9.694-.49.297-.996.6-1.501.901-5.825 3.668-9.797 7.832-10.85 12.351-1.407 6.942 4.067 10.204.657 17.381-4.574 3.264-8.491 1.155-10.407-5.314C2.51 42.848.894 49.019 2.358 53.844c2.253 6.581 8.388 6.729 9.288 14.211v.309C9.34 73.431 4.87 73.577 0 68.964c0 7.683 1.703 13.863 5.419 17.33 5.264 4.613 10.771 1.58 15.276 7.935.525 5.533-3.289 7.881-9.853 6.324 3.927 6.682 8.443 11.2 13.363 12.312 1.002.205 1.909.25 2.764.25 1.86-.102 3.462-.602 5.07-1.104a35.928 35.928 0 0 1 2.459-.714h.056c.551-.09 1.106-.2 1.65-.239 1.599-.097 3.29.145 5.271 1.075 3.143 4.537 1.07 8.386-5.271 10.328 0 0-.045.043-.098.043.053.06.098.06.098.093 3.318 1.866 6.437 3.164 9.345 3.877 3.059.703 5.823.758 8.285 0 5.27-1.757 6.439-6.127 10.551-8.189.998-.504 2.154-.852 3.615-1.047h.298c5.079 2.354 5.184 6.781.559 11.648 5.668 0 10.498-.902 14.059-2.857 1.259-.711 2.366-1.518 3.32-2.521 4.16-4.771 2.109-9.684 6.269-13.907.51-.502 1.063-.957 1.711-1.412-.046.051-.095.051-.095.051 0-.051.049-.051.095-.094 0 0 .052-.049.098-.049-.031.026-.059.059-.098.092.854-.043 1.672 0 2.417.102 3.757.709 5.169 4.275 3.861 9.754.4-.209.804-.461 1.156-.717 6.032-3.713 10.1-7.979 11.16-12.598 1.403-6.986-4.081-10.193-.709-17.386 0 .058-.056.111-.056.152 4.573-3.211 8.483-1.1 10.4 5.326 3.866-6.682 5.479-12.859 4.012-17.68-2.207-6.58-8.382-6.78-9.23-14.27z"/><path d="M176.163 54.654c-.899-3.3-2.699-9.674-12.074-9.674-5.475 0-13.725 3.9-13.725 19.274 0 9.75 4.125 18.824 13.725 18.824 6.3 0 10.725-3.824 12.074-10.5h11.324c-2.25 11.85-9.975 20.1-23.624 20.1-14.474 0-24.824-9.824-24.824-28.574 0-19.049 10.949-28.724 24.974-28.724 16.274 0 22.874 11.25 23.474 19.274h-11.324zm24.001-17.849l14.699 30.449 11.324-30.449h12.825l-20.024 46.048c-3.675 8.399-7.5 9.824-12.824 9.824-2.25 0-5.775-.375-6.975-.675v-9.675c.975.45 2.999.9 4.425.9 3.074 0 3.975-.825 5.85-4.275l-22.125-42.148h12.825zm75.222 21.074c-1.949-9.975-8.175-12.899-12.824-12.899-9.375 0-11.249 6.375-12.149 9.674h-11.324c.6-8.024 7.199-19.274 23.474-19.274 14.024 0 25.124 9.674 25.124 28.724 0 18.75-10.5 28.574-24.974 28.574-13.649 0-21.374-8.25-23.624-20.1h11.324c1.35 6.676 5.85 10.5 12.074 10.5 8.625 0 12.524-7.35 13.35-15.824h-15.749v-9.375h15.298zm28.501 1.05l20.774-22.124h14.699l-22.199 22.274 23.475 32.174h-14.625l-16.799-23.924-5.325 5.475v18.449h-11.324V36.805h11.324v22.124z" fill="#55565A"/></svg>