<svg xmlns="http://www.w3.org/2000/svg" xml:space="preserve" width="325.2" height="398.3" viewBox="0 0 94 116" id="svg2" version="1.0" shape-rendering="geometricPrecision" text-rendering="geometricPrecision" image-rendering="optimizeQuality" fill-rule="evenodd" clip-rule="evenodd"><defs id="defs4"><style type="text/css" id="style6">.fil5{fill:#e77817}.fil1{fill:#71625b;fill-rule:nonzero}</style></defs><g id="Layer_x0020_1" transform="translate(-1.5 -.76) scale(1.03194)" fill-rule="evenodd"><g id="g10"><path d="M1.546 85.843c0 4.964 7.826 14.19 13.674 14.19h17.184c7.72 0 13.547 6.796 13.547 12.527h2.19c0-5.795 3.7-12.549 13.569-12.549h16.928c6.146 0 13.802-9.204 13.802-14.168V1.196l-90.895-.02v84.667z" id="path12" fill="#00923f"/><path class="fil1" d="M15.22 99.597v.87l-.593-.028-.6-.083-.605-.134-.606-.183-.608-.228-.609-.269-.604-.309-.603-.346-.598-.38-.592-.413-.583-.441-.575-.469-.565-.49-.55-.516-.539-.534-.52-.55-.504-.566-.485-.577-.463-.588-.44-.595-.417-.6-.391-.604-.362-.605-.333-.602-.3-.598-.269-.593-.233-.585-.195-.575-.156-.563-.116-.549-.07-.534-.026-.517h.872l.019.438.063.466.102.491.143.512.181.53.217.545.251.559.287.567.316.575.348.577.374.58.4.577.426.574.447.567.467.558.487.545.504.533.517.513.53.495.542.474.55.448.56.421.562.392.566.36.566.325.567.29.56.25.557.208.55.166.539.12.526.073.514.025zm0 0zm17.184.87H15.22v-.87h17.184v.87zm0 0zm13.547 11.658v.87l-.434-.435-.017-.514-.049-.518-.078-.524-.111-.527-.14-.529-.17-.529-.2-.527-.227-.524-.256-.52-.282-.514-.308-.507-.335-.498-.358-.488-.384-.475-.407-.463-.43-.447-.45-.43-.474-.415-.494-.394-.511-.373-.533-.353-.55-.328-.568-.303-.583-.278-.602-.25-.616-.22-.63-.192-.644-.157-.658-.128-.67-.091-.682-.056-.696-.02v-.87l.74.02.73.06.718.098.702.133.689.172.674.202.657.237.639.267.623.295.603.323.587.35.564.372.545.397.524.419.5.438.48.457.456.475.431.49.407.506.383.518.355.53.33.54.301.548.273.557.244.563.214.568.183.57.153.573.12.574.087.572.052.573.017.565-.434-.435zm0 .87h-.434v-.435l.434.435zm1.756-.434h.869l-.435.435-.1.002-.095-.002h-.174l-.08.001-.074-.001h-.071l-.068.001h-.064l-.062-.001h-.116l-.055.001h-.372l-.055-.001h-.057l-.06.001h-.125l-.068-.001-.07.001h-.076l-.08-.001h-.084l-.09.001-.094-.002v-.87l.095-.001.09.001h.083l.08-.001h.075l.071.001.068-.001h.126l.059.001h.057l.055-.001h.372l.055.001h.116l.062-.001h.064l.068.002h.07l.076-.002.08.002h.173l.095-.002.1.002-.434.435zm.869 0v.435h-.435l.435-.435zM61.71 99.576v.87l-.889.02-.852.056-.816.092-.78.127-.746.158-.711.192-.678.22-.645.249-.612.275-.581.302-.549.324-.519.348-.49.37-.46.389-.431.41-.403.425-.375.443-.348.458-.32.471-.296.485-.27.495-.242.506-.22.514-.193.521-.169.53-.145.53-.122.534-.1.537-.074.536-.054.536-.033.533-.011.529h-.869l.011-.563.033-.567.057-.57.082-.574.106-.57.13-.572.155-.569.182-.563.208-.559.233-.551.263-.543.29-.534.316-.521.347-.51.376-.495.405-.477.437-.463.465-.44.498-.423.527-.398.56-.375.593-.352.622-.322.657-.296.689-.265.721-.234.756-.202.788-.169.823-.133.857-.096.89-.06.926-.02zm0 0zm16.928.87H61.71v-.87h16.928v.87zm0 0zm13.368-14.603h.869l-.024.515-.069.534-.114.549-.153.563-.192.574-.228.585-.264.592-.298.598-.328.6-.358.605-.386.602-.413.6-.438.595-.461.587-.483.577-.502.565-.522.55-.536.532-.555.514-.566.492-.58.467-.59.44-.598.412-.608.38-.614.345-.619.309-.621.268-.625.228-.625.182-.626.134-.623.081-.618.028v-.87l.543-.025.552-.074.56-.12.568-.165.574-.208.577-.25.578-.289.576-.325.574-.359.57-.39.564-.421.553-.447.545-.472.53-.493.52-.515.502-.53.485-.544.465-.556.444-.566.421-.572.397-.576.371-.579.342-.576.314-.574.28-.567.248-.558.215-.544.178-.53.14-.512.1-.49.061-.466.021-.44zm.869 0zM92.44 1.631v-.87l.434.435v7.928l.002 2.642-.002 2.642v2.643l.002 2.642v2.642l-.002 2.643.002 2.642v2.643l-.002 2.643.002 2.643v2.643l-.002 2.644v5.288l.002 2.645v2.645l-.002 2.645v7.938l.002 2.647v2.648l-.002 2.648v2.65l.002 2.649v2.65l-.002 2.65v5.304h-.868V80.54l-.002-2.651v-2.65l.002-2.65v-2.648l-.002-2.649v-2.648l.002-2.647V54.06l-.002-2.645V48.77l.002-2.645v-5.288l-.002-2.644V35.55l.002-2.643-.002-2.643V27.62l.002-2.642-.002-2.643v-2.642l.002-2.643v-2.642l-.002-2.642.002-2.642V1.196l.434.435zm0-.87h.434v.435L92.44.761zm-91.33.414L1.546.74 92.44.761v.87l-90.895-.02-.434-.436zm0 0V.74h.435l-.434.435zm.872 84.668h-.87L1.11 1.175h.869v84.668h.002z" id="path14" fill="#71625b" fill-rule="nonzero"/></g><g id="g16"><path d="M81.822 99.288c4.354-1.597 10.632-8.851 10.633-13.822v-3.424l-32.329-34.34L92.455 13.16V1.163H77.468L46.962 33.626 16.456 1.163H1.546l-.001 11.996 32 34.543-32 34.34v3.703c0 4.92 6.455 11.641 10.557 13.543l34.86-37.332 34.86 37.332z" id="path18" fill="#28166f"/><path class="fil1" d="M92.026 85.466h.858l-.019.505-.056.513-.093.522-.124.525-.157.534-.187.536-.214.539-.24.54-.265.54-.288.542-.31.538-.331.534-.35.53-.366.523-.382.518-.396.507-.41.497-.42.486-.432.471-.438.46-.447.442-.452.424-.456.408-.46.387-.46.366-.46.343-.461.318-.457.293-.454.265-.45.238-.444.206-.435.177-.296-.809.392-.156.403-.19.413-.217.423-.248.43-.276.434-.302.44-.326.44-.349.44-.37.44-.39.435-.412.43-.426.425-.442.415-.458.407-.469.396-.48.383-.49.368-.497.353-.506.336-.508.317-.513.297-.515.275-.514.251-.513.227-.51.2-.506.174-.5.143-.489.115-.482.082-.468.05-.455.018-.44zm.858 0zm-.117-3.719l.116.295v3.424h-.857v-3.424l.741-.295zm0 0l.116.124v.171l-.116-.295zm-32.953-34.34h.625l32.328 34.34-.625.59-32.328-34.34v-.59zm0 .59l-.277-.294.276-.296v.59zm33.07-34.838l-.117.294L60.44 47.997l-.626-.59 32.33-34.543.74.295zm0 0v.17l-.117.124.117-.294zM92.454.732l.429.431V13.16h-.858V1.163l.429-.431zm0 0h.429v.431l-.429-.431zm-15.3.136l.313-.136h14.987v.862H77.468l-.313-.726zm0 0l.129-.136h.184l-.313.136zM46.65 33.921v-.59L77.155.868l.626.59L47.275 33.92h-.626zm.626 0l-.313.333-.313-.333h.626zM16.456.73l.313.137 30.506 32.464-.626.589L16.143 1.458l.313-.726zm0 0h.184l.129.137-.313-.136zm-15.34.432l.43-.431h14.91v.862H1.546l-.43-.431zm0 0v-.43h.43l-.43.43zm.115 12.289l-.115-.293V1.163h.858v11.996l-.743.293zm0 0l-.115-.123v-.17l.115.293zm32.628 34.543h-.629l-32-34.543.63-.586 31.999 34.543v.586zm0-.586l.272.294-.272.292v-.586zM1.116 82.042l.114-.293 32-34.34.629.586-32 34.34-.743-.293zm0 0v-.17l.114-.123-.114.293zm.858 3.703h-.857v-3.703h.857v3.703zm0 0zm9.815 13.25l.625.586-.492.097-.408-.2-.418-.228-.426-.252-.435-.278-.44-.3-.446-.321-.448-.343-.451-.363-.452-.381-.45-.399-.447-.414-.444-.428-.438-.445-.43-.456-.42-.467-.411-.479-.4-.487-.385-.495-.37-.502-.356-.508-.334-.514-.315-.518-.294-.518-.271-.522-.245-.522-.22-.522-.19-.52-.161-.518-.13-.516-.093-.51-.059-.509-.018-.498h.857l.019.434.051.444.084.457.116.465.147.475.177.482.203.486.232.491.255.492.28.495.3.493.322.491.339.488.357.485.372.478.385.471.398.462.41.453.417.443.424.428.428.418.433.4.436.386.435.368.434.349.432.33.426.308.42.286.411.261.402.238.388.211.375.184-.493.098zm.625.586l-.212.227-.28-.13.492-.097zm34.86-37.919v.587L12.414 99.58l-.625-.586 34.86-37.333h.625zm-.625 0l.313-.334.312.334h-.625zm35.32 38.03l-.46-.11-34.86-37.333.625-.587 34.86 37.333-.164.698zm0 0l-.265.098-.195-.209.46.112z" id="path20" fill="#71625b" fill-rule="nonzero"/></g><path d="M25.588 46.299a6.408 6.408 0 0 1 1.442 1.872c-.127.076.05.177.076.303 1.568.253 2.833 1.265 3.971 2.404 1.569.05 3.239-.203 4.377.834 1.518.785 2.91 1.898 4.655 2.125 2.555.228 5.287.152 7.791-.05 1.063-.05 1.948.227 2.96.278.456.076.86.329 1.29.455 1.999.683 4.453.683 6.68.481 2.276.203 4.527.48 6.652.987.557.48 1.24.531 1.822.936.354.253.733.556.91.986.506.405.962.911 1.544 1.164.506.202.43.86.961 1.063.936.986 1.948 1.947 3.263 2.1.633.277 1.366.277 2.1.328.784-.05 1.67.177 2.252-.43.328-.152.556-.455.758-.708.557-.683.254-1.822.304-2.732-.81-1.62-2.606-2.834-4.225-3.669-.936-.202-1.492-.81-2.555-.81-2.2-.227-4.477-.581-6.78-.303-1.492.05-2.934.405-4.502.304l-6.881-.05c-.911-.228-1.948-.279-2.834-.71-1.518-.657-2.884-1.29-4.553-1.745-.76-.227-1.493-.581-1.948-1.315-.279-.658-.228-1.569.329-2.1.733-.354 1.315-1.113 2.2-1.113.886-.354 2.15-.177 3.188-.177 1.417.329 2.783.759 4.073 1.467 1.315.203 2.606.962 3.997.456 1.998 0 3.82-.506 5.844-.38 2.378-.455 4.654.127 7.032.152 5.617 1.164 12.852 3.44 13.965 10.195.835 5.818-5.566 11.03-11.258 9.132.355 1.594 1.037 3.036 1.62 4.605.43.278.606.834.86 1.29.581.835 1.264 1.72 2.2 2.074 1.063.658 2.505.253 3.466 1.139.784 2.074 1.391 4.25 2.555 6.248.127 1.037-2.681 4.73-3.187 6.249h-11.94c-1.089-1.493.986-5.186.733-4.731.86-1.138 2.049-1.999 3.34-2.353-.43-.354-.684-1.138-1.342-1.062-1.695-1.316-3.794-1.822-5.337-3.44-.178.227-.481.455-.481.632-1.467 1.745-.81 4.528-2.732 6.046-2.454.885-2.935 3.415-4.402 4.73H37.807c-.152-1.365-.279-3.314 1.34-4.983.456-.582 1.19-.708 1.72-1.19.33-.303.76-.328 1.164-.43.051-.126.203-.303.026-.43-.987-.809-1.594-2.023-2.48-2.984-.682-.354-.96-1.215-1.67-1.493-.707 1.037-1.365 2.075-1.492 3.34l-.834 1.011c-1.265.177-2.505 1.063-3.643 1.771-2.378 1.366-2.657 3.845-3.34 5.566-.303.227-.657.076-1.087.076H14.71c.05-1.62.733-3.314 1.113-3.744.076-.785.885-1.139 1.391-1.645 1.265-.556 2.404-1.34 3.82-1.518.81-2.049 3.163-3.238 4.048-5.262.48-2.1.835-4.174 1.67-6.122-1.113-.48-2.024-1.416-3.036-2.125-1.037-1.214-2.834-2.1-3.365-3.643l-.607-1.214c-.81-.531-1.821-.784-2.454-1.619-1.265.05-2.327-.582-3.465-.784-.253.126-.481-.025-.76.101-.86.076-1.897.152-2.656-.228-.405.152-.582-.303-.885-.455-1.138-1.088-.633-2.48-.76-3.972a1.94 1.94 0 0 1 .785-1.163c.886-.532 2.15.202 2.91-.456-.962-.253-1.797.304-2.809.177-.835 0-1.568-.354-2.1-1.037-.632-.784.405-1.644-.278-2.378-.582-.076-.733-.708-1.011-1.189-.026-.885.126-1.72.936-2.251.657-.177 1.264-.456 1.973-.405.556-.354 1.088-.734 1.77-.81 2.379.127 3.643-2.656 6.25-1.948 1.239.152 2.605.203 3.895.127.43-.278.885-.633 1.417-.658.329-.202.81-.101 1.214-.076.632.228 1.442.203 1.872.886zm29.877 25.955c-.33 1.214-.102 2.58.227 3.744-.177 1.316.531 2.505.886 3.668-.962 1.012-1.974 2.15-3.34 2.859-.835.101-1.821.354-2.605.658-.127-1.62.404-3.416-1.038-4.276-.733-1.163-1.492-2.352-1.947-3.668-.203-.43-.43-.86-.557-1.315 3.162-.152 5.742-1.392 8.373-1.67z" id="path22" fill="#71625b"/><path d="M27.747 81.046c0 .076 0 .126-.076.202-.43-.076-1.063.177-1.366-.202v-.557c.101.05.101-.1.126-.177l1.316.734zm-.48-1.973c.708.657 1.593.86 2.428 1.29.227 0 .455.025.683.126-.025.102-.177.152-.278.177-1.139.051-2.252-.075-3.061-.834-.026-.203-.178-.734.126-.86.076-.026.101 0 .101.1zm33.342-.481l.96.076c-.657.43-1.568.329-2.402.405v-.532c.151.076.177-.126.278-.177.405.076.936-.202 1.164.228zm-16.419-.936l-1.366 1.34c-.177-.024-.43.077-.506-.151v-.38c.228-.075.355-.202.608-.227v-.127c.505-.025.784-.556 1.264-.607v.152zm-16.24-.329c.505.177 1.112.152 1.618.329 1.063.557 2.48 1.164 3.567 1.973-1.416-.455-3.212-1.214-4.832-.986a1.387 1.387 0 0 1-.733-.532c-.026-.253-.076-.683 0-1.011.177 0 .278.126.38.227zm35.011.253c-1.189.076-2.53-.177-3.794-.152-.253-.1-.43-.278-.633-.48l.026-.33c1.694-.151 2.934.71 4.401.962zm10.398-1.695c-.203.354-.43.456-.785.709-.758.253-1.113.91-2.049.657-.1.025-.151 0-.227-.076.506-.404 1.214-.834 1.796-.936.531.152.657-.38 1.265-.354zm-28.814-.253c.05.152-.127.278-.203.38-.48.253-.986.784-1.442 1.113-.506 0-.657.303-1.113.38h-.582c-.177-.178-.177-.43-.43-.532.304-.278.76.025 1.139-.126.96-.102 1.872-.582 2.63-1.215zm-14.192.582c.632-.025.96.759 1.644.759.506.582 1.088.835 1.695 1.214v.127c-1.796-1.164-3.845-1.392-5.717-2.252.05-.202.05-.404.151-.556.886-.076 1.67.05 2.227.708zm12.345-1.29c-.658.556-1.847.025-2.404.632-.227-.05-.202.203-.354.253-.43 0-.834 0-1.138-.253-.202.05-.354-.126-.43-.278.455 0 .885-.101 1.34-.278.987-.076 2-.127 2.986-.253v.177zm30.281-.835c0 .025.025.05.05.076-.48.177-1.062.278-1.517.582-.607.152-1.037.632-1.569.885-.53.253-1.113-.05-1.67-.101v-.127c.886-.328 1.873-.682 2.758-1.113.683-.025 1.29-.151 1.948-.202zm-12.446.228c.733.1 1.543.227 2.226.48.228.38.961.228 1.366.633-1.999-.835-4.073.303-5.945-.683-.101-.177-.101-.582.228-.709.733.051 1.442.076 2.125.279zm-29.295-.48c.91.58 1.77 1.466 2.63 2.023-1.694-.607-3.642-1.518-5.438-1.822-.025-.48.354-.505.405-.96.126-.203.404 0 .556.05.658.202 1.215.531 1.847.708zm28.51-1.316c1.088.253 2.201.885 3.34 1.189-1.442.05-2.657-.633-4.174-.43-.253-.178-.633-.102-.81-.481.05-.203-.05-.329.076-.43.582-.05 1.012.228 1.569.152zm-28.055.227c.633.304 1.19.658 1.872.886l-.05.025c1.113.885 2.302 1.821 3.466 2.58-.152.683-.633 1.417-1.139 2.024-.329.607-.43 1.29-.582 1.973-.177.076-.202.279-.278.43-1.998.506-4.377 2.53-5.768 3.922-.227.581-.708 1.062-1.012 1.593-.025.633-.38 1.088-.43 1.695l-10.777.05c-.1-.682.279-1.036.683-1.618.785-.91 1.797-1.215 2.758-1.695.531-.228 1.164-.177 1.695-.354 1.29-1.847 2.783-3.415 4.3-5.186.102-.405.38-.709.532-1.063.38-1.796.86-3.744 1.467-5.49-.152-.733.759-.303 1.113-.354.683.253 1.442.38 2.15.582zm40.451-.632c-.354.38-1.037-.025-1.442.506-.86.48-1.72.936-2.53 1.594-.657.177-1.087-.228-1.644-.43.531-.304 1.392-.33 1.746-.835 1.24-.456 2.53-.81 3.87-.962v.127zm-29.446-.405c-.557.557-1.746.48-2.328 1.012-1.011.278-1.366 1.493-2.377 1.872-.507.025-1.164.177-1.518-.304-.178-.05-.481-.075-.481-.253.556.051 1.113-.177 1.644-.379.253-.278.658-.43 1.012-.582v-.126c.607-.304 1.113-.557 1.847-.683.734-.177 1.442-.43 2.2-.557zm28.41-1.012c-.659.329-1.519.278-2.151.76-1.19.201-1.847 1.365-3.01 1.567-.102-.227-.481-.05-.658-.176-.203-.102-.506-.203-.532-.456 1.265.253 1.822-1.088 2.91-1.265 1.189-.076 2.276-.43 3.44-.582v.152zm-29.6-.658c-.379.178-.682.304-1.163.355-1.315.733-2.63 1.745-3.845 2.706-.658.304-1.417.177-1.897-.328-.102-.026-.102-.127-.102-.203.279.076.456-.101.658-.177 1.214-.632 2.15-1.467 3.491-1.998.886-.076 1.923-.304 2.859-.355zm27.904-.91c-2.353-.152-3.213 2.833-5.667 2.2-.303-.151-.758-.05-1.011-.252.505-.33 1.391-.076 1.821-.76 1.543-.657 3.086-1.239 4.857-1.264v.076zm-31.141-.481c-.304.177-.734.228-.911.557-.101.025-.253-.026-.329.025-.835.607-1.265 1.77-2.251 2.302-.709.303-1.468 0-2.15-.202 0-.102.05-.177.126-.177.43-.203 1.189-.456 1.67-.81.379-.228.86-.683 1.24-.91.783-.456 1.643-.886 2.63-1.063.202.076-.025.177-.025.278zm-5.768-2.504c-.405.885-.734 1.77-1.088 2.681-.152.506-.354.961-.784 1.34-.101.052-.253 0-.304.153-.405.202-.506-.354-.91-.203.81-.784 1.29-1.644 2.2-2.504-.05-.43.355-.683.43-1.063.203-.05.254-.328.355-.455l.1.05zm-2.15-1.442c-.178.733-.405 1.543-.608 2.276-.227-.025-.329.228-.556.127-.557.556-.683 1.34-1.24 1.948-.126-.05-.202.05-.253.101-.53.05-1.163.05-1.391-.506.506-.076.658-.48 1.113-.734.885-.936 1.746-1.998 2.656-3.187.203-.278.33-.607.557-.86-.152.253-.026.683-.278.835zm33.266 1.745c1.847.127 3.795 0 5.313.962.177.227.48.151.683.354-1.872-.203-3.82.1-5.642.253-.81-.355-1.543-.886-2.327-1.24-.253-.127-1.973-3.466-1.822-3.188 1.493 1.645 1.771 2.227 3.795 2.86zm-35.822-3.794c-.177 1.011-.986 1.796-1.39 2.732-.304.455-.456.96-.886 1.366-.203.025-.38.126-.607.076-.102-.127-.38-.051-.532-.152a4.383 4.383 0 0 0-.43-.531c.76-.304 1.341-.76 2.075-1.19.81-.683 1.163-1.543 1.644-2.302h.127zm12.143-.152c.683.531 1.038 1.391 1.771 1.796.43.354.532 1.037.405 1.568-.152.43-.531.784-.48 1.29-.203-.025-.203-.278-.38-.379l-.127-1.113h.026c.025-1.24-1.088-2.1-1.341-3.162h.126zm27.878-.987c.178.835.355 1.847.709 2.682-.354-.33-.658-.734-1.063-.987-1.189-.784-.986-2.176-1.518-3.263l-.05-.304c.632.557 1.644.81 1.922 1.872zm-16.392-2.074c.379.657.758 1.442 1.163 2.226a5.61 5.61 0 0 0 .38 1.594c0 1.34 1.012 2.226 1.29 3.516a2.812 2.812 0 0 1-.228 1.543c-.076-.582-.303-1.189-.582-1.72-.075-.708-.834-1.164-1.24-1.72-.455-.608-.404-1.417-.505-2.15-.152-1.114-.076-2.15-.354-3.29h.075zm-6.881.025c.075.759.48 1.24.885 1.973.708 1.645 1.063 3.491.582 5.338-.177.632-.38 1.214-.456 1.821-.151-1.087.102-2.377-.227-3.415-.304-2.175-1.012-4.174-1.063-6.324.279.025.152.43.279.607zm19.883.177c.532 1.417 1.063 2.91 2.05 4.124-.886-.557-1.569-1.063-2.48-1.645-.48-1.214-1.29-2.226-2.023-3.415-.076-.101-.279-.05-.33-.228 1.114-.025 2.025.405 2.783 1.164zm-4.755-1.138c.404.253 1.441.632 1.366 1.34.025.886.48 1.62.607 2.404.101.354.405.683.556.986.228.076.38.43.633.43 0 .304.354.127.329.43.253.152.455.456.733.481-.025.38.38.456.506.759-1.164-.632-2.277-1.467-3.415-2.252-.278-.53-.987-1.062-1.037-1.77-.405-.633-.633-1.316-.86-2.024 0-.025-1.038-.91-1.012-1.063.658-.177 1.062.253 1.594.279zm-3.694-.203c.43.203.835.506 1.265.76.582.227.076.986.455 1.315-.278 1.29.481 2.605.481 3.87 0 .354.025.886-.101 1.29-.43-.986-.734-2.15-1.467-3.01-.33-1.164-.456-2.403-.86-3.491-.254-.455-.81-.531-.987-1.012.48-.076.733.329 1.214.278zm-2.605-.253c.91.481.935 1.67 1.29 2.48l.506 1.947c.328.76.834 1.29 1.163 2.075.05.835-.151 1.67.203 2.504l-.177-.025c-.178-.582-.481-1.138-.608-1.77-.151-.28-.505-.633-.733-.912-.81-1.189-1.594-2.327-1.62-3.82-.379-1.062-.935-1.947-1.669-2.808l-.38-.151c.81-.127 1.341.328 2.025.48zm-34.33 2.1c-.53.127-1.062.582-1.694.43a12.64 12.64 0 0 0 2.352-2.833l.38-.607a5.208 5.208 0 0 1-1.038 3.01zm21.276-3.44c1.214.227 2.555.227 3.82.126.759-.253 1.72-.127 2.53-.101.81.076 1.644.101 2.352.43.405 0 .633.506 1.038.48.682.734.708 1.797.607 2.809-.911 1.846 1.138 3.01.43 4.882-.38-.531-.228-1.518-.86-1.948 0-.253-.228-.506-.456-.683-.759-1.164.05-2.504-.076-3.845-.455-.48-.455-1.392-1.416-1.215-1.114 1.012-.785 2.96-.456 4.225.177.43.177 1.063.38 1.594-.102.43-.102.91-.33 1.316.026.733-.379 1.442-.202 2.124-.151-1.062-.05-2.327-.075-3.516-1.038-1.872-1.695-3.39-2.733-5.16-.48-.633-.556-.38-1.011-.456-1.898 2.454 1.087 4.857.151 7.564-.202-.936-.455-1.923-.885-2.783-.582-.506-.456-1.29-.835-1.922-.152-.633.05-1.493-.329-2.024-.025-.38-.38-.557-.683-.784l-.455-.127c-.38.203-.43.557-.658.835-.152 1.063-.303 2.252.278 3.188h-.126c-.304-.203-.228-.532-.506-.81-.38-1.189-.304-2.606-.759-3.896-.05-.506-.683-.303-.81-.759.684.203 1.341.43 2.075.456zm-14.04-.506c-.177.581-.405 1.062-.633 1.619-.506 1.138-1.594 2.1-2.327 3.162l-1.417 1.366c-.405.202-.986.177-1.366.05-.303-.227-.683-.354-.86-.607.835-.202 1.644-.38 2.378-.86.936-.784 1.847-1.77 2.606-2.681.328-.785.96-1.265 1.416-1.974.076-.025.127-.1.203-.075zm9.866-.709c.48.354 1.113.76 1.29 1.392.202.986-.43 1.821-.708 2.706 0 .936.632 1.62.708 2.53-.152 1.468-.81 2.707-1.467 3.947-.152 1.518-1.771 2.1-2.404 3.39h-.126c.38-1.341 1.847-2.075 2.074-3.466.228-1.113.48-2.226.658-3.39 0-.354-.303-.607-.354-.936-.203-.127-.456-.253-.734-.152-.531.228-.936.633-1.315 1.088-.05-.48.404-.784.48-1.24.506-.43.582-1.037 1.114-1.442.252-.581.227-1.264.53-1.821.051-.86.127-1.847.077-2.606h.177zm-1.215-.86c.076.278.481.354.405.734.203.227-.05.582-.076.81-.986 1.214-1.619 2.858-2.302 4.25-.025.758-.632 1.441-.91 2.175-.152.278-.456.506-.734.531.708-1.821 1.24-3.794 2.1-5.666.177-.633.53-1.417.177-2.075-.33-.101-.456-.354-.734-.531-.177.86-.708 1.568-.81 2.58-.328 1.19-.96 2.226-1.492 3.289-.253.733-.708 1.29-1.214 1.897h-.152c.455-.885.683-1.872 1.088-2.783.126-.581.328-1.011.48-1.644a1.456 1.456 0 0 0-.126-.733c-.633-.152-.607.834-1.215.682-.177-.455.228-.683.228-1.113.43-1.011.76-2.074 1.341-2.985.835-.657 2.125-.303 2.985 0l.961.582zm-19.833-.405c.228.203.354.405.582.76.354.353.329.935.506 1.365-.076.683-.278 1.366-.86 1.797 0 .227-.203.455-.38.53-.582.152-1.138.355-1.745.38-.48.076-1.113-.227-1.645-.227v-.127l1.569-.101c.658-.557 1.72-.557 1.998-1.569.102-.784.43-1.947-.506-2.453-.48-.43-.986-.785-1.619-.86-.075-.077-.075-.152-.05-.203.759.177 1.492.329 2.15.708zm2.403-.936c.101.203.253.38.43.557.127.81.203 1.619-.151 2.403-.304.405-.709 1.037-1.114 1.442l-.075-.076c.151-.885.683-1.695.48-2.656-.354-.43-.405-1.037-.885-1.316-.557-.48-1.316-.657-2.024-.91-.076.202-.405.05-.582.101v-.177c.152.025.405.025.48-.127.81.102 1.519-.455 2.252 0 .203.051.38.178.607.203l.582.556zm11.915-.404c.33.505.355 1.366.152 1.922.076.405-.278.633-.227 1.037-.33.304-.355.86-.658 1.24-.38-.05-.101-.506-.228-.734-.582 1.164-1.518 2.15-2.074 3.314-.177.152-.253.43-.506.43-.127-.758.708-1.264.683-2.049.253-.076.177-.581.43-.81.025-.783.632-1.29.683-2.099.43-.784.253-1.847.304-2.757-.228-.203-.102-.532-.33-.734h.178l1.593 1.24zm-9.005-1.392c.252.405.404.91.81 1.29.024.405.201.962.328 1.265h.177c-.202 1.012.228 2.125-.202 3.036-.177.38-.127.91-.481 1.164l-.127-.177c.38-1.038.152-2.328-.126-3.365 0-.177-.177-.228-.329-.278-.556.531-.91 1.189-1.24 1.821-.126.101-.328 0-.43.152.076-.329.228-.43.33-.708.025-.43.075-.86.303-1.215.076-.936.177-2.049.127-2.884l.303-.43c.101.203.38.203.557.33zm6.4-.126c0 .986-.759 1.644-.81 2.605l-.556 1.164c-1.417 1.037-1.973 2.859-3.238 4.098-.304.456-.886.962-1.417 1.063.81-.633 1.366-1.594 1.847-2.454.329-1.24.43-2.606.835-3.795.53-.43.986-.986 1.315-1.568.101-.05.177.05.203.126l-.076 1.139c.151-.026.227.202.354.076.253-.253.202-.582.38-.81-.051-.683-.026-1.467.43-1.998.353-.127.733-.076.733.354zm-13.13-.203l.076.127c-1.24.708-2.504 1.29-3.744 2.175 0-.151-.152-.505.127-.581 1.24-.456 1.846-2.404 3.44-1.948l.101.227zm9.841-2.023c-.025.278-.126.53-.101.834-.177.405-.506.557-.632.936-.228.279-.481.405-.785.582-.076-.784.785-1.34.354-2.074-.202-.279-.303-.557-.53-.76.075-.328.53-.176.834-.252.38.101.81.303.86.733zm1.366.126c-.025.354.05.633.203.91-.355.734-.203 1.923-1.088 2.43h-.582c-.202-.178-.354-.33-.405-.633.405-.91 1.012-1.771 1.088-2.859-.076-.329-.127-.632-.253-.961.734-.025.683.708 1.037 1.113zm-.43-2.15c.582.657 1.341 1.24 1.366 2.125-.05.025-.126-.026-.177.05.203.026.152.253.203.355 1.011.404 2.2.278 2.96 1.214.758.253 1.29 1.138 2.023 1.518 1.139.1 2.378-.026 3.466.253 1.088.81 2.302 1.366 3.491 2.049l2.454.708c2.681.278 5.439.025 8.12-.076 1.72-.05 3.441.531 5.035 1.012 1.745.38 3.794.278 5.641.177 1.139.101 2.378.203 3.44.38.835.151 1.696.253 2.48.43v.126c2.074.177 2.403 2.125 4.174 2.91.177.176.177.581.48.581.734.835 1.62 1.417 2.43 2.15l2.428.835c1.265.279 2.782.178 4.073.102.404-.33.885-.582 1.34-.658.152-.633.936-.658 1.012-1.341.86-.632.709-3.238.405-3.972-.076-.506-.658-.81-.658-1.34-1.214-1.341-2.504-2.328-4.073-3.213a48.54 48.54 0 0 0-2.1-.886 81.796 81.796 0 0 0-5.64-.632c-2.505-.101-4.655.354-7.084.405h-6.628l-2.252-.43c-.48-.203-.556-.279-1.011-.532-1.442-.506-2.783-1.24-4.326-1.517a3.002 3.002 0 0 0-.582-.405c.126-.43.683-.304.885-.734.38.05.607-.228.936-.228l2.176.026c1.34.303 2.605.784 3.82 1.416 1.568.228 3.086.936 4.756.481 2.757-.354 5.54-.38 8.323-.48 1.745.151 3.541.176 5.236.455 4.3 1.062 9.588 2.96 11.055 7.614 1.417 4.959-3.87 9.563-8.854 8.298-1.214-.101-2.251-.531-3.364-.91.076 1.138.91 2.124 1.34 3.263.38 1.796 1.114 3.212 1.797 4.958.733.81 1.29 1.923 2.175 2.656.177.886 1.215.582 1.695 1.215.86.379 1.897.505 2.859.708 0 .632.303 1.113.354 1.72.354 1.29 1.088 2.429 1.644 3.77-.531 1.366-1.973 2.555-2.327 4.098l-9.537.05c.025-1.24.48-2.378 1.543-3.111 1.189-.608 2.353-1.265 3.794-1.29.102-.051.026-.152.051-.228-.278-.33-.607-.658-.734-1.063-.53-.607-1.24-1.24-1.67-1.922-2.099-.911-3.87-2.252-5.818-3.415-.48-.33-.632-.835-1.037-1.215-1.113-.86-2.2-1.695-3.213-2.833a20.87 20.87 0 0 0-5.515-2.403c-3.718-.203-6.248.404-9.334 1.467a9.688 9.688 0 0 1-3.972.152c-.38-.506-.456-1.139-.709-1.695.076-.456-.48-.557-.733-.886-1.24-.354-2.505-1.416-3.542-2.378.33.203.228.936.683 1.063.557.784 1.392 1.265 2.1 1.745.303.026.556.127.734.38.025 1.467.81 2.53 1.037 3.972.885 1.34 1.088 3.06 2.226 4.477.329.279.455 1.037.86 1.366l.506.48.05 5.314c.127.43.102.885.405 1.264.33-.05.506-.455.709-.708.329-.734.582-.734 1.062-1.391.81-.506 1.822-1.088 2.631-.962.506.076.734-.455 1.215-.506.607-.632 1.366-1.695 2.276-1.948.506-.48.835-.607 1.442-1.214-.227-1.315-1.062-2.58-1.265-4.022.076-1.594-.885-3.213 0-4.63-.126-.329.304-.202.456-.303.961.101 1.922.126 2.808.455 1.265.152 2.2.86 3.339 1.265.708.582 1.391 1.391 2.226 2.024.05.329.531.455.506.683-.506.405-.405 1.113-1.037 1.391-.784 1.24-1.24 2.631-1.644 4.023 0 .505-.228.936-.279 1.391-.53.885-1.492 1.063-1.67 1.214-1.492 1.113-1.694 2.808-3.136 3.87H39.814c.936-3.566 2.783-3.161 3.997-3.794.177-.48.253-1.214.531-1.644.203-.456-.126-.633-.48-.76-1.088-1.188-2.05-2.706-3.29-3.82-.455-.834-1.365-1.213-2.074-1.745-1.67-.81-3.39-1.745-4.705-3.288-.228-.05-.278-.354-.43-.532-1.923-1.214-4.098-1.694-6.122-2.605-1.822-1.215-3.137-2.682-4.781-4.124l-1.164-2.403c-.91-.607-2.1-.835-2.682-1.847-.986-.455-2.175-.076-3.06-.733a.53.53 0 0 0-.102-.152c.278-.152.531-.279.86-.304.279-.48.683-.733 1.113-.961.102-.076.076-.228.076-.329-.202-.126-.354-.455-.683-.354-1.72 2.125-.936.733-3.137 1.897-.81-.025-1.72.279-2.428-.126-.405 0-.354-.38-.531-.633.227-.556-.102-1.189 0-1.846.126 0 .227.025.328-.026-.1-.076-.227-.05-.328-.1-.076-.305.1-.507.328-.71.33.228-.1 1.114.633.86.253.304.556-.025.835-.025.38 0 .91.076.961-.404.354-.101.86-.405.936-.835.127-.43.253-.86.202-1.391-.177-.355-.48-.456-.657-.886-.279.05-.557-.05-.81-.126-1.189-.127-2.2.227-3.34.202l-.43-.177c.28-.86.153-.961.026-1.594.455-.253.81-.683 1.113-1.088 0-.025.127-1.113.101-1.366.532-.328.683-.38 1.164-.607 1.34-.253 2.226.456 3.44.48.734.178 1.392.481 2.201.481.152.152.43.051.582.253h.506a3.663 3.663 0 0 1-.126-1.214c-.228-.303-.734-.405-.987-.506-1.062.203-2.2.203-3.34.203.203-.102.153-.557.507-.582.303-.177.455-.607.835-.582.506-.455 1.34-.228 1.998-.354 1.392.227 2.859.101 4.351.177.456-.278.886-.557 1.442-.607.354-.38.81.1 1.265 0zM9.431 50.03c0 .506-.075.936-.48 1.265-.33.101-.785.405-1.113.05h.025c-.025-.253-.127-.53-.127-.885.203-.43.835-.405 1.114-.607.252-.05.404.05.581.177zm2.733 4.958c-.33.102-.279-.253-.481-.38-.177.304.05.785-.203 1.114-.328-.177-.48-.607-.657-.91-.354.151-.203.581-.38.91-.177-.076-.38-.228-.404-.43-.102-.228-.304-.456-.304-.76l2.53-.1c.025.177 0 .404-.101.556zm1.568 1.038c-.329.682-.91 1.492-1.821 1.492v-.683c.455-.582 1.087-.81 1.821-.81z" id="path24" fill="#fff500"/><path class="fil5" id="polygon26" fill="#e77817" d="M29.728 114.838l-.245-.113-.147.059.392.054z"/><path class="fil5" id="polygon28" fill="#e77817" d="M65.533 114.838l.244-.113.147.059-.391.054z"/></g></svg>