<svg xmlns="http://www.w3.org/2000/svg" version="1.0" width="489" height="600" id="svg2181"><g id="g5105" transform="scale(1.00034 .99927)" fill-rule="evenodd"><path id="_128635016" d="M488.548.286v506.921c0 32.328-25.957 58.37-58.18 58.37H300.582c-25.509.898-46.096 9.43-57.732 34.573-12.53-24.246-21.034-32.777-57.284-34.573h-127.1c-32.223 0-58.18-26.042-58.18-58.37V.287h488.262z" fill="#d1d3d4" fill-opacity="1" stroke="#000" stroke-width=".567" stroke-miterlimit="4" stroke-dasharray="none" stroke-opacity="1"/><path id="_129012848" d="M244.883 121.982c107.843 0 195.3 87.457 195.3 195.298 0 107.844-87.457 195.3-195.3 195.3-107.843 0-195.3-87.456-195.3-195.3 0-107.841 87.457-195.298 195.3-195.298h0z" fill="#fff" stroke="#1f1a17" stroke-width=".743"/><path id="_128637832" transform="translate(-817.414 -1293.998) scale(9.78102)" d="M108.608 151.606c7.25 0 13.129 5.88 13.129 13.129 0 7.25-5.88 13.128-13.129 13.128-7.25 0-13.129-5.879-13.129-13.128 0-7.25 5.88-13.129 13.129-13.129zm0-1.563c8.113 0 14.692 6.58 14.692 14.692s-6.58 14.691-14.692 14.691c-8.113 0-14.692-6.579-14.692-14.691 0-8.113 6.58-14.692 14.692-14.692z" fill="#f2da00"/><path id="_129015144" transform="translate(-817.414 -1293.998) scale(9.78102)" d="M121.181 168.522a13.054 13.054 0 0 1-.987 2.39H97.022c-.288-.54-.54-1.102-.753-1.684l.265.06c1.64-1.057 3.168-1.66 4.959-2.336.683.46 1.35.715 1.907 1.43 1.525-.451 2.849-.83 4.374-1.282.509-.15 1.03-.444 1.68-.523 1.526.286 2.893.728 3.91 1.396.529-.259 1.09-.549 1.874-1.062 2.038.943 4.012 1.226 5.943 1.611z" fill="#066c4b"/><path id="_129018048" transform="translate(-817.414 -1293.998) scale(9.78102)" d="M120.194 170.912c-2.21 4.136-6.57 6.952-11.586 6.952s-9.376-2.816-11.586-6.952h23.172z" fill="#282074"/><path id="_129018968" transform="translate(-817.414 -1293.998) scale(9.78102)" d="M116.639 175.119c-.453.351-.93.673-1.428.964a1.799 1.799 0 0 1-.233-.153c-.275.246-.9.534-1.35.534-.58 0-1.324-.299-1.736-.534-.33.257-1.042.534-1.563.534-.521 0-1.196-.297-1.563-.534-.35.237-1.183.534-1.775.534-.521 0-1.131-.238-1.565-.534-.492.296-1.028.534-1.542.534-.66 0-1.475-.238-1.982-.534a2.37 2.37 0 0 1-.071.05 13.166 13.166 0 0 1-1.271-.874c.437-.062.856-.283 1.342-.517.608.303 1.248.534 1.872.534.55 0 1.145-.257 1.652-.534.52.297 1.083.534 1.624.534.541 0 1.13-.191 1.624-.534a3.148 3.148 0 0 0 1.677.534c.493 0 1.045-.241 1.48-.534.471.266 1.18.534 1.77.534.459 0 .996-.16 1.377-.534.438.304 1.033.534 1.55.534.037 0 .073-.001.111-.004zm2.713-2.84c-.3.427-.627.837-.976 1.225a.912.912 0 0 1-.19-.108c-.42.43-1.07.594-1.604.594-.535 0-1.245-.281-1.604-.594-.275.274-.9.594-1.35.594-.58 0-1.324-.333-1.736-.594-.33.285-1.042.594-1.563.594-.521 0-1.196-.33-1.563-.594-.35.264-1.183.594-1.775.594-.521 0-1.131-.264-1.565-.594-.492.33-1.028.594-1.542.594-.66 0-1.475-.264-1.982-.594-.46.374-1.053.594-1.58.594-.526 0-1.118-.264-1.579-.594-.325-.37-.63-.759-.912-1.164.313-.103.62-.221.912-.328.588.337 1.053.594 1.58.594.526 0 1.007-.288 1.579-.594.608.337 1.248.594 1.872.594.55 0 1.145-.286 1.652-.594.52.33 1.083.594 1.624.594.541 0 1.13-.213 1.624-.594.464.357 1.118.594 1.677.594.493 0 1.045-.268 1.48-.594.471.296 1.18.594 1.77.594.459 0 .996-.177 1.377-.594.438.338 1.033.594 1.55.594.517 0 1.138-.308 1.55-.594.27.124.742.262 1.274.374z" fill="#fff"/><path id="_129022192" transform="translate(-817.414 -1293.998) scale(9.78102)" d="M108.608 148.246c9.105 0 16.489 7.384 16.489 16.488 0 9.105-7.384 16.49-16.489 16.49s-16.489-7.385-16.489-16.49c0-9.104 7.384-16.488 16.489-16.488zm0-3.479c11.026 0 19.967 8.942 19.967 19.968 0 11.025-8.941 19.967-19.967 19.967-11.026 0-19.967-8.942-19.967-19.968 0-11.025 8.941-19.967 19.967-19.967z" fill="#282878"/><path id="_129022968" d="M404.065 450.322c-.716-7.76 1.013-16.822 5.05-24.087 5.153 4.036 10.058 16.935 9.458 18.176-3.086 6.386-10.385 2.405-14.508 5.91zm-53.943-62.091c-7.398-2.757-14.824-.556-19.367 5.197-3.144 3.981 1.345 8.043 6.058 11.348 4.968-5.214 9.253-10.61 13.309-16.545zM85.38 448.825c.435-7.76-1.33-16.187-5.366-23.453-5.153 4.037-9.354 15.668-8.755 16.908 3.087 6.386 9.894 2.512 14.121 6.545zm66.726-44.842c-4.892-5.253-8.781-10.144-12.747-16.157 7.398-2.757 14.19-1.013 18.734 4.74 3.144 3.98-1.276 8.113-5.987 11.417zm236.228 48.588c3.652 2.636 11.044 12.575 7.93 16.209-4.078 4.753-17.236 2.603-24.811-.373 5.646-4.857 11.845-10.366 16.881-15.836zm-269.842 16.17c-6.754-5.56-12.998-11.734-17.307-16.435-3.615 2.636-10.928 12.656-7.844 16.29 4.036 4.753 17.651 3.121 25.151.145z" fill="#47a5ae" fill-opacity="1" stroke="#fff" stroke-width="3.003" stroke-miterlimit="4" stroke-dasharray="none" stroke-opacity="1"/><path id="_129021688" transform="translate(-817.414 -1293.998) scale(9.78102)" d="M117.292 152.3a9.168 9.168 0 1 1-18.165 0c1.204 3.871 4.816 6.683 9.083 6.683s7.878-2.812 9.082-6.683zm-9.082-8.87a7.082 7.082 0 1 1-.002 14.164 7.082 7.082 0 0 1 .002-14.164zm.1-.316c.281-.417.79-.804 1.142-.821 1.043-.05 1.918-.371 2.323-1.316.435-1.015-.315-1.863-.414-2.297-.06-.263.07-.55 0-.81-.062-.235-.312-.388-.381-.62a3.608 3.608 0 0 1-.14-.81c-.19.238-.419.416-.48.714-.078.38.266.766.19 1.145-.062.311-.485.483-.638.762-.085.157-.016.362-.02.565-.002.113-.134.264-.255.28-.131.015-.293-.075-.309-.285-.008-.108.03-.232.03-.321 0-.307.349-.659.319-.964-.063-.634-.695-.789-.843-1.325-.118-.43.18-.894.112-1.334-.047-.302-.267-.581-.38-.843-.077-.176-.062-.366.015-.556-.449.22-.857.718-.98 1.16-.097.355.334.728.328 1.097-.011.584-.79.912-.906 1.478-.11.533.382 1.21.42 1.574.021.214.004.394-.23.428a.415.415 0 0 1-.428-.265c-.058-.2.09-.477 0-.64-.157-.282-.459-.497-.525-.811-.07-.33.125-.665.143-1.002.018-.336-.24-.62-.49-.86.013.191-.008.495-.098.67-.152.293-.482.525-.572.843-.08.276.176.451.055.712-.163.351-.674.754-.611 1.448.114 1.252 1.089 2.074 2.38 2.146.438.024.91.572 1.243.858z" fill="#ffcb05" fill-opacity="1"/><path id="_129030520" transform="translate(-817.414 -1293.998) scale(9.78102)" d="M97.243 168.948l2.92-1.333 1.24-.454-.43 2.001-.108-.786-1.744.894.43-.787-2.308.465zm14.163.61l2.99-2.057.849-.454-.294 2.002-.074-.787-1.193.894.294-.786-2.572 1.189zm-8.428-.852l5.033-1.495 1.312-.534-.84 2.699.125-1.484-2.78 1.457 1.028-1.35-3.878.707z" fill="#00923f"/><path id="_129031656" d="M455.248 420.804c-2.897-3.197-7.553-7.028-10.451-11.025-8.891 12.589-16.54 25.687-26.01 37.271-5.266 6.441-13.741.383-14.492 6.124 3.692 25.182 11.714 30.438 19.481 36.867 9.46-23.08 20.404-46.159 31.472-69.237h0zm-9.676-15.505c-8.401 11.402-18.075 27.257-26.477 38.66.374-14.712-29.564-37.016-49.136-47.062-11.793-6.052-28.14-15.704-39.607-3.89 8.601-17.203 17.203-34.116 25.804-51.319 8.06-1.898 25.413 4.577 40.808 10.202 27.683 10.115 60.61 34.406 48.608 53.41zM34.26 419.941c2.897-3.197 7.62-7.902 10.518-11.898 8.892 12.588 15.669 26.786 26.122 38.11 4.245 4.598 13.308-.414 14.313 6.159-3.692 25.18-11.716 30.437-19.482 36.865-9.46-23.08-20.403-46.157-31.471-69.236h0zm9.675-15.505c8.402 11.402 18.076 27.257 26.476 38.659-.373-14.71 29.566-37.014 49.137-47.06 11.792-6.053 27.085-15.283 38.552-3.468-8.602-17.203-16.147-34.54-24.75-51.742-8.06-1.898-25.412 4.576-40.806 10.201-27.684 10.117-60.611 34.407-48.609 53.41h0zm200.237 107.019c40.1 0 77.987 5.601 117.992 16.802 4.445-9.335 8.245-18.998 13.335-28.004 5.035-8.908 12.527-19.07 18.183-27.605-5.522 2.4-13.324 1.825-18.587 0-36.325-12.598-78.452-23.204-130.925-23.204-51.952 0-93.658 10.606-129.623 23.204-5.211 1.825-12.935 2.4-18.403 0 5.601 8.534 13.018 18.697 18.003 27.605 5.04 9.006 8.802 18.67 13.203 28.004 39.607-11.2 77.115-16.802 116.822-16.802h0z" fill="#47a5ae" fill-opacity="1" stroke="#fff" stroke-width="3.003" stroke-miterlimit="4" stroke-dasharray="none" stroke-opacity="1"/></g></svg>