<svg height="900.013" width="756.787" xmlns="http://www.w3.org/2000/svg"><path d="M2.565 2.56v709.532c0 51.89 42.066 93.955 93.956 93.955h187.912c51.89 0 93.955 42.066 93.955 93.956 0-51.89 42.066-93.956 93.956-93.956h187.912c51.89 0 93.956-42.065 93.956-93.955V2.56H2.565z" fill="gold"/><path d="M2.565 2.56v709.532c0 51.89 42.066 93.955 93.956 93.955h187.912c51.89 0 93.955 42.066 93.955 93.956 0-51.89 42.066-93.956 93.956-93.956h187.912c51.89 0 93.956-42.065 93.956-93.955V2.56H2.565z" stroke="#000" fill="none" stroke-width="5.131"/><path d="M688.852 510.604H54.566" stroke="#000" stroke-linejoin="round" fill="none" stroke-width="4.275" stroke-linecap="round"/><path d="M180.697 633.782c-7.409 0-11.107 3.149-12.48 7.108l-33.282 50.706c2.07-1.868 5.247-3.087 9.847-3.087h83.106c6.2 0 11.216-2.405 14.35-5.785 3.134-3.38 4.39-7.724 3.046-11.598l-12.947-37.344h-51.64zm-89.013 73.82L55.77 762.33h90.027c2.923 0 6.154-2.888 8.284-6.414 2.13-3.525 3.16-7.69 1.697-10.221l-11.01-19.04-11.01-19.053zm155.324-242.184c-3.267-.026-6.485 2.72-8.752 6.346L202.89 525.65c2.566-3.697 6.137-6.229 9.607-5.318l82.946 21.779 82.946 21.779v-64.16l-47.03-12.347-82.947-21.778a5.695 5.695 0 0 0-1.403-.187z" stroke="#000" stroke-linejoin="round" fill="red" stroke-width="2.993" stroke-linecap="round"/><path d="M144.782 688.51c-10.773-1.601-16.959 11.356-10.74 19.583a91609.44 91609.44 0 0 0 21.736 37.602c2.408 5.306-4.232 13.973 1.412 5.484 11.15-17.133 22.567-34.105 33.55-51.338 2.879-3.932 2.084-13.308-4.405-11.332h-41.553zm66.311-168.365c-9.164 1.625-14.35 13.892-10.495 22.104l44.686 128.877c1.043 5.376-1.4 9.492 2.478 3.223 10.98-16.566 22.076-33.058 32.983-49.671 2.874-7.452-2.431-14.547-4.187-21.664-8.375-24.154-16.748-48.308-25.127-72.46-13.457-3.412-26.825-7.285-40.338-10.409z" stroke="#000" fill="#8b0000" stroke-width="2.993"/><path d="M576.08 633.782c7.409 0 11.107 3.149 12.48 7.108l33.282 50.706c-2.07-1.868-5.247-3.087-9.847-3.087H528.89c-6.2 0-11.216-2.405-14.35-5.785-3.134-3.38-4.39-7.724-3.047-11.598l12.947-37.344h51.641zm89.013 73.82l35.914 54.728H610.98c-2.923 0-6.154-2.888-8.284-6.414-2.13-3.525-3.16-7.69-1.697-10.221l11.01-19.04 11.01-19.053zM509.769 465.418c3.267-.026 6.485 2.72 8.751 6.346l35.367 53.886c-2.565-3.697-6.136-6.229-9.606-5.318l-82.946 21.779-82.947 21.779v-64.16l47.032-12.347 82.946-21.778a5.695 5.695 0 0 1 1.403-.187z" stroke="#000" stroke-linejoin="round" fill="red" stroke-width="2.993" stroke-linecap="round"/><path d="M611.995 688.51c10.773-1.601 16.959 11.356 10.74 19.583a91609.44 91609.44 0 0 1-21.736 37.602c-2.408 5.306 4.232 13.973-1.412 5.484-11.15-17.133-22.567-34.105-33.55-51.338-2.879-3.932-2.084-13.308 4.405-11.332h41.553zm-66.311-168.365c9.164 1.625 14.35 13.892 10.495 22.104-14.895 42.96-29.79 85.918-44.687 128.877-1.042 5.376 1.402 9.492-2.477 3.223-10.98-16.566-22.076-33.058-32.983-49.671-2.874-7.452 2.431-14.547 4.187-21.664 8.375-24.154 16.748-48.308 25.127-72.46 13.457-3.412 26.825-7.285 40.338-10.409z" stroke="#000" fill="#8b0000" stroke-width="2.993"/><path d="M681.767 58.944c-.022.041-.078.162-.093.187-.044.073-.07-.032.093-.187z" font-family="Sans" fill="red"/><path d="M54.981 504.005c1.158 0 2.135.32 2.672.641.27.16.387.3.428.347l.601 3.555v1.99c0-.408-.026.16-.654.668-.628.51-1.647.976-3.047.976-2.553 0-4.088-1.686-4.088-4.089 0-.947.486-1.983 1.376-2.819.89-.836 2.12-1.27 2.712-1.27zm638.892 0c.593 0 1.822.433 2.712 1.27.89.835 1.376 1.87 1.376 2.818 0 2.403-1.535 4.089-4.088 4.089-1.4 0-2.419-.467-3.047-.976-.628-.509-.655-1.076-.655-.668v-1.99l.602-3.555c.041-.048.159-.186.427-.347.538-.321 1.514-.641 2.673-.641z" font-family="Sans"/><path d="M247.382 400.041c-62.033 34.488-123.82 69.427-185.734 104.124-.34-2.003-3.106-3.821-6.667-3.821-3.56 0-7.75 3.47-7.75 7.75 0 4.28 3.298 7.749 7.75 7.749 4.453 0 7.362-3.019 7.362-5.305 0 0 163.384-81.536 192.361-93.955 16.163-6.928 47.468 8.766 42.328 42.93h154.79c-5.14-34.164 26.164-49.858 42.328-42.93 28.977 12.419 192.36 93.955 192.36 93.955 0 2.286 2.91 5.305 7.363 5.305 4.452 0 7.749-3.47 7.749-7.75 0-4.28-4.189-7.75-7.75-7.75-3.56 0-6.327 1.82-6.667 3.822-61.913-34.697-123.052-70.828-185.733-104.124-32.241-17.125-74.128 17.491-74.128 47.38H321.51c0-29.318-42.73-64.836-74.128-47.38z" stroke="#000" stroke-width="3.421"/><path d="M247.382 400.041c-62.033 34.488-123.82 69.427-185.734 104.124-.34-2.003-3.106-3.821-6.667-3.821-3.56 0-7.75 3.47-7.75 7.75 0 4.28 3.298 7.749 7.75 7.749 4.453 0 7.362-3.019 7.362-5.305 0 0 160.965-88.49 189.942-100.909 16.164-6.927 58.654 11.94 53.515 46.104h137.859c-5.14-34.163 36.746-53.031 52.91-46.104 28.977 12.419 189.941 100.91 189.941 100.91 0 2.285 2.91 5.304 7.363 5.304 4.452 0 7.749-3.47 7.749-7.75 0-4.28-4.189-7.75-7.75-7.75-3.56 0-6.327 1.82-6.667 3.822-61.913-34.697-123.052-70.828-185.733-104.124-32.241-17.125-74.128 17.491-74.128 47.38H321.51c0-29.318-42.73-64.836-74.128-47.38z" fill="red"/><path d="M120.35 466.907l-12.826 12.827H47.238l12.827-12.827zm0-6.025l-12.826-12.827H47.238l12.827 12.827z" stroke="#000" fill="#fff" stroke-width="1.496"/><path stroke="#000" fill="red" stroke-width="2.141" d="M57.696 460.663H641.99v6.036H57.696z"/><path d="M359.683 413.336c1.865-11.177 17.18-1.115 25.974 4.596zm6.307 9.834l5.45-5.078 19.936 6.574z" fill="red"/><path d="M41.994 25.194c-.781.012-1.53.195-2.285.548-15.935 7.439 25.654 46.39 25.654 46.39-4.624-.807-11.755-6.475-13.936-1.377-5.473 12.798 25.191 37.178 38.093 45.629 0 0-18.426-8.834-21.806-2.352-5.438 10.431 35.06 36.343 35.06 36.343-7.975.204-9.477 3.627-9.34 5.852.907 14.615 27.37 24.31 44.186 36.69-19.318 7.648 19.599 30.866 31.212 32.921-19.168 9.333 27.19 31.252 45.32 34.633-16.231 13.399 51.38 40.205 102.615 35.7 1.626 2.851 3.194 5.702 3.634 8.552l-231.095 2.779c-.29 8.432-.498 16.817 7.482 20.523l61.996-4.917-59.217 6.627c-1.435 7.54 1.862 13.01 6.841 17.744l60.5-10.903-58.362 13.04c1.424 6.32 1.776 13.353 8.979 15.82l42.97-11.33-41.901 13.254c1.054 4.736.48 9.704 6.84 13.682l49.384-16.675-47.46 18.813c.237 4.934 1.882 9.493 8.124 12.826l45.321-18.598-44.466 21.164c.9 4.03 3.177 7.887 10.476 11.116l38.266-19.454-38.053 21.592c2.001 5.742 3.322 11.867 11.544 14.11l104.538-67.768 18.84 7.696 7.455-10.048c-3.82 7.083-7.7 14.105-11.33 21.378l13.895 1.069-4.703 2.138-7.268 11.971s1.963 2.715 3.62 2.405c9.116-1.704 18.25-1.215 17.985-.975-10.022 5.427-12.204-2.76-15.112 13.601 6.268.451 11.93-.605 17.837-1.055-.4 4.048-1.429 7.99-4.235 11.638 5.744.243 11.492.05 17.236-1.51l-7.416 11.784 8.324-2.271c2.502 1.25 5.695 1.642 8.993 1.897 2.025 3.689 3.872 7.309 10.047 8.23l1.216 4.383c-5.805.942-7.62 1.791-8.095 5.3 2.673-1.415 7.654 6.963 7.748 12.617.078 4.746-6.01 9.86-6.685 9.186.673 1.36 3.176 3.943 4.654 4.296 1.36 4.46 6.476 8.738 11.223 8.765 3.406.019 8.426-3.328 8.124-6.2 3.206-.018 6.413-.288 9.62-2.886 7.963 3.634 14.622-2.85 15.125-8.765.25-11.656 4.13-24.282-12.24-22.553-2.32-2.618-4.86-4.978-10.26-3.955l-12.507-30.143 13.682.214-5.344 10.261 12.185.641-4.49 7.162 13.683 4.703 5.665 7.696 3.313.535 1.924 5.558c-.992.585-3.788-.26-4.49 2.819 4.87-.565 6.923 6.721 6.428 12.413-.281 3.221-3.204 7.93-6.32 9.433-.324 2.717 4.845 5.858 6.787 7.776 3.624 7.565 8.961 4.677 13.361 2.886 6.868-.872 7.485-2.016 9.567-4.008 8.367 2.926 14.62 1.211 18.76-12.293 3.431-11.197-1.046-24.14-14.591-21.485l-12.4-1.924-16.66-44.305c74.06 1.694 88.57-14.056 115.186-25.386 40.185-5.827 56.282-19.166 80.42-23.583 18.417-3.37 26.067 12.094 43.465 5.96-4.553-4.12-12.865-8.904-17.13-13.015 4.455.172 15.927 2.365 15.927 2.365-2.03-4.86-7.72-8.353-12.813-12.065 7.003-2.438 19.074-3.11 28.98-5.652 4.628-1.187 14.123 5.933 14.123 5.933-3.96-9.207 4.79-22.78-25.84-22.835-1.097-2.055-5.354-2.978-12.092-3.02-5.554-2.639-11.475-7.572-16.328-7.856-22.647-1.324-56.869 8.401-64.254-3.18l1.07 5.893-10.436-5.585 6.347 12.092-79.058-.455c-3.697.297-18.077-11.779 11.036-26.147 24.815-12.248 41.132-.268 50.038 4.382 26.333 13.75 55.298-4.903 77.695-27.056 3.772-1.715 14.43 1.22 15.726-3.942 1.088-4.332-3.411-3.4-5.598-9.366 23.07-34.784 49.324-63.48 73.566-94.103 1.94-2.45-.604-7.183-5.839-6.2 0 0 52.058-94.91 32.187-111.485-9.013-7.519-17.422 31.413-19.64 31.906 0-8.616 2.67-26.384-1.524-32.801-5.526-8.457-10.948 14.825-25.386 42.622.423-11.913.771-26.851-5.451-27.51-5.055-.536-15.255 24.851-22.821 37.638 0 0 2.504-16.607-3.928-21.164-5.613-3.978-28.52 44.94-30.53 45.802 1.813-8.617 2.1-19.627-.91-22.981-6.654-7.417-26.774 38.924-30.089 42.034 0 0 2.703-14.094-2.258-18.452-6.854-6.022-18.01 22.38-32.2 38.253.826-4.132 2.725-14.898-2.418-16.474-8.797-2.696-17.13 27.106-80.568 81.022-2.323-4.484-25.759 23.002-38.547 34.004l.147-14.056c23.458-23.268 22.453-43.693 11.784-58.656-21.773-30.536-49.828-26.308-61.969-29.621-2.592-3.757-10.873-11.317-11.49-6.2-.31 2.574-.435 5.06-1.51 8.017-52.109-7.995-93.84-16.191-149.058-50.185-5.907-3.636-6.654 7.23 0 15.42C71.742 62.171 53.717 25.011 41.994 25.193zm296.31 358.854h6.735l-4.917 6.841zm3.1 9.94h9.835l-5.666 10.262z"/><path d="M653.789 440.58l8.792 17.128h-20.59v11.945h20.59l-8.792 17.13 40.017-23.102-40.017-23.102z" stroke-linejoin="round" fill="#fff" stroke-width="1.496" stroke-linecap="round" stroke="#000"/><path d="M249.786 503.343v255.865c0 17.664 14.32 31.984 31.983 31.984h63.966c17.664 0 31.984 14.319 31.984 31.983 0-17.664 14.319-31.983 31.983-31.983h63.966c17.664 0 31.983-14.32 31.983-31.984V503.343H249.786z" stroke="#000" fill="gold" stroke-width=".32"/><path d="M265.784 647.271l-15.998 27.695v84.238c0 17.664 14.332 31.995 31.995 31.995V674.966l-15.997-27.695z" fill="red"/><path d="M297.779 647.271l-15.998 27.695V791.2h31.996V674.966l-15.998-27.695z" fill="green"/><path d="M329.774 647.271l-15.997 27.695V791.2h31.995V674.966l-15.998-27.695z" fill="red"/><path d="M361.77 647.271l-15.998 27.695V791.2c17.652.014 31.944 14.315 31.944 31.97 0-.552.024-1.093.051-1.638V674.966l-15.997-27.695z" fill="green"/><path d="M393.765 647.271l-15.998 27.695v146.565c.857-16.9 14.833-30.332 31.945-30.332h.05V674.966l-15.997-27.695z" fill="red"/><path d="M425.76 647.271l-15.997 27.695V791.2h31.995V674.966l-15.997-27.695z" fill="green"/><path d="M457.756 647.271l-15.998 27.695V791.2h31.996V674.966l-15.998-27.695z" fill="red"/><path d="M489.751 647.271l-15.997 27.695V791.2c17.628-.042 31.893-14.357 31.893-31.995v-84.417l-15.896-27.516z" fill="green"/><g stroke="#000" stroke-width="1.001"><path d="M672-172.625c-6.923.225-13.38 1.825-20.25 2.688l-.313 3.53c.953 2.83 2.117 5.673 3.032 8.5 6.454.112 13.277.842 19.248-.657a71.518 71.518 0 0 0 15.72-11.124c-6.38-2.46-12.052-3.112-17.437-2.937z" transform="matrix(.96237 0 0 1.00187 -220.638 721.742)" stroke-linejoin="round" fill="red" stroke-linecap="round"/><path d="M-953.733 192.943c-5.974 1.374-8.305.1-13.826 2.271 4.463 4.547 15.314 4.136 19.04 1.491 2.872-2.038 5.118-3.81 7.53-6.062-3.364-1.296-7.514 1.096-12.744 2.3z" fill="none" stroke-linecap="round" transform="matrix(.96237 0 0 1.00187 1340.432 362.055)"/><path d="M606.094-186.781c-5.196.155-10.348 1.274-15.407 4.719l1.375 15.656c-1.772 5.261-4.298 10.52-4.53 15.781 2.13 7.754 5.311 14.474 10.718 19.063-.788 6.486 1.298 12.204 4.188 17.687-2.381 1.102-2.59 3.085-3.407 4.813 1.398 4.246 3.606 8.064 7.688 10.968-2.692 7.628 6.855 8.031 15.031 8.031s17.723-.403 15.031-8.03c4.082-2.905 6.29-6.723 7.688-10.97-.816-1.727-1.026-3.71-3.407-4.812 2.89-5.483 4.976-11.201 4.188-17.688 5.407-4.588 8.589-11.308 10.719-19.062-.233-5.261-2.76-10.52-4.532-15.781l1.375-15.656c-10.117-6.89-20.623-4.467-31.062-3.657-5.22-.405-10.46-1.218-15.656-1.062z" transform="matrix(.96237 0 0 1.00187 -220.638 721.742)" fill="red"/></g><path d="M636.144-145.314s.94-4.13 2.923-3.472c1.998.663 5.907.26 9.703-.948-1.425 4.024-11.157 6.997-12.626 4.42z" transform="matrix(.96237 0 0 1.00187 -220.638 721.742)" stroke="#000" fill="silver" stroke-width="1.001"/><path d="M644-148.656c-1.435.191-2.734.224-3.781.093-.239.367-.375.81-.375 1.282 0 1.264.982 2.294 2.218 2.343h.032c.086-.026.163-.065.25-.093.04-.013.084-.018.125-.031.35-.116.717-.235 1.062-.375.013-.005.018-.026.031-.032.536-.43.907-1.067.907-1.812a2.32 2.32 0 0 0-.47-1.375z" transform="matrix(.96237 0 0 1.00187 -220.638 721.742)" stroke="#000" stroke-width="1.001"/><path d="M397.837 573.58c-.323.025-.629.046-.92.044-.08.228-.128.503-.128.824 0 .767.27 1.381.599 1.381.328 0 .599-.614.599-1.38 0-.346-.057-.635-.15-.87z" fill="silver"/><path d="M365.087 565.262c-2.398 3.33-2.37 10.349 1.805 22.417-3.702 3.022-3.054 8.905-3.398 14.151-2.924.296-3.45 3.27-4.361 5.823-2.292 1.104-2.493 3.091-3.278 4.822 1.344 4.255 3.47 8.079 7.398 10.989-2.59 7.642 6.597 8.046 14.466 8.046 7.868 0 17.055-.404 14.465-8.046 3.929-2.91 6.054-6.734 7.399-10.99-.786-1.73-.987-3.717-3.279-4.82-.405-3.035-2.58-4.22-4.36-5.824-.345-5.246.303-11.13-3.399-14.151 4.175-12.068 4.203-19.088 1.805-22.417-3.93 3.344-7.414 7.013-12.631 7.013-5.218 0-8.702-3.669-12.632-7.013z" stroke="#000" stroke-linejoin="round" fill="none" stroke-width=".983" stroke-linecap="square"/><path d="M367.935 602.468s3.879-1.644 9.783-1.644c5.903 0 9.782 1.644 9.782 1.644" stroke="#000" stroke-linejoin="round" fill="none" stroke-width=".983" stroke-linecap="round"/><path d="M391.814 608.92c3.994 7.094-.328 10.172-6.866 9.362.92-2.884 5.33-4.261 6.866-9.362zm-28.19 0c-3.995 7.094.328 10.172 6.865 9.362-.92-2.884-5.329-4.261-6.865-9.362z"/><path d="M365.097 565.26c-2.398 3.33-2.383 10.355 1.792 22.423-3.702 3.022-3.06 8.909-3.404 14.155-2.924.296-3.44 3.258-4.352 5.81-2.29 1.104-2.49 3.107-3.276 4.838 1.345 4.255 3.47 8.07 7.397 10.98 0 0 3.7 1.337 5.401.769 1.702-.57 6.848-1.865 10.367-1.792 2.737.056 6.921 1.195 8.344 1.792 1.423.596 4.812-.768 4.812-.768 3.928-2.91 6.053-6.726 7.398-10.981-.786-1.731-.985-3.734-3.277-4.838-.405-3.034-2.572-4.206-4.351-5.81-.345-5.246.297-11.133-3.404-14.155 4.174-12.068 4.215-19.093 1.817-22.422-3.93 3.344-7.427 7.013-12.645 7.013-5.217 0-8.689-3.669-12.619-7.013z" stroke="#000" stroke-linejoin="round" fill="none" stroke-width=".983" stroke-linecap="square"/><path d="M636.144-145.314s.94-4.13 2.923-3.472c1.998.663 5.907.26 9.703-.948-1.425 4.024-11.157 6.997-12.626 4.42z" transform="matrix(-.96237 0 0 1.00187 976.075 721.742)" stroke="#000" fill="silver" stroke-width="1.001"/><path d="M644-148.656c-1.435.191-2.734.224-3.781.093-.239.367-.375.81-.375 1.282 0 1.264.982 2.294 2.218 2.343h.032c.086-.026.163-.065.25-.093.04-.013.084-.018.125-.031.35-.116.717-.235 1.062-.375.013-.005.018-.026.031-.032.536-.43.907-1.067.907-1.812a2.32 2.32 0 0 0-.47-1.375z" transform="matrix(-.96237 0 0 1.00187 976.075 721.742)" stroke="#000" stroke-width="1.001"/><path d="M357.6 573.58c.323.025.629.046.92.044.08.228.129.503.129.824 0 .767-.27 1.381-.6 1.381-.328 0-.598-.614-.598-1.38 0-.346.056-.635.15-.87z" fill="silver"/><path d="M407.612 539.339c13.124-2.413 26.247-1.945 39.37-28.08-2.765 17.767-1.736 35.778-40.394 40.224zm-59.787 0c-13.124-2.413-26.247-1.945-39.37-28.08 2.765 17.768 1.736 35.778 40.394 40.224z" stroke="#000" stroke-linejoin="round" fill="red" stroke-width=".983"/><path d="M362.651 534.611c-5 .156-9.958 1.276-14.826 4.728l1.323 15.685 10.917 9.768c.238 1.65 1.03 3.275 1.805 4.916.678-2.306 1.898-3.473 3.217-4.446.235 2.73-.651 4.835 1.805 8.798.322-2.733 1.326-4.156 2.616-5.04.315 2.107.023 4.542 2.316 5.54.864-1.98 1.613-2.751 2.316-2.88 1.53.533 2.513 2.228 3.579 3.726 1.065-1.498 2.05-3.193 3.578-3.726.703.129 1.452.9 2.316 2.88 2.294-.998 2.002-3.433 2.316-5.54 1.29.884 2.294 2.307 2.616 5.04 2.457-3.963 1.57-6.069 1.805-8.798 1.319.973 2.539 2.14 3.218 4.446.774-1.641 1.566-3.266 1.804-4.916l10.917-9.768 1.323-15.685c-9.737-6.903-19.847-4.475-29.893-3.663-5.023-.406-10.067-1.22-15.068-1.065z" stroke="#000" stroke-linejoin="round" fill="red" stroke-width=".983" stroke-linecap="round"/><g stroke="#000" stroke-width="1.001" stroke-linecap="round"><path d="M672-172.625c-6.923.225-13.38 1.825-20.25 2.688l-.313 3.53c.953 2.83 2.117 5.673 3.032 8.5 6.454.112 13.277.842 19.248-.657a71.518 71.518 0 0 0 15.72-11.124c-6.38-2.46-12.052-3.112-17.437-2.937z" transform="matrix(-.96237 0 0 1.00187 976.077 721.738)" stroke-linejoin="round" fill="red"/><path d="M-953.733 192.943c-5.974 1.374-8.305.1-13.826 2.271 4.463 4.547 15.314 4.136 19.04 1.491 2.872-2.038 5.118-3.81 7.53-6.062-3.364-1.296-7.514 1.096-12.744 2.3z" fill="none" transform="matrix(-.96237 0 0 1.00187 -584.993 362.05)"/></g><path d="M368.645 624.238c6.835 13.038 13.042 12.24 18.732 0-6.506-2.726-12.683-2.023-18.732 0z" fill="silver" stroke-width=".983" stroke-linecap="round" stroke="#000"/><path d="M377.864 622.473v3.904" fill="red" stroke-width=".819" stroke-linecap="round" stroke="#000"/><path d="M362.194 539.369a16.536 16.536 0 0 0-1.126 5.99c0 9.196 7.442 16.663 16.638 16.663 9.196 0 16.663-7.467 16.663-16.664a16.55 16.55 0 0 0-1.126-5.99" stroke="#000" fill="none" stroke-width=".983" stroke-linecap="round"/><path d="M249.786 503.343v255.865c0 17.664 14.32 31.984 31.983 31.984h63.966c17.664 0 31.984 14.319 31.984 31.983 0-17.664 14.319-31.983 31.983-31.983h63.966c17.664 0 31.983-14.32 31.983-31.984V503.343H249.786z" stroke="#000" fill="none" stroke-width="3.276"/><path d="M483.75 192.585c-26.955 26.614-39.809 55.571-41.127 63.497 10.23-14.085 17.818-31.286 28.927-42.836-2.197 7.514-12.232 21.067-15.7 27.75 4.266-1.924 12.55-16.349 15.607-20.402-2.415 6.572-5.395 13.02-7.603 19.615 11.638-16.415 23.4-36.357 33.597-47.897 1.401-2.496 6.083-7.56 1.512-8.72-4.57-1.16-11.227 5.057-15.213 8.993zm111.525-41.429c-6.086.655-10.715 5.386-15.402 8.917-16.05 13.641-30.475 29.26-43.096 46.055-3.832 5.71-8.266 11.214-10.967 17.553.704 1.035 1.84-1.177 2.436-1.548 7.446-8.392 14.592-17.051 21.828-25.629-3.106 5.337-6.44 10.593-9.18 16.114.684.996 1.82-1.376 2.432-1.737 7.826-9.395 15.143-19.146 22.888-28.553-6.164 8.777-12.073 17.961-16.354 27.751.78.792 1.372-1.593 1.98-1.929 6.095-8.885 11.794-18.04 18.115-26.77-5.691 9.173-10.658 18.843-15.298 28.565.21 1.274 1.38-1.154 1.722-1.516 6.476-9.497 12.14-19.66 19.682-28.332-6.241 9.654-12.226 19.637-16.474 30.33.931.552 1.553-1.666 2.245-2.152 11.57-16.988 25.633-32.048 37.344-48.928 1.03-2.052 2.622-5.596.361-7.376-1.261-.766-2.813-.91-4.262-.815zm36.075-3.701c-7.224.698-12.827 6.103-18.435 10.252-18.666 15.578-35.373 33.508-50.27 52.712-5.21 7.18-10.75 14.477-13.72 22.895.189 1.552 1.576-.679 1.814-1.148a1235.11 1235.11 0 0 1 13.912-18.6c-1.177 3.025-3.608 5.59-4.45 8.685 1.097.872 1.596-1.683 2.287-2.143 6.462-9.196 14.018-18.31 21.483-26.196-5.78 7.717-12.157 15.073-17.543 23.035.527 1.266 1.783-1.406 2.365-1.67 10.997-12.575 21.91-25.228 33.27-37.479-8.248 10.456-16.543 21.091-23.57 32.455.019 1.256 1.482-.7 1.83-1.042 9.143-10.349 17.93-21.081 26.442-31.907-7.229 11.847-14.83 23.64-21.885 35.554.136 1.321 1.684-.779 2.07-1.216 7.223-9.03 13.475-18.862 20.312-28.211.64-.881 3.884-5.588 1.897-2.477-5.304 8.816-11.169 17.386-15.701 26.613.953.668 1.823-1.605 2.556-2.12 12.456-15.572 26.176-30.371 37.26-47.024 1.485-2.834 4.408-6.654 2.124-9.792-.996-1.12-2.644-1.233-4.048-1.176zm40.27-3.888c-14.168 2.276-25.124 12.82-35.687 21.875-15.44 14.203-30.622 28.945-43.103 45.866-3.4 4.97-7.17 9.99-9.273 15.62 1.255.984 2.28-1.577 3.23-2.105 5.97-6.497 11.8-13.124 17.814-19.58-1.584 3.318-4.003 6.425-5.211 9.833 1.142.406 1.697-1.859 2.472-2.445 3.676-5.526 7.59-10.866 12.305-15.552-2.614 4.275-6.021 8.086-8.324 12.532 16.035-16.268 33.13-35.02 47.753-48.955-12.076 13.13-36.153 38.163-46.403 52.162-1.134 1.548-2.892 3.47-2.592 5.492 5.907-3.934 11.174-10.246 16.007-14.59-.98 2.032-2.497 3.854-3.22 5.985 19.74-17.754 40.226-41.861 54.74-60.005 1.197-3.178 3.565-6.787-.508-6.133zM560.63 159.68c-8.276 1.35-14.17 8.06-20.11 13.415-14.143 13.862-26.11 29.91-35.977 47.057-2.042 4.075-4.866 7.99-6.03 12.374 1.196.445 1.87-2.08 2.753-2.7 11.01-14.578 21.122-29.934 33.322-43.53-7.64 9.95-14.275 20.744-19.841 31.933.386 1.33 1.54-1.05 1.96-1.429 4.187-6.01 8.06-12.233 12.176-18.292-2.922 6.676-6.848 12.97-9.273 19.815.674 1.08 1.547-1.216 1.964-1.577 6.032-9.459 12.01-19.178 19.227-27.778-6.036 9.51-11.999 19.267-16.14 29.756.893.776 1.57-1.487 2.102-2.003 10.34-16.128 22.131-31.344 33.225-46.98 1.459-2.616 4.217-5.596 3.126-8.791-.466-.87-1.517-1.359-2.485-1.27z" fill="red"/><path d="M530.152 167.804c-7.1.793-12.291 6.37-17.53 10.716-15.155 14.446-27.84 31.413-38.413 49.45-2.072 4.147-4.762 8.153-6.12 12.56.785.929 1.573-1.469 2.179-1.818 11.379-15.343 22.04-31.292 34.779-45.535-7.81 10.165-15.604 20.534-21.472 31.933 4.342-5.196 11.14-14.884 14.831-19.747-3.235 5.79-6.761 11.556-9.072 17.77 7.652-8.048 14.803-20.206 22.193-27.618-6.369 9.667-11.634 20.1-15.125 31.132 9.374-16.469 23.65-37.098 34.071-50.438 1.258-2.178 3.75-5.33 1.937-7.817-.584-.55-1.48-.647-2.258-.588zm-74.801 41.94c-13.72 13.807-25.622 29.71-33.852 47.38-.236 1.356 1.176.657 1.417-.24 10.06-13.073 20.23-26.038 31.078-38.48-7.968 11.013-16.474 21.748-23.356 33.482-.435.414-.94 2.455.16 1.644 3.944-3.997 7.487-8.403 11.077-12.734-.6 3.111-2.212 6.252-2.325 9.393 1.5-.53 2.006-2.955 3-4.208 7.832-14.63 17.787-27.95 28.693-40.405 1.724-2.548 6.753-8.801 1.669-9.733-3.572-.327-12.11 8.847-17.56 13.9zm-12.754 2.62c-9.89 5.13-22.56 20.185-27.698 28.326 3.867-3.303 8.82-7.299 11.29-9.714-4.86 6.517-10.87 12.519-14.657 19.841 0 0 12.385-12.032 13.04-12.733-3.46 5.107-7.276 10.09-10.355 15.392 10.92-7.581 24.9-26.267 29.702-36.356.685-1.524 1.197-4.764-1.322-4.756zm81.757-82.532c-4.177 1.42-5.468 6.286-8.287 9.28-9.605 13.05-20.152 25.378-31.901 36.541-5.293 5.43-11.19 10.39-16.477 15.8.006 1.56 1.967-.057 2.565-.414 2.296-1.48 4.487-3.112 6.654-4.77-.807.495-.685 2.01.441 1.39 6.793-3.957 11.827-10.31 16.982-16.14 2.092-2.499 4.02-5.05 6.133-7.523-2.95 4.749-6.29 9.462-9.7 13.83.323 1.292 1.947-.798 2.298-1.177 8.077-9.145 15.753-18.709 23.368-28.192-5.03 7.83-11.156 14.94-16.903 22.216-2.024 3.001-4.64 5.722-6.225 8.956.967.628 1.858-1.686 2.672-2.084 3.71-4.132 7.406-8.61 11.05-12.587-.832 2.288-2.924 4.165-3.447 6.467 1.426.31 2.525-1.862 3.662-2.54 2.136-2.088 4.194-4.283 6.399-6.265-.873.44-1.106 2.322.214 1.59 7.404-4.325 10.976-12.996 13.014-20.963.615-4.008 1.766-8.705-.361-12.413-.514-.657-1.271-1.203-2.151-1.002zm32.841-22.3c-3.806 1.328-5.209 5.821-7.375 8.885-9.693 17.496-21.846 33.39-32.855 50.065-1.034.891.224 1.923.949.748 4.55-4.398 8.435-9.47 12.425-14.377-2.676 4.58-5.8 8.948-8.23 13.642.73.791 1.783-1.382 2.512-1.777 8.08-8.779 14.086-19.23 21.093-28.859 2.219-3.155 4.797-7.027 6.832-9.728-5.135 12.274-15.742 21.55-20.617 33.95.799.792 1.626-1.65 2.303-2.09 2.919-3.838 5.588-7.87 8.52-11.698-1.296 2.918-2.986 5.699-3.995 8.725 1.284.19 2.024-2.65 3.035-3.518 2.84-4.13 5.565-8.338 8.375-12.489-1.98 4.259-4.494 8.35-6.119 12.72 1.162.44 2.023-1.992 2.94-2.606 6.494-7.77 12.093-16.964 13.508-27.134-.017-4.304.757-8.858-.508-13.016-.505-1.075-1.62-1.643-2.793-1.443z" fill="red"/><path d="M589.757 85.179c-4.25 1.363-5.816 6.307-7.99 9.798-7.723 15.22-17.436 29.227-26.883 43.406 3.465-6.408 6.362-13.401 5.932-20.843-.273-3.238.892-7.546-1.79-9.968-2.474-1.643-4.642 1.79-5.96 3.447-6.43 9.872-12.329 20.12-19.059 29.82-5.754 8.936-12.29 17.453-17.603 26.618.369 1.827 2.088-.464 2.672-1.002 2.953-2.934 5.56-6.194 8.257-9.366-1.657 3.195-4.227 6.174-5.157 9.62 1.437.368 2.413-2.007 3.474-2.753 9.149-10.636 16.485-22.999 24.771-34.097-5.722 10.04-13.669 18.889-18.425 29.501-.599.966.535 1.467.989.454 2.89-3.315 5.26-7.082 7.95-10.568-.58 1.992-2.42 4.04-2.205 6.106 1.875-.712 2.686-3.409 4.06-4.883 1.497-2.194 3.384-5.212 4.719-6.902-1.056 2.837-3.127 5.517-3.688 8.485 1.327.421 2.239-1.866 3.193-2.58.911-.957 3.554-4.718 3.127-3.794-3.853 6.504-8.178 12.834-11.49 19.601.7.923 1.575-1.43 2.124-1.83 4.388-6.053 8.515-12.291 12.92-18.332-3.067 5.524-6.285 11.08-8.939 16.755 1.014.497 1.576-1.967 2.35-2.506 2.966-4.475 5.773-9.053 8.78-13.5-2.055 4.923-4.723 9.627-6.48 14.657.957.591 1.49-1.791 2.178-2.259 11.309-17.68 22.21-35.711 33.55-53.35-6.296 14.973-17.099 27.542-23.516 42.421-.344 1.47 1.238.236 1.377-.517 4.587-6.276 8.889-12.767 13.387-19.11-1.706 3.89-4.39 7.612-5.491 11.624 1.526-.574 2.22-3.016 3.42-4.21 1.883-2.767 3.855-5.837 5.692-8.417-.134.884-1.8 2.863-.615 3.314 3.912-3.814 6.715-8.804 9.233-13.642 4.146-8.74 5.272-18.784 4.115-28.312-.386-1.347-1.335-3.069-2.98-2.886zm-48.301 63.198c-.55.147-.629 1.6 0 0zm0 0h-.013.013zm74.032-77.296c-12.104 21.804-25.394 42.95-36.218 65.444-2.018 4.45-4.789 8.751-6.175 13.389 2.867-3.1 4.887-7.327 7.392-10.87 2.063-2.918 3.813-6.525 6.103-9.038-1.418 4.51-4.616 8.531-5.625 13.12.929.011 1.452-2.311 2.18-3 2.259-3.719 4.438-7.86 6.879-11.256-1.274 4.41-3.789 8.672-4.69 13.054 1.511-1.564 2.264-4.35 3.509-6.327 8.562-16.615 16.711-33.482 25.592-49.91-6.14 17.336-15.36 32.122-22.1 48.228 4.454-4.53 9.828-14.953 13.896-19.916-1.24 4.14-3.629 8.193-4.53 12.265 7.794-9.972 14.743-20.695 20.363-32.026 4.61-9.296 5.461-25.153 2.584-30.415-4.373-5.154-7.34 3.978-9.16 7.258zm28.689-15.684c-14.126 27.676-29.725 54.583-43.197 82.585-1.014 1.828.117 1.3.735 0 4.97-7.327 9.548-15.333 14.363-22.5-1.665 4.588-4.652 9.11-6.08 13.508 3.729-4.745 6.53-11.066 9.928-15.499-.388 1.315-1.727 2.776-1.563 4.049 6.865-11.888 12.478-24.705 19.12-36.57-6.871 16.046-14.824 31.63-21.539 47.74.256.532 1.678-2.161 2.152-2.612 3.695-5.303 7.102-11.064 10.809-16.201-2.347 5.291-5.655 10.492-7.63 15.74 2.885-3.252 5.039-7.083 7.804-10.436-1.963 5.446-4.915 10.735-6.427 16.22 8.054-12.383 15.426-25.248 22.56-38.192 6.147-11.367 10.515-24.32 8.637-37.35-.46-3.188.085-9.334-3.155-9.766-3.24-.431-4.813 5.943-6.517 9.284z" fill="red"/><path d="M673.036 40.082c-12.769 32.962-33.961 63.196-51.052 102.844 4.726-5.084 8.772-13.104 12.29-19.025 4.526-8.131 8.775-16.615 13.524-24.506-2.658 7.537-8.912 20.599-11.224 28.179 5.063-9.608 9.924-20.512 14.604-29.06-1.675 5.85-6.966 16.959-8.262 22.846 2.653-4.38 6.624-15.102 9.144-19.413-.409 2.707-3.384 10.356-3.565 12.885 6.584-14.149 13.548-33.768 19.785-47.958-5.69 16.318-13.704 34.541-19.122 50.951 4.678-7.445 8.442-16.622 12.361-23.6-2.084 6.262-7.747 17.434-9.415 23.702 5.644-9.887 10.133-21.53 15.268-30.985-1.448 5.548-5.736 15.23-6.74 20.76 2.8-5.018 6.33-15.085 8.88-20.363-.57 2.81-3.945 12.534-4.178 14.853 4.057-6.933 7.947-17.02 10.549-24.616 4.38-12.786 8.272-26.375 6.854-39.936-.297-2.838-1.558-8.414-4.458-8.073-2.9.341-3.823 6.851-5.243 10.515zm21.657.672c-14.73 33.863-29.857 67.557-46.35 100.595-.334.628-1.797 3.659-.051 2.018 5.65-5.702 7.74-13.752 11.529-20.641 2.7-5.325 8.05-18.165 10.867-23.16-1.507 5.516-7.566 17.564-8.955 23.01 2.75-3.68 4.469-8.314 6.711-12.407 1.792-3.521 3.477-7.127 5.381-10.573-2.152 5.784-4.247 11.701-6.36 17.436-.908.971.686 1.357.682-.027 2.053-4.152 3.936-9.266 6.079-12.88-.545 3.364-2.533 6.815-2.432 10.087 2.855-4.468 4.458-9.819 6.692-14.679 5.166-12.048 9.581-24.444 14.606-36.52-2.608 10.826-6.921 21.098-10.443 31.682-.75 2.252-5.113 14.468-5.113 14.468s5.978-13.458 7.86-16.101c-.165 3.646-1.89 7.392-1.63 10.916 0 0 3.703-10.591 6.346-15.165-.058 2.889-2.635 9.25-2.425 12.068 2.374-4.437 3.567-10.652 5.82-15.155-.113 3.06-1.546 6.185-1.244 9.166 3.368-7.776 5.67-16.167 8.043-24.357 2.446-10.242 5.517-20.719 4.73-31.292-.211-2.851-1.27-8.269-4.734-7.906-3.464.364-4.168 6.104-5.61 9.417zM520.612 230.335c-7.039.104-13.796 8.215-17.317 13.726-5.36.884-14.31.501-18.945 1.96-.475-5.555 12.355-7.065 15.5-8.819-11.771-3.41-21.542 5.853-25.467 15.245-6.091 2.139-12.144 4.919-18.332 6.48 1.222-6.862 9.269-8.883 14.524-11.437-7.122-.3-15.3 2.313-19.24 8.605-2.643 4.22-2.104 9.486-2.485 14.27-3.128 1.186-6.878 4.345-9.634 3.634-1.56-.403 1.847-5.654 2.972-8.575-3.82 3.382-11.068 8.96-10.101 14.782 1.266 5.777 4.633 11.153 9.882 14.089 1.65 1.97 2.18-1.343 3.01-2.247 5.188-11.3 15.936-19.36 27.934-22.179 8.904-2.425 18.189-2.562 27.35-2.791 12.468 8.75 27.817 14.096 43.168 12.35 16.109-1.816 30.035-11.49 41.622-22.264-3.824-11.591-19.33-15.798-30.102-12.653-5.698.962-10.97 3.532-16.341 5.411-5.478-3.103-9.865-9.264-16.808-9.005-2.979 0-5.907.616-8.819 1.175 4.518-5.142 11.03-8.54 17.904-8.845.67-.815-2.06-1.166-2.549-1.626a19.097 19.097 0 0 0-7.726-1.286zm1.216 32.641c15.258 11.309 41.946.98 52.749-6.66-4.372 4.87-12.16 11.716-19.47 15.433-20.962 8.588-35.065 1.873-48.013-9.663-21.957-2.564-44.358 8.164-54.197 15.839 6.01-7.686 15.072-16.562 24.597-19.58 16.103-5.102 32.614-11.88 44.334 4.631z" fill="red"/><path d="M547.41 240.618c13.845-1.635 30.994-4.872 41.679-.677 5.479 2.152 9.103 7.14 12.252 11.918 1.065-.937 2.731-1.307 3.66-2.819-4.717-5.96-14.58-13.616-24.767-14.248-12.111-.75-21.915 1.438-32.824 5.826zm-178.718-93.073c8.756 4.86 18.01 8.19 24.393 13.494 4.476 3.834 9.006 7.83 14.204 17.357 5.199 9.528 2.853 22.133-2.176 32.355-2.527 5.137-6.91 8.434-8.907 13.756-3.108 8.286-.987 15.417-.663 20.242.78 11.592 13.607 33.36 16.06 41.208-7.208-12.42-15.624-25.581-19.266-37.75-1.96-6.551-3.24-14.833-3.36-21.646 8.826-7.23 18.726-23.138 6.187-39.276-6.848-9.708-20.505-39.455-33.842-37.451.983 7.951 17.56 26.786 16.864 42.297-4.86 4.709-8.678 12.533-9.739 19.07-.471 9.431 3.874 13.91 9.409 19.638-1.002 11.749 3.124 21.609 8.701 26.482.66 11.31 3.74 17.27 13.595 21.361-.2 19.28 29.686 35.018 54.324 29.408-18.72-7.27-29.623-7.983-39.79-24.672-10.345-16.982-17.274-41.944-9.81-59.59 3.863-9.131 9.776-17.905 11.799-26.857 3.521-15.584-1.638-30.588-14.416-38.21-9.3-5.546-23.515-11.12-33.567-11.216z" fill="red"/><path d="M347.142 137.36c-4.838 21.686 3.77 46.086 20.04 53.65-12.016-11.76-20.242-36.373-17.224-52.257zm13.834 57.688c-5.702 9.097-14.081 25.203 8.012 33.483-12.035-9.027-11.783-20.854-8.012-33.483zm5.518 38.32c.195 8.8 2.853 16.498 12.47 21.088-18.488-2.744-14.916-12.084-12.47-21.088zm13.302 25.169c-3.242 9.44-.516 15.743 11.942 16.93-11.689-5.194-8.962-14.143-11.942-16.93zM96.274 157.127c2.35 5.718 7.916 9.166 12.555 12.882 32.607 26.118 73.92 39.114 115.005 43.752 3.816.43 14.032 2.267 17.73 1.928-21.61-4.7-45.285-8.97-63.933-15.045 8.588 1.198 24.952 4.613 33.483 5.853-17.712-4.972-45.444-12.703-60.393-18.532 9.126 1.817 18.443 5.08 27.618 6.68-2.155-1.845-5.561-2.19-8.215-3.335-13.963-4.852-28.325-9.385-40.82-17.482-1.82-1.386 2.969.895 2.284.562 21.176 9.441 43.176 17.19 65.71 22.647.732-.787-1.826-1.139-2.258-1.577-13.527-5.506-27.527-10.086-40.925-15.753 10.804 2.757 21.489 6.34 32.214 9.153-.453-1.475-3.05-1.602-4.321-2.33-13.918-5.087-28.022-9.95-41.415-16.256 16.99 6.008 38.439 13.979 56.157 17.517-28.22-11.298-64.242-24.268-88.718-33.817-4.353-1.699-14.096-2.537-11.758 3.153z" fill="red"/><path d="M73.04 113.583c-3.412.043-2.708 4.585-1.404 6.52 4.65 6.962 17.372 15.885 24.104 20.657 28.31 20.067 63.843 32.686 98.82 41.793-15.643-6.652-34.118-12.533-47.366-18.158 9.526 2.367 26.892 8.682 36.43 11.045-33.624-12.333-72.206-31.565-98.586-47.534 25.438 11.116 91.555 42.366 108.26 45.164-12.62-6.413-43.072-19.284-55.686-25.65 11.166 3.902 39.398 15.257 50.819 18.409-33.345-13.7-73.368-33.131-103.965-48.045-3.745-1.427-7.285-4.272-11.427-4.201zM55.737 71.068c-2.869.768-2.997 5.115-1.644 7.281 6.153 11.762 16.665 20.453 26.79 28.7 26.272 20.062 56.028 35.215 86.78 47.125 7.692 2.832 28.942 10.061 36.836 12.022-24.395-9.198-52.186-19.525-72.326-29.597 12.813 4.447 40.108 16.34 54.821 19.67-19.3-8.033-52.52-21.364-69.275-29.966 8.558 3.104 36.79 15.589 45.269 18.65-32.524-15.161-67.116-34.217-91.365-54.231 29.588 20.239 63.203 39.437 95.315 53.013-7.23-5.709-34.705-18.706-43.714-23.765 9.885 3.696 23.54 10.994 33.53 14.118-8.56-6.035-24.145-14.105-32.832-19.72 3.792 1.147 26.169 13.037 30.025 13.63-2.199-2.422-22.746-11.88-25.633-13.5-17.518-9.825-34.403-20.723-50.811-32.278-6.593-3.945-13.025-8.476-20.323-11.005a4.658 4.658 0 0 0-1.443-.147z" fill="red"/><path d="M43.003 27.537c-4.286.358-3.988 5.872-2.859 8.912 2.395 6.448 7.073 11.804 11.419 17.042C65.46 70.244 82.545 84.213 100.7 96.089c23.754 15.537 58.868 28.545 85.338 38.43-42.05-18.974-66.747-31.96-82.321-43.997 6.828 2.982 24.067 12.865 29.314 14.216-21.673-12.303-41.796-23.308-73.345-53.452 38.518 33.228 70.32 53.345 112.694 67.254-21.188-10.324-50.551-20.598-67.073-36.236 16.42 9.829 43.046 23.773 60.994 30.158-19.037-10.642-51.772-24.542-55.89-32.736 13.78 8.274 28.179 15.911 43.396 21.044-6.922-5.769-18.18-10.297-25.347-14.658 4.835.917 9.858 2.905 14.524 3.46-11.468-6.354-23.439-11.796-34.967-18.068-18.592-10.116-37.59-20.244-52.634-35.306-3.547-3.552-6.952-9.115-12.38-8.661zM167.182 232.07c2.34 5.298 8.056 7.922 12.8 10.654 23.938 13.782 51.506 19.32 78.577 23.203 2.28.296-.132-.75-1.015-.895-13.863-4.068-28.147-7.202-41.86-11.45 4.624.43 26.988 4.537 26.988 4.537-10.234-3.055-32.409-7.81-41.512-11.285 5.963.763 57.506 12.653 57.506 12.653s-57.705-14.841-64.548-19.467c20.763 6.99 50.815 13.545 72.404 16.995 0 0-39.106-9.71-48.768-12.867-1.25-.52-3.006-1.255-3.394-2.565 15.243 3.58 33.836 8.025 49.477 9.086 0 0-27.444-6.769-38.948-9.808 8.721.902 35.456 5.446 44.105 6.12-32.15-5.865-67.034-12.796-95.26-18.62-3.243-.668-7.807.866-6.552 3.709zm-31.987-32.655c9.221 17.31 39.112 26.13 55.075 30.317 20.26 5.258 45.093 9.504 65.857 11.864-14.32-4.57-35.033-8.965-50.558-13.227 8.559.815 29.276 4.667 37.839 5.117-27.765-6.01-61.212-13.915-84.643-21.992 23.931 6.194 53.71 14.2 79.525 17.757-16.454-4.825-38.35-8.886-52.937-13.83 17.996 2.962 37.534 7.5 56.157 8.07-16.085-3.612-34.67-5.285-48.902-9.552 10.366.537 36.994 3.964 47.38 5.317-31.473-5.589-64.938-12.074-90.45-22.025-4.137-1.614-17.349-3.46-14.343 2.184zm81.036 67.675c2.354 3.919 7.095 5.777 10.983 8.016 13.077 7.533 32.797 14.253 48.49 15.818-13.437-4.21-26.478-8.237-34.259-13.495 7.004.765 33.285 6.91 41.012 7.778.215-.97-15.537-3.41-16.21-3.85-13.887-3.659-27.908-7.542-40.81-13.92 18.975 6.159 37.554 13.202 58.602 13.827-12.458-3.897-31.002-6.896-43.076-12.197 15.996 4.02 33.342 6.728 47.632 7.896-20.06-6.437-48.332-12.58-69.104-15.86-4.093-.646-5.099 2.925-3.26 5.986zM193.857 97.705c-1.827.292.732 3.425 1.35 4.53 7.053 12.611 17.777 22.985 29.074 31.866 19.16 15.062 39.302 24.437 60.339 30.664 18.506 5.477 41.9 6.782 58.99 5.838 1.736-.799-4.175-1.18-3.434-1.189-12.52-2.085-38.12-4.066-42.238-8.337 3.289.718 29.23 3.959 40.607 2.685-32.885-4.878-89.868-13.586-117.27-41.633 32.378 20.069 68.537 35.387 102.587 34.9-21.322-7.444-39.537-6.185-55.075-16.248 9.099 4.68 26.41 9.05 48.715 8.845-12.846-3.105-33.662-5.42-45.442-11.717 13.012 5.104 28.767 6.209 41.18 5.237-26.65-6.649-54.926-13.707-78.057-23.184-11.682-4.787-22.923-11.782-32.668-19.157-2.419-1.831-5.591-3.591-8.658-3.1zm13.388 38.133c-7.464.166-3.868 6.132-.962 9.767 15.21 19.022 36.202 32.945 58.602 42.194 26.554 10.998 59.874 15.591 88.591 14.19-15.899-4.04-40.288-1.773-51.547-8.658 11.752 2.374 27.703 3.819 39.57 2.405-26.828-.711-86.926-17.829-115.842-41.273 33.558 17.2 65.86 34.572 101.04 33.915-15.737-5.582-38.619-8.244-50.643-16.847 14.599 5.981 30.29 10.445 44.093 10.069-10.336-4.35-32.577-7.076-42.244-13.855 11.212 4.061 29.242 7.599 39.973 7.481-16.753-5.774-32.977-8.816-45.776-13.267-15.317-5.328-30.668-10.443-44.866-18.252-6.35-2.89-12.806-8.03-19.989-7.87zm17.795 42.418c-5.562.588-2.146 7.522.508 9.932 20.651 18.757 45.79 32.634 72.915 39.26 18.772 4.587 38.062 6.761 57.337 7.553-20.827-4.6-47.838-8.578-66.397-14.24 11.487 1.46 26.885 4.368 38.35 6.024-15.396-4.354-36.1-7.578-50.15-12.815 14.598 3.198 29.46 5.524 44.164 8.35-12.54-5.687-55.389-12.667-65.788-22.807 16.821 9.012 62.443 19.952 62.697 18.118-12.134-4.568-30.462-8.908-42.574-13.22 9.363 1.814 46.718 10.47 40.513 8.101-14.657-4.47-39.722-11.01-54.853-18.292 17.071 5.223 32.829 10.914 51.643 13.176-26.115-11.045-56.512-19.188-80.207-28.205-2.593-.987-5.403-1.226-8.157-.935zm31.302 43.112c-1.415-.123-3.183.612-2.721 2.362.246 2.102.83 4.584 2.55 5.952 1.978 1.723 4.096 3.475 6.51 4.516 1.658 1.263 3.645 2.266 5.537 3.099.547.66 1.567.375 1.974 1.105.957.083 1.646.733 2.58.926.78.814 2.044.615 2.872 1.398 1.115.142 1.979.64 2.89 1.134 1.443.21 2.511 1.102 3.95 1.408 3.02 1.107 6.012 2.294 9.145 3.013 1.063.014 1.664 1.047 2.872.898 1.748.783 3.7 1.18 5.575 1.767 3.539.854 6.951 2.07 10.572 2.626 3.192.978 6.514 1.595 9.797 2.211 1.912.689 4.072.62 6 1.351 5.17.763 10.34 1.518 15.502 2.308 4.9.346 9.858 1.114 14.759.772.365-.917-1.547-.658-2.06-.803-2.323-.934-4.957-.785-7.345-1.618-4.761-.73-9.395-1.97-14.13-2.794-3.445-.735-6.84-1.706-10.323-2.342-6.3-1.486-12.588-3.04-18.861-4.612-1.159-.033-1.953-.926-3.174-.888-3.418-.998-6.835-2.053-10.223-3.08-2.667-1.004-5.576-1.865-8.172-3.24-.386-.107-2.395-1.247-.879-.917 2.097.982 4.495 1.373 6.698 2.164 5.125 1.206 10.19 2.727 15.344 3.741 2.577.246 4.889 1.23 7.482 1.408 3.286.907 6.772.866 10.062 1.776 3.96.322 7.97 1.317 11.933.879-.91-1.015-3.025-.295-4.261-1.04-5.157-1.136-10.514-1.583-15.57-3.08-2.423-.264-4.811-.83-7.152-1.502-2.335-.538-4.693-1.091-7-1.738-3.734-1.051-7.398-2.321-11.074-3.59-.681-.237-1.214-.869-2.088-.898-1.966-.752-4.13-1.894-5.942-2.589 2.286-.069 4.39 1.258 6.575 1.588 1.04.722 2.606.555 3.732 1.228 4.569.988 9.1 2.104 13.709 2.948 4.085.743 8.11 1.749 12.265 2.11 7.913 1.183 15.837 2.554 23.854 2.736 1.385-.044-.427-.59-.86-.595-3.95-.735-7.807-1.865-11.81-2.38-2.75-.758-5.59-1.054-8.304-1.919-6.981-1.265-13.924-2.766-20.776-4.582-1.646-.557-4.551-1.196-1.211-.741 2.225.548 4.5.934 6.69 1.563 4.256.557 8.445 1.514 12.749 1.79 4.318.244 8.545 1.246 12.855 1.413.459.038 2.32.055 1.144-.624-3.547-1.448-7.096-2.92-10.648-4.327-1.528-.39-3.046-.926-4.692-.999-4.66-1.236-9.521-1.582-14.175-2.827-2.71-.732-5.506-1.086-8.258-1.663-3.806-.912-7.63-1.841-11.51-2.506-5.856-1.387-11.77-2.455-17.702-3.455-2.324-.683-4.84-.822-7.256-.841zm35.032 11.073c.96.316-1.297.248-.075 0h.075zm1.512.302c.96.316-1.297.248-.076 0h.076zm1.644.614c1.215.252-1.423.252-.208 0l.104-.01.104.01zm-13.31 16.285c-1.643.06-3.793 1.146-3.326 3.113.604 2.437 1.513 5.053 3.782 6.425 4.353 3.607 9.618 5.82 14.723 8.125 1.799.388 3.39 1.57 5.204 1.877.727.491 1.753.423 2.546.889 11.744 3.88 23.879 6.463 36.07 8.472 10.985 1.69 22.094 2.768 33.214 2.731.444.143 1.299-.307.501-.56-5.485-1.086-11.075-1.683-16.595-2.62-11.028-1.677-22.052-3.478-32.968-5.757-4.17-.864-8.32-1.951-12.406-3.074-.66-.147-1.2-.527-1.91-.588-1.81-.87-3.959-1.325-5.519-2.566 1.837.349 3.7 1.046 5.576 1.418a423.637 423.637 0 0 0 19.156 4.094c7.124 1.35 14.267 2.633 21.424 3.788.464.253 1.366-.212.595-.541a901.45 901.45 0 0 1-16.348-3.518c-2.757-.589-5.483-1.365-8.223-1.947-2.313-.83-4.712-1.22-7.015-2.084-.73-.17-1.425-.298-2.084-.615-.702-.093-1.252-.532-1.991-.568-2.832-1.196-6.083-2.178-8.725-3.44.881-.222 1.547.453 2.392.5.943.565 2.248.402 3.226 1.036 1.215-.018 2.14.701 3.327.862 13.653 3.51 27.7 5.094 41.707 6.42.334-.015.984.164.555-.22.347-.493-1.116-.466-1.406-.65-1.714-.502-3.543-.733-5.235-1.168-5.717-1.23-11.497-2.346-17.23-3.569-4.756-1.03-9.532-2.052-14.175-3.472-1.215 0-2.24-.862-3.447-.962-.102-.505-1.081-.26-1.17-.44 1.352-.146 2.631.651 4.005.688 11.215 2.357 22.736 2.227 34.102 3.233.322-.229-.538-.823-.849-.835-3.556-.845-6.878-2.567-10.545-2.91-12.35-2.182-24.617-4.8-36.92-7.205-1.214-.113-2.258-.71-3.501-.648-2.514-.831-5.26-.947-7.852-1.56-4.222-.708-8.423-1.638-12.664-2.154zm33.264 10.89c.858.178-1.006.178-.147 0l.073-.01.074.01zm-8.218 1.703c.68.223-.917.175-.053 0h.053zm-3.667 13.047c-3.798.61-.742 7.135.552 8.194 3.776 3.089 11.154 7.816 15.671 9.627 8.06 3.232 30.599 11.604 49.086 9.983-6.725-2.957-32.413-7.675-40.557-11.504 3.413-.893 22.307 7.781 39.668 6.984-12.753-1.477-33.86-7.984-41.056-11.551 13.18 4.565 32.297 9.254 44.738 8.731-15.32-4.25-30.667-6.638-45.11-12.665 6.09 1.604 32.136 7.572 49.672 6.938.654-.14-.536-.855-.855-.675-4.128-1.8-8.609-2.386-12.635-3.298-16.405-2.931-32.676-6.555-49.07-9.555-3.343-.612-6.73-1.752-10.104-1.21zM93.566 310.16l119.723-.303-56.838 3.024 55.93.907-55.023 3.023 52.303-.605-112.467 7.256c-4.502-4.068-4.15-8.676-3.628-13.302zm10.117 21.833l108.6-10.903-49.17 7.483 51.948-5.131-54.3 8.551 56.652-7.482-109.24 18.599c-2.429-3.473-6.327-6.578-4.49-11.117zm9.988 18.83l104.757-23.128-55.175 14.814 49.28-10.43-60.768 15.872 37.186-7.407-33.558 9.674 28.267-6.349-65.605 16.628c-4.387-2.737-4.783-6.14-4.384-9.674zm8.314 16.023l82.536-23.128-39.907 13.756 45.5-11.64-51.698 15.117 40.663-9.977-40.663 13.454 48.221-13.756-79.361 26.907c-4.012-1.972-6.875-4.763-5.29-10.733zm9.826 16.174l80.268-28.418-39.454 15.57 46.257-14.663-50.036 19.198 40.21-13.907-41.57 17.686 50.489-18.744-80.117 32.953c-3.297-1.41-7.383-1.702-6.047-9.674zm9.221 13.908c.605-.302 81.78-35.826 81.78-35.826l-45.35 22.977 49.28-22.221-50.338 26.454 53.06-25.698-81.78 42.326c-2.728-1.225-6.193-.361-6.652-8.012zm10.43 14.21l73.769-39.606-34.012 24.338 37.186-23.128-41.873 29.174 42.931-27.36c-23.312 16.268-46.426 33.033-70.896 46.407-4.564-1.28-6.975-4.515-7.105-9.825zm154.181-29.509c-3.796.317-7.762.588-11.366 1.738-1.925.476-3.966 1.128-5.763 2.012-.92.782-2.549 1.201-2.683 2.75-.136.882-.249 2.438 1.134 1.993 12.342.142 24.702.23 37.035-.142 1.125-.575-1.175-.722-1.587-.774-5.386-.406-10.705-1.337-16.109-1.55-2.772-.07-1.98-.45.22-.72 2.949-.238 5.699-1.308 8.648-1.422 1.048-.242 2.616-.249 3.377-.834-4.573-.388-9.235.58-13.766.19 2.015-.647 4.28-.609 6.34-1.239 1.491-.357 3.625.015 4.723-1.048-3.297-.845-6.806-.974-10.203-.954zm-14.002 19.783c-1.136 1.111.103 2.61 1.644 2.58 12.02-.237 24.059-.01 36.072-.416-6.972-1.588-13.37-1.56-18.735-2.353 3.186-1.539 6.775-1.108 14.255-2.896-9.783.243-11.756.68-15.672.506 4.158-1.319 8.67-1.102 12.82-2.334-8.578-2.095-24.325-1.01-30.384 4.913zm15.114 9.608c-1.263 3.102 7.83 2.106 30.311 3.581-3.336-1.945-8.087-2.102-15.576-3.436 3.994-.853 9.914-1.243 13.715-2.487-6.18-.367-26.405-2.684-28.45 2.341zm11.087 8.874c-1.748 1.31-.803 3.553 1.872 3.649 5.665.202 14.798.49 21.686 1.049-5.711-2.624-13.243-2.068-16.362-3.103 4.263-1.845 9.22-1.338 12.957-2.68-2.387-1.962-17.027-1.257-20.153 1.085zm245.468-79.577c5.114-1.726 10.809-2.582 16.477-3.477l-6.884-2.015 4.163-3.2c-5.738-4.123-9.739-1.994-14.134-1.285 3.357-6.124 11.208-9.065 21.39-10.355-15.989-5.22-31.46-8.978-49.053-18.744 8.522 10.424 24.617 13.275 38.396 18.442-11.943 4.31-16.263 10.188-18.594 16.477l11.942-3.477c3.083.694-1.153 4.525-3.703 7.634z" fill="red"/><path d="M595.895 298.029c-2.896 0-6.282.212-10.248.721l12.185 4.383s-7.567-1.546-12.345-1.39c-3.945.13-5.94 1.684-8.979 1.604-5.401-.143-6.933 1.104-7.643 1.924-1.5 1.733 8.765 5.344 14.324 9.62-4.655-1.549-10.261-4.26-14.27-3.741 6.98 3.72 11.692 8.164 24.21 6.947 0 0 1.55.802 1.176 1.87-6.49 2.414-17.396 5.373-17.53 6.575 7.248-1.47 13.853-3.366 21.86-4.33 1.524-.849 3.062-1.97 4.488-3.794 0 0 .69.906.802 2.031 1.43-.458 2.082-1.695 2.672-2.993.812.293 1.071 1.138 1.176 2.138 3.652-7.34 6.095-5.871 6.948-13.682-1.8-1.465-3.188-7.873-18.826-7.883zm-3.62 6c3.455-.063 5.435.43 8.871.76 5.51.53 10.412 2.387 9.94 4.918-.378 2.036-4.165-.045-6.466-.107-2.934-.08-4.275 2.341-5.772 3.1-4.852 2.457-14.34 1.718-19.026-2.673-2.547-2.385-10.151-2.747-8.712-4.596 3.24-1.177 8.528.128 12.72-.534 3.762-.595 6.37-.832 8.444-.869z" fill="red"/><path d="M586.876 306.446c-.54 2.34-.36 3.723 0 4.864-3.259-.891-5.523-2.066-6.787-3.527.722-1.099 1.99-.2 6.787-1.337zm5.224.054a3.29 3.29 0 0 0-3.286 3.3c0 1.826 1.47 3.314 3.286 3.314s3.3-1.488 3.3-3.314-1.484-3.3-3.3-3.3zm.481 1.363c.637 0 1.15.909 1.15 2.03 0 1.122-.513 2.032-1.15 2.032-.636 0-1.149-.91-1.149-2.031 0-1.122.513-2.031 1.15-2.031z" fill="#fff"/><path d="M620.333 337.07c-1.709-3.077-12.818-11.033-14.698-5.077-1.76 5.578 7.414 3.497 14.698 5.077z" fill="red"/><path d="M634.495 313.074c7.852-.442 13.472 2.875 17.53 6.2-1.767-12.199-13.524-10.507-23.088-11.865-4.117 3.894-3.42 8.699-23.943 16.354L596.229 329c-4.874 1.02-9.544 2.396-12.827 6.2 4.888 1.622 9.99 3.886 15.072 6.092 6.442 7.354 11.964 7.355 17.636 8.552-3.538-2.091-7.762-3.497-9.62-7.269 5.08 1.22 9.711 4.678 14.537 7.162-1.603-3.955-20.335-10.235-19.026-19.134 1.124-7.635 25.12-4.275 38.908-12.185z" fill="#fff"/><path d="M621.776 304.295c-4.877.228-5.05 9.503-14.818 16.902 6.09-1.609 15.683-5.537 20.256-14.55-1.102-1.582-2.493-2.165-4.944-2.338a4.124 4.124 0 0 0-.494-.013zm.414 2.245c.848-.061 1.72.144 2.084 1.015-2.998 4.001-6.24 6.714-8.925 7.55 4.445-3.967 3.72-7.878 6.026-8.431.26-.063.532-.114.815-.134z" fill="#fff"/><path d="M501.634 335.855l5.279.395 5.19.39-5.593-1.75 2.536-3.357-3.675 2.143-3.737 2.179zM484.25 356.47l2.916.291 2.867.285-3.09-1.283 1.401-2.462-2.03 1.572-2.064 1.598zm4.467 5.326l2.395.09 2.355.089-2.586-.87 1.022-2.02-1.58 1.344-1.606 1.367zm-13.764-7.761l3.564.413 3.504.406-3.775-1.826 1.711-3.506-2.48 2.237-2.524 2.276zm2.343 6.215l2.916.29 2.868.285-3.09-1.283 1.4-2.462-2.03 1.572-2.064 1.598zm4.468 5.325l2.394.09 2.355.089-2.585-.87 1.021-2.02-1.58 1.344-1.605 1.367zm-15.482-6.274l4.085.103 4.016.102-4.46-1.368 1.608-3.307-2.602 2.216-2.647 2.254zm3.253 5.454l3.337.04 3.282.041-3.63-.927 1.355-2.338-2.154 1.578-2.19 1.606zm5.578 4.485l2.727-.1 2.681-.1-3.017-.59.966-1.91-1.664 1.339-1.693 1.36zm30.224-26.612l3.973.359 3.906.352-4.209-1.585 1.908-3.04-2.765 1.94-2.813 1.974zm4.143 6.822l2.782.297 2.736.292-2.948-1.313 1.337-2.52-1.937 1.608-1.97 1.636zm2.734 5.162l2.285.092 2.247.09-2.467-.89.975-2.067-1.507 1.375-1.533 1.4zm-17.157 3.25l2.285.092 2.247.09-2.467-.89.975-2.068-1.508 1.376-1.532 1.4zm-3.778-5.85l2.916.29 2.867.285-3.09-1.283 1.401-2.462-2.03 1.571-2.064 1.599zm6.727-4.309l2.916.29 2.867.286-3.09-1.283 1.401-2.462-2.03 1.571-2.064 1.598zm4.307 6.531l2.285.092 2.247.09-2.467-.89.974-2.067-1.507 1.375-1.532 1.4zm10.507-16.519l3.972.359 3.906.352-4.208-1.584 1.907-3.041-2.765 1.94-2.812 1.974zm8.919 1.135l3.972.358 3.906.352-4.209-1.585 1.908-3.04-2.765 1.94-2.812 1.974zm9.598 1.098l3.706.376 3.644.37-3.926-1.663 1.78-3.19-2.58 2.036-2.624 2.071zm8.693.982l3.705.377 3.644.37-3.926-1.663 1.78-3.19-2.58 2.036-2.624 2.07zm-25.033 3.531l2.783.297 2.736.292-2.948-1.313 1.336-2.52-1.937 1.609-1.97 1.635zm2.659 6.145l2.285.092 2.247.09-2.467-.89.975-2.067-1.507 1.375-1.533 1.4zm7.482 1.209l2.286.092 2.246.09-2.467-.89.975-2.067-1.507 1.376-1.533 1.399zm9.826.048l2.666.106 2.622.105-2.878-1.027 1.137-2.385-1.759 1.587-1.788 1.614zm-10.279-5.868l2.285.093 2.247.09-2.467-.89.975-2.068-1.507 1.376-1.533 1.399zm7.18.454l2.285.092 2.247.09-2.467-.89.975-2.067-1.507 1.375-1.533 1.4zm-36.127-6.153l2.916.29 2.868.286-3.09-1.283 1.4-2.463-2.03 1.572-2.064 1.598zm-6.5 5.442l2.916.29 2.868.286-3.09-1.283 1.4-2.463-2.03 1.572-2.064 1.598zm-6.727 4.384l2.917.29 2.867.285-3.09-1.283 1.4-2.462-2.03 1.572-2.064 1.598zm-10.506-1.738l2.917.29 2.867.285-3.09-1.283 1.4-2.462-2.03 1.571-2.064 1.599zm-7.86 4.61l2.916.29 2.867.286-3.09-1.283 1.401-2.463-2.03 1.572-2.064 1.598zm14.738-9.524l2.917.291 2.867.285-3.09-1.283 1.4-2.462-2.03 1.571-2.064 1.599zm8.617-4.76l2.916.29 2.867.285-3.09-1.283 1.401-2.463-2.03 1.572-2.064 1.598zm-7.634-1.588l2.916.29 2.867.285-3.09-1.283 1.401-2.462-2.03 1.571-2.064 1.599zm7.256-5.215l2.916.29 2.867.285-3.09-1.283 1.401-2.462-2.03 1.571-2.064 1.599zm6.953 1.663l2.917.29 2.867.285-3.09-1.283 1.4-2.462-2.029 1.571-2.065 1.599zm-14.662-3.477l2.916.29 2.867.285-3.09-1.283 1.4-2.462-2.029 1.571-2.064 1.599zm-6.576-2.193l2.916.291 2.867.285-3.09-1.283 1.401-2.462-2.03 1.571-2.064 1.599zm7.709-5.441l2.916.29 2.868.285-3.09-1.283 1.4-2.462-2.03 1.572-2.064 1.598zm-9.523-2.948l2.916.29 2.867.286-3.09-1.283 1.401-2.463-2.03 1.572-2.064 1.598zm8.541-4.913l2.916.29 2.867.286-3.09-1.283 1.401-2.462-2.03 1.571-2.064 1.598zm-5.78-2.661l2.929-.088 2.88-.086-3.229-.875 1.072-2.622-1.81 1.82-1.842 1.85zm13.68-2.041l2.93-.087 2.88-.087-3.23-.874 1.072-2.622-1.81 1.82-1.842 1.85zm8.541 1.512l2.93-.088 2.88-.086-3.23-.875 1.072-2.622-1.81 1.82-1.842 1.851zm7.277 1.799h5.812l-3.201-.972 1.151-2.588-1.865 1.763-1.897 1.794zm7.86 2.193h5.812l-3.2-.973 1.15-2.588-1.865 1.763-1.897 1.794zm7.408 2.04h5.811l-3.2-.973 1.15-2.588-1.865 1.764-1.897 1.794zm7.104 1.21h5.812l-3.2-.973 1.15-2.588-1.865 1.763-1.897 1.794zm-38.003-1.86l2.916.29 2.867.286-3.09-1.283 1.401-2.463-2.03 1.572-2.064 1.598zm7.936 2.268l2.916.29 2.867.285-3.089-1.283 1.4-2.462-2.03 1.571-2.064 1.599z" fill="red"/><path d="M495.587 319.058l2.916.29 2.867.285-3.089-1.283 1.4-2.462-2.03 1.571-2.064 1.599zm6.953 2.342l2.917.29 2.867.286-3.09-1.283 1.401-2.462-2.03 1.571-2.064 1.599zm6.728 1.134l2.916.29 2.867.286-3.09-1.283 1.4-2.462-2.029 1.571-2.064 1.598zm8.162 2.268l2.917.29 2.867.285-3.09-1.283 1.4-2.462-2.03 1.572-2.064 1.598zm-29.855-1.361l2.917.29 2.867.286-3.09-1.283 1.4-2.462-2.03 1.571-2.064 1.598zm7.861 2.419l2.916.29 2.867.286-3.09-1.283 1.401-2.463-2.03 1.572-2.064 1.598zm7.104 1.663l2.917.29 2.867.285-3.09-1.283 1.401-2.462-2.03 1.572-2.064 1.598zm7.43 2.122l4.342.325 4.268.32-4.599-1.438 2.085-2.76-3.022 1.761-3.073 1.792zm10.545 1.816l2.782.297 2.736.292-2.948-1.313 1.337-2.52-1.937 1.609-1.97 1.635zm8.465 1.134l2.783.297 2.735.292-2.948-1.313 1.337-2.52-1.937 1.608-1.97 1.636zm-3.93-6.047l2.782.297 2.736.292-2.948-1.313 1.337-2.52-1.937 1.609-1.97 1.635zm10.062 1.533l2.785.276 2.738.271-2.958-1.29 1.317-2.53-1.924 1.623-1.958 1.65zm2.195 5.845l2.971.119 2.922.116-3.208-1.14 1.267-2.65-1.959 1.763-1.993 1.792zm9.297 1.512l2.971.118 2.921.116-3.207-1.14 1.267-2.649-1.96 1.763-1.992 1.792zm-2.721-6.439l2.323.087 2.284.086-2.508-.844.991-1.962-1.532 1.305-1.558 1.328zm5.744-4.838l2.323.088 2.285.086-2.509-.844.992-1.963-1.533 1.306-1.558 1.327zm6.953.303l2.324.087 2.284.086-2.508-.844.991-1.962-1.532 1.305-1.558 1.328zm-22.753-4.092l2.785.275 2.738.272-2.958-1.29 1.317-2.53-1.924 1.622-1.958 1.65zm7.936 1.436l2.785.276 2.738.27-2.958-1.29 1.318-2.53-1.925 1.623-1.958 1.65zm5.971-4.913l2.785.276 2.738.27-2.958-1.29 1.318-2.53-1.925 1.623-1.958 1.65zm-9.447-1.815l2.784.277 2.738.27-2.957-1.29 1.317-2.53-1.925 1.623-1.957 1.65zm-7.861-1.51l2.785.275 2.738.271-2.958-1.29 1.317-2.53-1.924 1.623-1.958 1.65zm-7.634-1.361l2.785.276 2.738.27-2.958-1.29 1.318-2.53-1.925 1.623-1.958 1.65zm-6.424-2.646l2.785.276 2.738.271-2.958-1.29 1.317-2.53-1.925 1.623-1.957 1.65zm-123.42-31.828c-3.139 11.611.796 17.008 10.959 16.93-9.901-4.81-9.761-10.96-10.96-16.93zm14.087 19.091c-2.291 8.416 1.335 12.887 12.72 12.186-7.42-2.906-11.572-7-12.72-12.186zm-42.524 30.564l9.046 3.429 8.894 3.37-8.663-6.59 6.797-6.241-7.97 2.99-8.104 3.042zm-17.535 7.256l9.275 3.429 9.118 3.37-8.882-6.59 6.97-6.241-8.171 2.99-8.31 3.042zm-2.872 15.731l9.96 2.662 9.794 2.616-9.54-5.115 7.485-4.845-8.775 2.321-8.924 2.361zm18.744 7.558l9.96 2.662 9.794 2.616-9.54-5.115 7.485-4.845-8.774 2.321-8.925 2.361zm16.175 16.326l9.96 2.662 9.794 2.616-9.54-5.115 7.485-4.845-8.775 2.321-8.924 2.361zm21.617 4.803l8.588 2.293 8.444 2.255-8.225-4.408 6.453-4.174-7.566 2-7.695 2.034zm25.848 2.819l7.75 2.091 7.62 2.056-7.422-4.02 5.824-3.806-6.828 1.824-6.944 1.855zm-42.753-17.135l9.01 1.42 8.858 1.395-8.898-3.801 6.051-5.445-7.447 3.188-7.574 3.243zm19.198 4.384l9.01 1.42 8.857 1.395-8.897-3.801 6.051-5.445-7.447 3.188-7.574 3.243zm20.407 3.023l9.01 1.42 8.858 1.395-8.898-3.8 6.052-5.446-7.448 3.189-7.574 3.242zm23.26 2.708l9.802.255 9.636.251-9.991-2.144 5.752-4.877-7.535 3.23-7.663 3.285zm-62.094-24.485l9.28 2.85 9.125 2.801-9.453-5.544 5.465-5.366-7.147 2.607-7.27 2.652zm18.442 4.988l9.28 2.85 9.125 2.802-9.453-5.545 5.465-5.365-7.147 2.606-7.27 2.652zm-38.093-11.421l9.28 2.968 9.125 2.918-9.454-5.774 5.466-5.59-7.148 2.716-7.27 2.762zm18.249-7.542l8.245 2.614 8.106 2.57-6.992-5.885 8.606-7.053-8.906 3.844-9.059 3.91zm18.593-8.707l8.939 2.583 8.788 2.54-7.58-5.816 9.33-6.97-9.656 3.799-9.82 3.864zm20.773-8.733l8.763 2.246 8.617 2.207-7.587-5.569 8.734-7.429-9.185 4.236-9.342 4.31zm-19.954 24.191l8.12 2.167 7.984 2.13-7.03-5.374 8.093-7.17-8.511 4.088-8.656 4.159zm17.837-8.893l8.693 2.612 14.29 4.23c-2.98-3.33-13.159-5.45-17.427-7.308 4.274-3.156 9.58-6.106 12.82-9.47l-9.11 4.926z" fill="red"/><path d="M437.435 324.55l10.05 3.316 9.883 3.26-8.702-8.225 10.017-10.971-10.534 6.256-10.714 6.363zm-19.198 23.896l12.196 3.081 11.991 3.03-15.547-6.887 17.143-10.949-12.782 5.812z" fill="red"/><path d="M437.737 353.132l12.196 3.081 11.991 3.03-10.559-7.642 12.156-10.194-12.783 5.813-13 5.912z" fill="red"/><path d="M436.679 339.225l12.196 3.081 11.991 3.03-10.559-7.643 12.155-10.193-12.782 5.812-13.001 5.913z" fill="red"/><path d="M453.005 329.749l11.48 3.133 11.289 3.08-9.94-7.77 11.443-10.367-12.034 5.911-12.238 6.013zm2.082-15.513l5.145-3.914 5.058-3.847-3.21 6.67 8.444 4.854-7.653-1.866-7.784-1.897zm-31.519 46.668l8.811 1.4 8.663 1.377-9.329-3.86 4.247-5.663-6.144 3.345-6.248 3.401z" fill="red"/><path d="M440.58 363.232l9.914 3.11 9.748 3.058-10.018-5.712 6.058-4.95-7.785 2.227-7.918 2.267zm13.03-19.775l12.195 3.082 11.992 3.029-10.56-7.642 12.156-10.193-12.783 5.812-13 5.912z" fill="red"/><path d="M391.229 427.618c-3.226.057-10.406 2.87-6.699 6.71 2.567 3.044 5.585 5.853 9.835 4.866 1.817 1.01 8.965 1.259 5.995-1.692-1.755-.312-8.29-.277-3.732-2.42 4.096.126 3.66-6.682-.602-4.445-1.915-.34-7.123 3.76-6.544.022.903-1.658 7.32-3.63 2.244-3.091l-.497.05zm4.209 46.23c-4.988-.61.087 5.72 2.065 2.167.623-2.174.33-2.879-2.065-2.168zm29.047-27.966c-1.083 3.535-4.002.802-5.013-.029-.325 6.364-.198 12.766-.599 19.136 1.65-.944 1.28-4.728 4.186-2.389 4.353 1.08 6.441-3.934 4.584-7.344-.675-3.574-1.349-7.149-2.022-10.723-.795-.298-.715 1.008-1.136 1.35zm-10.77-5.184c.36 4.628-6.375 5.671-9.371 3.635-3.418-2.89-.006 3.253.652 4.603 2.411 5.476 2.136 12.03-1.055 17.13-2.776 2.11 1.921 5.305 2.794 3.267-2.891-4.146 4.793-4.65 7.497-4.173 4.924-.247 2.972-6.736 3.417-10.054.156-5.024-1.34-9.977-3.52-14.461l-.207.027-.206.026zm-23.702 1.136c-5.456.23-2.31 5.398.36 7.265 2.74 2.136 1.864 5.619 1.999 8.63.192 4.23-1.973 8.073-4.921 10.947-1.795 1.54-1.767 2.76.75 2.895 3.802 2.391 4.81-1.304 3.93-4.341.006-4.284 4.993-2.84 7.162-1.128 3.436.997 4.532-4.166 5.091-6.708.763-4.813-1.124-9.44-2.511-13.942-2.499-3.5-7.84-3.702-11.86-3.618zm5.331 1.937c2.014.166 6.31 4.996 1.96 3.28-2.424-.384-3.417 4.304-5.476.723-1.324-2.292 1.552-4.014 3.516-4.003zm-51.574 29.114c-3.203 1.603 1.198 3.882 3.228 2.899 1.91.504 5.597-.563 2.168-1.983a15.325 15.325 0 0 0-5.396-.916zm25.88-7.308c-3.326-1.008-3.973 4.164-.388 3.22 1.335-.765 8.323-.883 4.547-2.88-1.342-.428-2.77-.355-4.158-.34zm-14.87.868c-3.472.658-1.677 5.426 1.473 3.662 1.87.242 8.52-.733 3.992-2.277-1.875-.28-3.536-1.416-5.465-1.385zm1.723-28.713c-4.152-1.038-2.902 5.189.702 3.08 1.837-1.124 6.42-.382 6.675-2.148-2.242-1.23-4.932-.711-7.377-.932zm-13.975 3.479c-2.051-.596-5.256 1.932-1.562 1.914 2.274-.3 1.546 2.802 4.413 2.016-1.646 2.7-5.413 3.52-7.975 1.221.551 3.074 3.885 6.152 3.823 9.857.676 4.227-.32 8.517-2.036 12.371 1.293 1.414 5.178 2.589 6.811 1.935-1.959-2.354-6.182-4.15-2.54-6.917 2.759-2.124 7.497 2.3 9.908-1.933 1.186-3.462.506-7.437-.382-10.951-1.336-3.949-3.59-8.825-8.256-9.38a13.033 13.033 0 0 0-2.204-.133zm27.23-.895c-.624 2.202 6.178 3.625 5.92 5.455-2.284-.44-6.18-.484-4.754 2.973.374 3.8-.868 8.86.668 11.877 2.516-.017 8.148 3.08 8.043-1.115.322-5.028.262-10.213-.987-15.102-1.67-3.137-5.693-3.773-8.89-4.088zm-4.783 1.336c-1.273 4.044-5.662.819-8.156 2.071-1.282 2.181-5.354-.978-3.345 2.603 2.094 5.685 2.201 11.815 2.407 17.786 2.103 1.734 2.593-3.932 5.598-2.24 2.222.966 7.487 1.673 6.36-2.154-1.847-.736 2.984-1.889 1.137-3.9-.864-4.207 1.137-9.604-2.218-12.778-.496-.564-1.033-1.174-1.783-1.388zm-20.051-15.803c-3.468-.177-7.244 3.518-7.386 6.435 2.87 1.535.496 7.876 5.709 6.476 1.644-.998 6.534-.262 6.202-2.32-3.626-.703-.185-4.28 2.287-3.068 1.524-.017 5.364-.773 2.125-1.788-3.05-1.638-6.38-1.736-9.58-.623-1.2-3.362 7.36-2.935 4.877-4.908-1.401-.205-2.821-.22-4.234-.204z" fill="#fff"/></svg>